<svg width="60" height="60" viewBox="0 0 60 60" fill="none" xmlns="http://www.w3.org/2000/svg">
<g clip-path="url(#clip0_1112_2)">
<path fill-rule="evenodd" clip-rule="evenodd" d="M0 53.111H7.1875V0.83326C7.1875 0.376824 7.53418 0 7.9541 0H32.2998C32.7197 0 33.0664 0.376824 33.0664 0.83326V20.4334H54.6094C55.0293 20.4334 55.376 20.8103 55.376 21.2667V53.1057H60V60H0V53.111ZM13.3398 7.86555H18.3203C18.4717 7.86555 18.5986 8.00354 18.5986 8.16807V14.728C18.5986 14.8925 18.4717 15.0305 18.3203 15.0305H13.3398C13.1885 15.0305 13.0615 14.8925 13.0615 14.728V8.16807C13.0615 8.00354 13.1885 7.86555 13.3398 7.86555ZM21.7773 40.4954H26.7578C26.9092 40.4954 27.0361 40.6333 27.0361 40.7979V47.3578C27.0361 47.5223 26.9092 47.6603 26.7578 47.6603H21.7773C21.626 47.6603 21.499 47.5223 21.499 47.3578V40.7979C21.499 40.628 21.626 40.4954 21.7773 40.4954ZM13.3398 40.4954H18.3203C18.4717 40.4954 18.5986 40.6333 18.5986 40.7979V47.3578C18.5986 47.5223 18.4717 47.6603 18.3203 47.6603H13.3398C13.1885 47.6603 13.0615 47.5223 13.0615 47.3578V40.7979C13.0615 40.628 13.1885 40.4954 13.3398 40.4954ZM21.7773 29.6152H26.7578C26.9092 29.6152 27.0361 29.7532 27.0361 29.9177V36.4777C27.0361 36.6422 26.9092 36.7802 26.7578 36.7802H21.7773C21.626 36.7802 21.499 36.6422 21.499 36.4777V29.923C21.499 29.7532 21.626 29.6152 21.7773 29.6152ZM13.3398 29.6152H18.3203C18.4717 29.6152 18.5986 29.7532 18.5986 29.9177V36.4777C18.5986 36.6422 18.4717 36.7802 18.3203 36.7802H13.3398C13.1885 36.7802 13.0615 36.6422 13.0615 36.4777V29.923C13.0615 29.7532 13.1885 29.6152 13.3398 29.6152ZM21.7773 18.7404H26.7578C26.9092 18.7404 27.0361 18.8784 27.0361 19.0429V25.6028C27.0361 25.7674 26.9092 25.9054 26.7578 25.9054H21.7773C21.626 25.9054 21.499 25.7674 21.499 25.6028V19.0429C21.499 18.8784 21.626 18.7404 21.7773 18.7404ZM13.3398 18.7404H18.3203C18.4717 18.7404 18.5986 18.8784 18.5986 19.0429V25.6028C18.5986 25.7674 18.4717 25.9054 18.3203 25.9054H13.3398C13.1885 25.9054 13.0615 25.7674 13.0615 25.6028V19.0429C13.0615 18.8784 13.1885 18.7404 13.3398 18.7404ZM21.7773 7.86555H26.7578C26.9092 7.86555 27.0361 8.00354 27.0361 8.16807V14.728C27.0361 14.8925 26.9092 15.0305 26.7578 15.0305H21.7773C21.626 15.0305 21.499 14.8925 21.499 14.728V8.16807C21.499 8.00354 21.626 7.86555 21.7773 7.86555ZM11.3135 3.88501H28.8525C29.1553 3.88501 29.4043 4.20876 29.4043 4.6015V50.176C29.4043 50.5688 29.1553 50.8925 28.8525 50.8925H11.3135C11.0107 50.8925 10.7617 50.5688 10.7617 50.176V4.6015C10.7617 4.20876 11.0107 3.88501 11.3135 3.88501ZM35.4541 28.3574H40.4346C40.5859 28.3574 40.7129 28.4954 40.7129 28.6599V35.2198C40.7129 35.3843 40.5859 35.5223 40.4346 35.5223H35.4541C35.3027 35.5223 35.1758 35.3843 35.1758 35.2198V28.6599C35.1758 28.4954 35.3027 28.3574 35.4541 28.3574ZM43.8916 40.4954H48.8721C49.0234 40.4954 49.1504 40.6333 49.1504 40.7979V47.3578C49.1504 47.5223 49.0234 47.6603 48.8721 47.6603H43.8916C43.7402 47.6603 43.6133 47.5223 43.6133 47.3578V40.7979C43.6133 40.628 43.7402 40.4954 43.8916 40.4954ZM35.4541 40.4954H40.4346C40.5859 40.4954 40.7129 40.6333 40.7129 40.7979V47.3578C40.7129 47.5223 40.5859 47.6603 40.4346 47.6603H35.4541C35.3027 47.6603 35.1758 47.5223 35.1758 47.3578V40.7979C35.1758 40.628 35.3027 40.4954 35.4541 40.4954ZM43.8916 28.3574H48.8721C49.0234 28.3574 49.1504 28.4954 49.1504 28.6599V35.2198C49.1504 35.3843 49.0234 35.5223 48.8721 35.5223H43.8916C43.7402 35.5223 43.6133 35.3843 43.6133 35.2198V28.6599C43.6133 28.4954 43.7402 28.3574 43.8916 28.3574ZM33.623 24.3184H51.1621C51.4648 24.3184 51.7139 24.6422 51.7139 25.0349V50.176C51.7139 50.5688 51.4648 50.8925 51.1621 50.8925H33.623C33.3203 50.8925 33.0713 50.5688 33.0713 50.176V25.0349C33.0713 24.6422 33.3203 24.3184 33.623 24.3184Z" fill="#CD9C49"/>
</g>
<defs>
<clipPath id="clip0_1112_2">
<rect width="60" height="60" fill="white"/>
</clipPath>
</defs>
</svg>
