<svg width="60" height="60" viewBox="0 0 60 60" fill="none" xmlns="http://www.w3.org/2000/svg">
<g clip-path="url(#clip0_1112_5)">
<path fill-rule="evenodd" clip-rule="evenodd" d="M15.5224 4.76606C15.1318 5.49492 14.5703 5.94477 13.8671 6.15545C18.9062 11.7813 20.8349 18.25 29.0136 17.5724C31.2646 17.2933 33.374 16.8948 35.3369 16.4905C41.1425 15.2947 47.6123 12.7095 52.2314 18.193C52.6464 18.6827 53.0273 19.218 53.3642 19.8102C59.9023 15.3175 57.7392 26.9394 60 30.2989C56.7334 30.7032 55.6787 20.1063 54.3212 21.9968C56.3086 25.6468 51.6845 33.3681 55.913 41.3742C56.3574 42.217 57.0947 43.3672 56.6113 44.3921L56.4746 52.2786C57.0019 53.0872 57.3535 53.4858 57.4218 55.3592L56.8457 56.8966L56.25 56.9479C56.5478 57.4262 56.5283 58.1494 56.2939 59.0377C54.5752 59.7608 53.9843 59.6185 52.3388 58.9295C52.583 57.7337 53.0761 56.703 53.7207 55.7635C54.6191 53.2182 54.6484 51.0487 54.2285 49.0045C53.3935 46.0492 52.1191 43.8341 50.5957 42.029C50.9472 44.6142 49.8291 46.8862 47.4218 48.8963L45.3515 53.8844C45.6933 55.9343 45.6347 55.5243 44.8632 57.4262C44.5263 56.7201 44.2285 56.629 43.9892 57.4775L43.6962 59.1914C42.7539 59.9715 41.5918 59.9772 40.1562 59.032C40.6054 57.2611 41.2353 56.2076 41.6406 55.2225C42.4658 54.3286 43.2275 52.6943 43.6084 51.4701C46.8945 43.7487 45.3857 38.1968 43.5156 36.1811C42.3388 35.5319 41.5625 36.1298 40.4248 36.5797C37.4658 37.7584 35.1855 38.5328 27.9687 37.5192C28.1347 38.6694 28.0712 39.7969 27.6904 40.8959C27.7002 41.5792 27.7295 42.217 27.788 42.7978C27.9736 44.6028 28.75 45.4456 28.8574 46.9261C28.8769 47.2165 28.8769 47.524 28.8574 47.8542C28.7744 49.1411 28.7451 49.534 28.789 50.8608C28.8281 52.0679 28.8281 53.315 29.292 54.0723C29.7754 54.8581 30.1611 55.4788 29.8974 56.5607V57.3123L28.8134 56.9422C28.9062 57.5743 29.0332 58.2405 28.9697 58.8725C28.8134 59.2028 28.5888 59.5502 28.2031 59.7096C27.7197 59.9089 27.3193 59.9943 26.914 60C26.5283 60 26.1377 59.926 25.6689 59.795C25.3076 59.6982 25.0683 59.4249 24.8828 59.1914L26.2646 56.4013C27.3193 52.2559 26.1718 50.3426 25.1757 47.1766L24.3359 44.6028C23.9404 47.467 23.4082 50.2572 22.5439 52.8651L23.0517 55.5984C22.7099 55.9514 22.6855 56.4981 23.0957 57.3123L21.9921 56.8283C21.7822 57.0333 21.7236 57.6198 21.7871 58.4853C21.9287 60.3246 19.2675 59.6356 18.1543 59.3281C18.413 58.1949 18.8281 57.4832 19.3212 56.9934C19.3945 55.1827 20.7861 50.2287 20.6543 48.1959C20.542 47.4727 20.5175 46.6869 20.5566 45.8499C20.6738 43.3102 21.289 42.5928 20.7128 39.2958C20.5127 38.1285 16.0644 32.5197 13.7451 27.4917C12.041 23.7961 10.664 19.981 8.90621 16.257C8.03707 16.7353 7.24117 16.946 6.52828 16.872C6.14742 19.1212 5.92281 20.3056 4.08687 21.6608C3.61324 19.8785 3.84761 18.2215 4.45308 16.8492L1.82125 17.0485C1.39644 17.1111 1.04488 16.7866 1.00093 16.3937C0.605427 16.3766 0.458943 16.0919 0.532185 15.3004C-0.717815 14.2925 0.522419 12.4362 1.20113 11.5308L5.53707 5.76824C4.68746 5.43798 3.94039 4.41871 3.27144 3.13751C4.58492 3.01224 5.76656 3.35389 7.0898 4.12831C8.88179 1.29259 12.2363 -0.216381 15.1953 0.0284706C16.0205 0.0968012 16.8261 0.296099 17.6074 0.632058C13.9257 0.734554 11.5771 2.05561 10.1513 4.05998C13.3154 1.8734 16.8554 0.523867 20.5224 3.09196C17.2363 2.62503 14.414 2.86989 13.3837 4.52121C14.082 4.56676 14.8291 4.56676 15.5224 4.76606ZM8.12496 8.38189C8.59859 8.32495 9.00875 8.54133 9.03316 8.86021C9.06246 9.17908 8.69625 9.48657 8.22261 9.53782C7.74898 9.59476 7.33883 9.37838 7.31441 9.0595C7.29 8.74632 7.65133 8.43883 8.12496 8.38189Z" fill="#CD9C49"/>
</g>
<defs>
<clipPath id="clip0_1112_5">
<rect width="60" height="60" fill="white"/>
</clipPath>
</defs>
</svg>
