<svg width="60" height="60" viewBox="0 0 60 60" fill="none" xmlns="http://www.w3.org/2000/svg">
<g clip-path="url(#clip0_1112_8)">
<path d="M32.9363 18.1396C32.8841 18.1592 32.8376 18.1836 32.7854 18.208C32.6113 18.2959 32.4663 18.4082 32.356 18.5498C32.24 18.706 32.1529 18.9013 32.1007 19.1504C31.8164 20.5908 31.9846 22.915 32.1819 25.6006C32.2806 26.997 32.3908 28.4912 32.4489 30.1269C32.5127 31.8994 32.4024 33.5693 32.298 35.2295C32.1993 36.7822 32.1007 38.3252 32.1413 39.8535C32.1471 40.0146 32.1529 40.2051 32.1645 40.4199C32.1703 40.5713 32.1819 40.7568 32.1993 40.9863C32.3444 43.1347 32.5707 45.0097 33.1974 46.7041C33.8009 48.3398 34.799 49.8437 36.4933 51.333C36.9402 51.7285 38.6171 52.8515 40.4566 54.0429C42.8009 55.5615 45.3599 57.1484 46.0272 57.4951C46.7351 57.8613 46.9556 58.6426 46.5146 59.2383C46.0736 59.834 45.151 60.0195 44.443 59.6484C43.6887 59.2578 41.0137 57.6025 38.6113 56.0449C36.6732 54.79 34.8744 53.5742 34.3173 53.0859C32.2632 51.2793 31.0504 49.4482 30.3135 47.4512C30.209 47.1728 30.1162 46.8896 30.0291 46.6015C29.3038 48.5693 28.0852 50.5273 26.1181 52.5293C25.6481 53.0078 23.9421 54.3652 22.1026 55.7763C19.8686 57.4902 17.4024 59.3213 16.7409 59.7412C16.0736 60.1611 15.1278 60.0537 14.6287 59.4922C14.1297 58.9306 14.2574 58.1347 14.9247 57.7148C15.5224 57.334 17.8957 55.5713 20.0775 53.9013C21.8473 52.5439 23.4489 51.2793 23.797 50.9228C28.6771 45.9472 28.1839 41.001 27.6152 35.2929C27.209 31.1914 26.7622 26.7236 28.0678 21.4941C28.3231 20.4687 28.4102 19.6435 28.1142 19.1455C27.9227 18.8281 27.4817 18.5937 26.681 18.4521C25.8512 19.292 25.0678 20.5713 24.3367 22.1435C23.4256 24.1064 22.6075 26.5088 21.8705 29.1162C21.679 29.7998 20.8667 30.2197 20.0543 30.0586C19.2419 29.8974 18.7429 29.2138 18.9343 28.5302C19.7003 25.8349 20.5533 23.3203 21.534 21.2207C22.4682 19.209 23.5301 17.5635 24.7487 16.4697L28.2477 3.41794C27.6152 2.87107 27.0697 2.60251 26.6345 2.66599C26.002 2.76365 25.2825 3.45701 24.4585 4.86814L18.238 18.4277C16.6539 21.8799 15.7429 24.165 15.3193 26.4941C14.8899 28.8183 14.9247 31.2842 15.2264 35.1172L15.592 39.79C15.6268 40.2636 15.3483 40.6933 14.9073 40.9326L2.37922 48.4228C1.70031 48.8281 0.760269 48.6963 0.278644 48.125C-0.202981 47.5537 -0.0463075 46.7627 0.632609 46.3574L12.5224 39.2431L12.2148 35.2734C11.9015 31.2744 11.8725 28.667 12.3425 26.1035C12.8125 23.5449 13.7699 21.1279 15.4295 17.5146L21.6616 3.94529C21.679 3.89646 21.7022 3.84763 21.7313 3.7988C23.0195 1.56736 24.4875 0.419896 26.1065 0.175756C27.4121 -0.019557 28.6655 0.361302 29.8725 1.23533C30.7777 0.581029 31.7177 0.13181 32.7158 0.0243884C34.3115 -0.14651 35.7854 0.468724 37.0794 2.31443C37.1432 2.39255 37.1955 2.48044 37.2419 2.5781L42.5398 14.3457C42.9227 15.1953 43.1955 15.7861 43.4624 16.3672C45.7371 21.3232 47.5997 25.376 47.7448 31.2109C47.7854 32.6758 47.8144 34.1845 47.7622 35.7129C47.7158 37.041 47.5997 38.374 47.3734 39.6972L59.4431 47.8662C60.093 48.3056 60.1916 49.1015 59.6752 49.6484C59.1529 50.1953 58.2071 50.2783 57.5572 49.8437L44.797 41.2109C44.356 40.9131 44.1645 40.4443 44.2574 40.0049C44.5649 38.5351 44.7042 37.0801 44.7564 35.6445C44.8086 34.165 44.7738 32.6904 44.739 31.2597C44.5939 25.8789 42.8183 22.0166 40.6481 17.2851C40.3115 16.5478 39.9634 15.791 39.7138 15.2441L34.4566 3.56443C33.9053 2.78318 33.4643 2.49997 33.093 2.53904C32.6461 2.58786 32.1007 2.9199 31.4972 3.41794L34.9498 16.2011C35.1529 16.416 35.356 16.6406 35.5533 16.8799C35.826 17.2021 36.0813 17.5342 36.3251 17.8711C37.3405 19.2773 38.2051 20.9131 38.9769 22.7929C39.7429 24.6484 40.416 26.7285 41.0543 29.0527C41.24 29.7363 40.7351 30.415 39.9227 30.5713C39.1104 30.7275 38.3038 30.3027 38.1181 29.6191C37.4972 27.3486 36.8531 25.3515 36.1394 23.6181C35.4314 21.9043 34.6539 20.4297 33.7545 19.1845C33.5398 18.8867 33.3193 18.6035 33.0988 18.3398C33.0465 18.2715 32.9885 18.208 32.9363 18.1396ZM27.9343 16.1084C28.7757 16.3232 29.4373 16.6357 29.9479 17.0361C30.3077 16.6162 30.7429 16.2842 31.2303 16.0351C31.3986 15.9472 31.5784 15.874 31.7583 15.8056L29.8783 8.8574L27.9343 16.1084Z" fill="#CD9C49"/>
</g>
<defs>
<clipPath id="clip0_1112_8">
<rect width="60" height="60" fill="white"/>
</clipPath>
</defs>
</svg>
