<svg width="60" height="60" viewBox="0 0 60 60" fill="none" xmlns="http://www.w3.org/2000/svg">
<g clip-path="url(#clip0_1112_11)">
<path fill-rule="evenodd" clip-rule="evenodd" d="M53.7674 27.7149H50.8388V35.7764H53.7727V35.7862C54.3754 35.7862 54.9304 35.5469 55.3375 35.1709L55.4115 35.1075C55.771 34.7412 55.993 34.2627 55.993 33.7403H55.9877V33.7256H55.993V29.7705H55.9877V29.7608H55.993C55.993 29.1993 55.7393 28.6866 55.3375 28.3155C54.9357 27.9444 54.3807 27.71 53.778 27.7051V27.71H53.7674V27.7149ZM16.7366 0.297889C17.6617 -0.268517 18.8934 -0.00972837 19.4855 0.869178C20.0776 1.74808 19.808 2.92484 18.8829 3.49125C17.1965 4.52152 17.1859 5.3223 17.704 6.04008C18.1481 6.66019 18.8353 7.3389 19.5172 8.00785C20.4635 8.94047 21.415 9.87308 22.0652 10.9522C23.6141 13.5059 23.4767 16.045 18.6027 18.5645C17.6406 19.0625 16.43 18.7256 15.9067 17.8077C15.3833 16.8897 15.7375 15.7373 16.6996 15.2393C18.7348 14.1895 18.9939 13.4522 18.6185 12.837C18.2274 12.1973 17.445 11.4258 16.6626 10.6543C15.8538 9.85844 15.0397 9.05765 14.4106 8.17875C12.5974 5.6348 12.2696 3.02738 16.7366 0.297889ZM39.156 0.297889C40.0811 -0.268517 41.3128 -0.00972837 41.9049 0.869178C42.497 1.74808 42.2274 2.92484 41.3022 3.49125C39.6159 4.52152 39.6106 5.3223 40.1234 6.04008C40.5674 6.66019 41.2547 7.3389 41.9366 8.00785C42.8829 8.94047 43.8344 9.87308 44.4846 10.9522C46.0335 13.5059 45.9014 16.045 41.0274 18.5645C40.0652 19.0625 38.8547 18.7256 38.3313 17.8077C37.808 16.8897 38.1622 15.7373 39.1243 15.2393C41.1595 14.1895 41.4133 13.4571 41.0379 12.837C40.6467 12.1973 39.8644 11.4258 39.082 10.6543C38.2732 9.85844 37.4591 9.05765 36.83 8.17875C35.0168 5.62992 34.6837 3.02738 39.156 0.297889ZM27.9489 0.297889C28.8741 -0.268517 30.1058 -0.00972837 30.6978 0.869178C31.2899 1.74808 31.0203 2.92484 30.0952 3.49125C28.4089 4.52152 28.3983 5.3223 28.9163 6.04008C29.3604 6.66019 30.0476 7.3389 30.7296 8.00785C31.6758 8.94047 32.6274 9.87308 33.2776 10.9522C34.8265 13.5059 34.6943 16.045 29.8203 18.5645C28.8582 19.0625 27.6476 18.7256 27.1243 17.8077C26.6009 16.8897 26.9551 15.7373 27.9172 15.2393C29.9525 14.1895 30.2062 13.4522 29.8309 12.837C29.4397 12.1973 28.6573 11.4258 27.8749 10.6543C27.0661 9.85844 26.2467 9.05765 25.623 8.17875C23.8045 5.6348 23.482 3.02738 27.9489 0.297889ZM0.750705 54.8536H19.845C13.3692 51.8604 8.89167 45.6739 8.89167 38.5596V23.8868H48.3172V24.0772C48.4864 24.0332 48.6661 24.0137 48.8511 24.0137H53.7939V24.0235H53.8044C55.5067 24.0284 57.0503 24.668 58.171 25.7032C59.297 26.7383 60 28.1787 60.0053 29.7608H60.0106V29.7705H60.0053V33.6573V33.7256H60.0106V33.7403H60.0053V33.75C60 35.2539 59.3604 36.6309 58.3243 37.6514C58.282 37.7002 58.2344 37.7442 58.1868 37.7881C57.0661 38.8233 55.5067 39.4678 53.7886 39.4727V39.4825H48.8511C48.6608 39.4825 48.4705 39.4532 48.2961 39.4092C47.963 46.167 43.5912 51.9922 37.3692 54.8633H57.5366C57.9489 54.8633 58.2873 55.2344 58.2873 55.6934V59.1846C58.2873 59.6436 57.9489 60.0098 57.5366 60.0098H0.761278C0.348943 60.0098 0.0106172 59.6387 0.0106172 59.1846V55.6934C4.45426e-05 55.2246 0.338371 54.8536 0.750705 54.8536Z" fill="#CD9C49"/>
</g>
<defs>
<clipPath id="clip0_1112_11">
<rect width="60" height="60" fill="white"/>
</clipPath>
</defs>
</svg>
