<svg width="60" height="60" viewBox="0 0 60 60" fill="none" xmlns="http://www.w3.org/2000/svg">
<g clip-path="url(#clip0_1112_14)">
<path d="M23.825 38.5547L28.1528 45.6641L26.3254 46.7579L21.9976 39.6485L23.825 38.5547ZM17.4143 38.1153C18.2789 39.4532 19.0501 40.6055 19.7133 41.6016C23.7218 47.5928 24.1394 48.2178 24.1639 57.876H33.5417C33.7824 48.2813 34.7305 46.0938 37.8744 38.8379C38.2674 37.9297 38.6948 36.9434 39.1369 35.9082C38.8962 35.7276 38.6604 35.5323 38.4197 35.3272C37.953 35.8057 37.4863 36.2403 37.0197 36.6211C34.8582 38.3985 32.6476 39.2237 30.4272 39.1407C28.2216 39.0625 26.0552 38.086 23.9625 36.2745C23.432 35.8106 22.9064 35.2979 22.3856 34.7364C20.7744 36.2452 19.0894 37.3584 17.4143 38.1153ZM15.3707 38.8672C14.4276 39.1358 13.4991 39.2871 12.5903 39.336C10.4583 39.4483 8.46882 38.9746 6.77896 37.9834C5.08909 36.9922 3.70871 35.4786 2.80483 33.5303C1.45883 30.6104 1.19848 26.7041 2.60833 22.0752C0.44688 18.9014 -0.280155 15.7227 0.0931872 12.8418C0.412493 10.4102 1.51287 8.20805 3.20765 6.42094C4.87786 4.65824 7.12774 3.29594 9.76078 2.50981C13.956 1.25981 19.1582 1.47465 24.5667 3.88188C25.1317 3.43754 25.6917 3.03227 26.2517 2.67094C29.484 0.566446 32.8294 -0.375936 36.1796 0.141642C39.5004 0.654337 42.7623 2.60258 45.8374 6.27445C46.4662 7.02641 47.0852 7.84184 47.6845 8.72074C51.3344 8.63285 54.3899 9.56547 56.5366 11.1231C57.9858 12.1729 59.0272 13.5108 59.5774 15.0196C60.1276 16.543 60.1718 18.2276 59.6118 19.9463C58.8749 22.2315 57.0721 24.5801 53.992 26.6895C53.7316 29.4873 53.0046 31.8946 51.9288 33.7647C50.907 35.5323 49.5659 36.836 47.994 37.5538C46.3876 38.2911 44.57 38.4082 42.6394 37.793C42.0893 37.6172 41.5292 37.3829 40.9594 37.0801C40.5468 38.0469 40.1783 38.8916 39.8443 39.6729C36.7151 46.8995 35.8456 48.9014 35.654 58.9502L35.6344 59.9952H34.5831H23.0979H22.0319V58.9356C22.0319 48.8819 21.7569 48.4717 17.9399 42.7686C17.2227 41.6993 16.3827 40.4444 15.3707 38.8672ZM31.3213 46.7725V52.3877V53.4473H30.2553H28.5605V51.3282H29.1844V46.7774H31.3213V46.7725Z" fill="#CD9C49"/>
</g>
<defs>
<clipPath id="clip0_1112_14">
<rect width="60" height="60" fill="white"/>
</clipPath>
</defs>
</svg>
