<svg width="120" height="120" viewBox="0 0 120 120" fill="none" xmlns="http://www.w3.org/2000/svg">
<g clip-path="url(#clip0_1108_2)">
<path fill-rule="evenodd" clip-rule="evenodd" d="M0 106.222H14.375V1.66652C14.375 0.753649 15.0684 0 15.9082 0H64.5996C65.4395 0 66.1328 0.753649 66.1328 1.66652V40.8669H109.219C110.059 40.8669 110.752 41.6205 110.752 42.5334V106.211H120V120H0V106.222ZM26.6797 15.7311H36.6406C36.9434 15.7311 37.1973 16.0071 37.1973 16.3361V29.456C37.1973 29.785 36.9434 30.061 36.6406 30.061H26.6797C26.377 30.061 26.123 29.785 26.123 29.456V16.3361C26.123 16.0071 26.377 15.7311 26.6797 15.7311ZM43.5547 80.9907H53.5156C53.8184 80.9907 54.0723 81.2667 54.0723 81.5958V94.7156C54.0723 95.0447 53.8184 95.3207 53.5156 95.3207H43.5547C43.252 95.3207 42.998 95.0447 42.998 94.7156V81.5958C42.998 81.2561 43.252 80.9907 43.5547 80.9907ZM26.6797 80.9907H36.6406C36.9434 80.9907 37.1973 81.2667 37.1973 81.5958V94.7156C37.1973 95.0447 36.9434 95.3207 36.6406 95.3207H26.6797C26.377 95.3207 26.123 95.0447 26.123 94.7156V81.5958C26.123 81.2561 26.377 80.9907 26.6797 80.9907ZM43.5547 59.2304H53.5156C53.8184 59.2304 54.0723 59.5064 54.0723 59.8355V72.9553C54.0723 73.2844 53.8184 73.5604 53.5156 73.5604H43.5547C43.252 73.5604 42.998 73.2844 42.998 72.9553V59.8461C42.998 59.5064 43.252 59.2304 43.5547 59.2304ZM26.6797 59.2304H36.6406C36.9434 59.2304 37.1973 59.5064 37.1973 59.8355V72.9553C37.1973 73.2844 36.9434 73.5604 36.6406 73.5604H26.6797C26.377 73.5604 26.123 73.2844 26.123 72.9553V59.8461C26.123 59.5064 26.377 59.2304 26.6797 59.2304ZM43.5547 37.4808H53.5156C53.8184 37.4808 54.0723 37.7567 54.0723 38.0858V51.2057C54.0723 51.5347 53.8184 51.8107 53.5156 51.8107H43.5547C43.252 51.8107 42.998 51.5347 42.998 51.2057V38.0858C42.998 37.7567 43.252 37.4808 43.5547 37.4808ZM26.6797 37.4808H36.6406C36.9434 37.4808 37.1973 37.7567 37.1973 38.0858V51.2057C37.1973 51.5347 36.9434 51.8107 36.6406 51.8107H26.6797C26.377 51.8107 26.123 51.5347 26.123 51.2057V38.0858C26.123 37.7567 26.377 37.4808 26.6797 37.4808ZM43.5547 15.7311H53.5156C53.8184 15.7311 54.0723 16.0071 54.0723 16.3361V29.456C54.0723 29.785 53.8184 30.061 53.5156 30.061H43.5547C43.252 30.061 42.998 29.785 42.998 29.456V16.3361C42.998 16.0071 43.252 15.7311 43.5547 15.7311ZM22.627 7.77001H57.7051C58.3105 7.77001 58.8086 8.41751 58.8086 9.20301V100.352C58.8086 101.138 58.3105 101.785 57.7051 101.785H22.627C22.0215 101.785 21.5234 101.138 21.5234 100.352V9.20301C21.5234 8.41751 22.0215 7.77001 22.627 7.77001ZM70.9082 56.7147H80.8691C81.1719 56.7147 81.4258 56.9907 81.4258 57.3198V70.4396C81.4258 70.7687 81.1719 71.0447 80.8691 71.0447H70.9082C70.6055 71.0447 70.3516 70.7687 70.3516 70.4396V57.3198C70.3516 56.9907 70.6055 56.7147 70.9082 56.7147ZM87.7832 80.9907H97.7441C98.0469 80.9907 98.3008 81.2667 98.3008 81.5958V94.7156C98.3008 95.0447 98.0469 95.3207 97.7441 95.3207H87.7832C87.4805 95.3207 87.2266 95.0447 87.2266 94.7156V81.5958C87.2266 81.2561 87.4805 80.9907 87.7832 80.9907ZM70.9082 80.9907H80.8691C81.1719 80.9907 81.4258 81.2667 81.4258 81.5958V94.7156C81.4258 95.0447 81.1719 95.3207 80.8691 95.3207H70.9082C70.6055 95.3207 70.3516 95.0447 70.3516 94.7156V81.5958C70.3516 81.2561 70.6055 80.9907 70.9082 80.9907ZM87.7832 56.7147H97.7441C98.0469 56.7147 98.3008 56.9907 98.3008 57.3198V70.4396C98.3008 70.7687 98.0469 71.0447 97.7441 71.0447H87.7832C87.4805 71.0447 87.2266 70.7687 87.2266 70.4396V57.3198C87.2266 56.9907 87.4805 56.7147 87.7832 56.7147ZM67.2461 48.6369H102.324C102.93 48.6369 103.428 49.2844 103.428 50.0699V100.352C103.428 101.138 102.93 101.785 102.324 101.785H67.2461C66.6406 101.785 66.1426 101.138 66.1426 100.352V50.0699C66.1426 49.2844 66.6406 48.6369 67.2461 48.6369Z" fill="#CD9C49"/>
</g>
<defs>
<clipPath id="clip0_1108_2">
<rect width="120" height="120" fill="white"/>
</clipPath>
</defs>
</svg>
