<svg width="120" height="120" viewBox="0 0 120 120" fill="none" xmlns="http://www.w3.org/2000/svg">
<g clip-path="url(#clip0_1108_5)">
<path fill-rule="evenodd" clip-rule="evenodd" d="M6.27905 51.5767H113.711C117.168 51.5767 119.99 54.6349 119.99 58.381V72.3386C119.668 72.4656 119.375 72.6561 119.121 72.8995L119.99 73.9894L119.121 72.9101C113.427 78.2434 109.824 79.9683 107.217 79.8413C104.931 79.7249 102.959 77.8307 100.879 75.8307C95.4002 70.5609 90.7419 67.6508 85.9958 67.1005C81.24 66.5397 76.7185 68.3386 71.5916 72.4762C71.3767 72.5926 71.1814 72.7407 70.9958 72.9101L71.074 73.0053L71.0056 72.9101L70.6931 73.2064L70.5466 73.3439C70.5173 73.3651 70.4783 73.3968 70.449 73.4286V73.4392C70.3904 73.4815 70.1658 73.6931 69.7751 74.0317C69.5505 74.2328 69.3845 74.381 69.2673 74.4868C69.2283 74.5185 69.199 74.5397 69.1599 74.5714C67.0505 76.3915 65.2439 77.6825 63.6716 78.5185C62.3728 79.2169 61.2595 79.6085 60.2927 79.7672C59.3259 79.6085 58.2224 79.2169 56.9236 78.5185C55.3904 77.6931 53.6228 76.4444 51.572 74.6878C51.5525 74.6667 51.5232 74.6455 51.5037 74.6243L51.4353 74.5714C51.3279 74.4762 51.1326 74.2963 50.8201 74.0212C50.5955 73.8201 50.4294 73.672 50.3123 73.5767C50.283 73.545 50.2439 73.5132 50.2146 73.4815L50.1462 73.4286C50.1072 73.3968 50.0388 73.3228 49.9021 73.2064L49.7458 73.0582C49.7165 73.0265 49.6775 72.9841 49.6482 72.9524C49.4529 72.7619 49.238 72.5926 49.0037 72.4656C43.8767 68.328 39.3552 66.5397 34.5994 67.0899C29.8533 67.6402 25.1951 70.5503 19.7166 75.8201C17.6365 77.8201 15.6638 79.7143 13.3787 79.8307C10.8005 79.9683 7.24585 78.2751 1.64038 73.0582C1.60132 73.0159 1.57202 72.9841 1.53296 72.9418C1.10327 72.5185 0.566162 72.2434 -0.0100098 72.1481V58.381C-0.000244141 54.6349 2.83179 51.5767 6.27905 51.5767ZM25.7029 20.7407H36.7087V48.0952H25.7029V20.7407ZM92.1873 3.32275C94.0525 8.59259 88.2908 8.60317 88.4666 14.0529C88.7009 21.545 97.7634 19.3651 97.9294 12.5608C97.7341 10.3175 96.0447 9.69312 96.9431 7.30159C95.781 7.38624 94.8533 9.66138 94.8533 11.2804C94.9998 13.3651 91.5623 13.0476 93.1248 10.5079C94.4724 8.31746 93.8084 4.53968 92.1873 3.32275ZM60.8298 2.67725C62.7732 8.15873 56.7771 8.17989 56.9529 13.8519C57.2068 21.6508 66.6404 19.3757 66.8064 12.2963C66.6013 9.95767 64.8435 9.31217 65.7908 6.8254C64.5798 6.92063 63.6033 9.28042 63.613 10.9735C63.7595 13.1429 60.1853 12.8148 61.8162 10.1693C63.2126 7.8836 62.5193 3.94709 60.8298 2.67725ZM87.6951 20.7407H98.7009V48.0952H87.6951V20.7407ZM56.3865 20.7407H67.3826V48.0952H56.3865V20.7407ZM29.9802 0C32.2459 6.40212 25.2439 6.42328 25.4587 13.037C25.7517 22.1376 36.7576 19.4921 36.9626 11.2275C36.7185 8.49735 34.6677 7.74603 35.7712 4.83598C34.365 4.9418 33.2224 7.7037 33.2322 9.67196C33.408 12.2011 29.238 11.8201 31.1326 8.73016C32.7537 6.07407 31.9431 1.48148 29.9802 0ZM50.156 73.4286C50.1072 73.3862 50.0388 73.3228 50.156 73.4286ZM119.99 88.6878V113.196C119.99 116.942 117.158 120 113.711 120H6.27905C2.82202 120 -0.000244141 116.931 -0.000244141 113.196V88.2434C5.91772 92.5079 10.5759 93.873 14.5798 93.5132C20.1755 93.0053 23.9353 89.3862 27.9099 85.5661C31.2986 82.3069 33.7009 80.5503 35.7615 80.3069C37.6169 80.0952 39.6384 81.1746 42.4119 83.5767L42.5193 83.672C42.7146 83.8519 42.4998 83.6508 43.0173 84.1058L43.3103 84.3598C43.3591 84.4127 43.3982 84.455 43.447 84.4974C43.7302 84.7619 43.9158 84.9312 44.0134 85.0159C44.199 85.1958 44.4138 85.3862 44.5994 85.5661C46.7869 87.672 48.906 89.7037 51.3669 91.2169C53.9841 92.8254 56.865 93.7884 60.3123 93.5132C63.7693 93.7884 66.6404 92.836 69.2576 91.2169C71.7185 89.7037 73.8376 87.6614 76.0251 85.5661C76.1228 85.4709 76.3279 85.2804 76.6013 85.0159C76.6697 84.9524 76.8162 84.8254 77.0212 84.6349C77.0603 84.6032 77.0896 84.582 77.1287 84.5503L77.1677 84.5079C77.2458 84.4444 77.3923 84.3069 77.6072 84.127C77.783 83.9683 77.8709 83.8836 77.9197 83.8413C77.9685 83.8095 78.0076 83.7672 78.0564 83.7354L78.1052 83.6931C80.947 81.2275 82.988 80.1058 84.8728 80.328C86.9431 80.5714 89.3357 82.328 92.7244 85.5873C96.699 89.4074 100.469 93.0265 106.054 93.5344C109.902 93.8624 114.375 92.6032 119.99 88.6878Z" fill="#CD9C49"/>
</g>
<defs>
<clipPath id="clip0_1108_5">
<rect width="120" height="120" fill="white"/>
</clipPath>
</defs>
</svg>
