<svg width="60" height="60" viewBox="0 0 60 60" fill="none" xmlns="http://www.w3.org/2000/svg">
<g clip-path="url(#clip0_1110_2)">
<path fill-rule="evenodd" clip-rule="evenodd" d="M0.839844 55.8196H59.1553C59.6143 55.8196 59.9951 56.2989 59.9951 56.8632V58.9504C59.9951 59.5146 59.6143 59.9939 59.1553 59.9939H0.839844C0.380859 60 0 59.5328 0 58.9564V56.8693C0 56.2929 0.380859 55.8196 0.839844 55.8196ZM32.4219 11.9709C47.8369 13.4998 59.9609 27.2909 59.9609 46.8399C59.9609 48.4296 59.8779 49.9889 59.7266 51.5239H0.27832C0.12207 49.9707 0.0439453 48.4053 0.0439453 46.8339C0.0439453 27.1939 12.2803 13.3482 27.793 11.9466V6.01881H23.0664C22.5879 6.01881 22.1973 5.53342 22.1973 4.93882V1.07999C22.1973 0.485388 22.5879 0 23.0664 0H37.0801C37.5586 0 37.9492 0.485388 37.9492 1.07999V4.94489C37.9492 5.53949 37.5586 6.02488 37.0801 6.02488H32.4219V11.9709Z" fill="#CD9C49"/>
</g>
<defs>
<clipPath id="clip0_1110_2">
<rect width="60" height="60" fill="white"/>
</clipPath>
</defs>
</svg>
