<svg width="60" height="60" viewBox="0 0 60 60" fill="none" xmlns="http://www.w3.org/2000/svg">
<g clip-path="url(#clip0_1110_5)">
<path fill-rule="evenodd" clip-rule="evenodd" d="M1.40742 35.0945H3.2168V15.0941C2.95781 14.893 2.71289 14.6711 2.48438 14.4333C1.31016 13.2086 0.58125 11.5143 0.58125 9.6508V7.02356L0.583594 6.95858C0.588281 6.78817 0.645703 6.61776 0.760547 6.478L5.84648 0.270938C5.91598 0.186772 6.00197 0.119233 6.09863 0.0729072C6.19528 0.0265812 6.30033 0.00255239 6.40664 0.00245193L53.1855 0C53.4258 0 53.6391 0.120145 53.775 0.306491L59.2195 6.45716C59.3333 6.586 59.4016 6.75169 59.4129 6.92671C59.4176 6.95858 59.4188 6.99046 59.4188 7.02356V9.6508C59.4188 11.5118 58.6898 13.2049 57.518 14.4321L57.5145 14.4357C56.9762 14.9987 56.348 15.4588 55.6582 15.7953V35.0945H58.5926C59.3672 35.0945 60 35.7565 60 36.5657V52.8526C60 53.6618 59.366 54.325 58.5926 54.325H55.3113C55.3617 53.918 55.3887 53.5036 55.3887 53.0819C55.3887 47.7783 51.2789 43.4789 46.2094 43.4789C41.1387 43.4789 37.0301 47.7783 37.0301 53.0819C37.0301 53.5036 37.0559 53.918 37.1063 54.325H24.8801C24.9305 53.918 24.9574 53.5036 24.9574 53.0819C24.9574 47.7783 20.8477 43.4789 15.7781 43.4789C10.7074 43.4789 6.59766 47.7783 6.59766 53.0819C6.59766 53.5036 6.62461 53.918 6.675 54.325H1.40742C0.633984 54.325 0 53.663 0 52.8526V36.5657C0 35.7565 0.632813 35.0945 1.40742 35.0945ZM33.8496 33.0177H47.298C47.3965 33.0177 47.4785 33.1048 47.4785 33.2077V34.0365C47.4785 34.1395 47.3977 34.2265 47.298 34.2265H33.8496C33.7488 34.2265 33.668 34.1407 33.668 34.0365V33.2077C33.668 33.1035 33.75 33.0177 33.8496 33.0177ZM46.2094 46.165C49.8609 46.165 52.8211 49.2618 52.8211 53.0819C52.8211 56.9032 49.8609 60 46.2094 60C42.5578 60 39.5965 56.9032 39.5965 53.0819C39.5965 49.2618 42.5578 46.165 46.2094 46.165ZM47.2195 48.78V52.0251H50.3215C49.9477 50.4289 48.7465 49.171 47.2195 48.78ZM50.3215 54.1399H47.2195V57.3838C48.7465 56.9927 49.9477 55.7361 50.3215 54.1399ZM45.1992 57.3838V54.1399H42.0973C42.4711 55.7361 43.6723 56.9939 45.1992 57.3838ZM42.0973 52.0251H45.1992V48.78C43.6723 49.171 42.4711 50.4289 42.0973 52.0251ZM15.7781 46.165C19.4297 46.165 22.3898 49.2618 22.3898 53.0819C22.3898 56.9032 19.4297 60 15.7781 60C12.1266 60 9.16523 56.9032 9.16523 53.0819C9.16523 49.2618 12.1266 46.165 15.7781 46.165ZM16.7883 48.78V52.0251H19.8902C19.5164 50.4289 18.3152 49.171 16.7883 48.78ZM19.8902 54.1399H16.7883V57.3838C18.3152 56.9927 19.5164 55.7361 19.8902 54.1399ZM14.768 57.3838V54.1399H11.666C12.0398 55.7361 13.241 56.9939 14.768 57.3838ZM11.666 52.0251H14.768V48.78C13.241 49.171 12.0398 50.4289 11.666 52.0251ZM41.0953 25.0967C44.7773 25.4045 47.877 28.6435 47.4199 32.455H33.7277C33.2754 28.6189 36.3879 25.3763 40.0969 25.0931V24.4715H39.5121C39.409 24.4715 39.3246 24.3832 39.3246 24.2766V23.5741C39.3246 23.4662 39.409 23.3779 39.5121 23.3779H41.666C41.768 23.3779 41.8523 23.4662 41.8523 23.5741V24.2766C41.852 24.3282 41.8323 24.3776 41.7974 24.4141C41.7626 24.4505 41.7153 24.4712 41.666 24.4715H41.0953V25.0967ZM16.7859 30.7717C17.7387 32.8473 20.6227 32.9196 21.5332 30.784C21.2848 30.5204 21.1008 30.2384 20.918 29.9589C20.8875 29.9123 20.857 29.867 20.8266 29.8204C20.3871 30.1857 19.8527 30.4187 19.1578 30.4162C18.4078 30.415 17.843 30.1146 17.3801 29.6721C17.352 29.6451 17.325 29.6181 17.298 29.5899C17.2313 29.7836 17.1469 30.0141 17.0578 30.2286C16.9699 30.4358 16.8773 30.632 16.7859 30.7717ZM21.8004 30.5523C22.8164 31.3026 25.2867 31.484 26.2348 32.0369C26.55 32.2208 26.8336 32.455 27.0621 32.7713C27.3645 33.1881 27.8672 34.3025 27.7922 35.0945H50.6508V15.9817C49.7906 15.6384 49.016 15.1064 48.375 14.4357L48.3715 14.4321C47.9069 13.9463 47.515 13.39 47.209 12.7819C46.9029 13.391 46.5106 13.9482 46.0453 14.4345C44.8699 15.6617 43.2504 16.4243 41.4727 16.4243C39.6937 16.4243 38.0754 15.6617 36.9023 14.4357L36.8988 14.4321C36.4371 13.949 36.0434 13.3912 35.7375 12.7819C35.4306 13.3908 35.0379 13.9479 34.5727 14.4345L34.5281 14.4787C33.3574 15.6801 31.7566 16.4243 30 16.4243C28.2188 16.4243 26.5992 15.6617 25.4273 14.4345L25.3863 14.3879C24.939 13.9128 24.5611 13.3712 24.2648 12.7807C23.9578 13.3937 23.5641 13.9503 23.1012 14.4345C21.9281 15.6617 20.3086 16.4243 18.5273 16.4243C16.7473 16.4243 15.1277 15.6617 13.9547 14.4345C13.4918 13.9503 13.0992 13.3925 12.7922 12.7819C12.4861 13.391 12.0938 13.9482 11.6285 14.4345L11.584 14.4787C10.6383 15.4484 9.41367 16.1202 8.05313 16.3434L8.22422 16.3397V35.0945H10.5211C10.4461 34.3013 10.9488 33.1881 11.2512 32.7713C11.4797 32.4538 11.7645 32.2208 12.0785 32.0369C13.0242 31.4853 15.484 31.3038 16.5047 30.5584C16.5797 30.4407 16.6605 30.2691 16.7379 30.084C16.8551 29.8045 16.9617 29.498 17.0297 29.2896C16.7438 28.9377 16.5 28.5405 16.2656 28.1494L15.491 26.8634C15.2086 26.422 15.0609 26.0174 15.0527 25.6877C15.048 25.5307 15.0738 25.3898 15.1289 25.2659C15.187 25.1345 15.2792 25.0228 15.3949 24.9435C15.45 24.903 15.5133 24.8699 15.5824 24.843C15.532 24.1454 15.5133 23.2652 15.5449 22.5296C15.5613 22.3543 15.5941 22.1802 15.641 22.0049C15.8391 21.2656 16.3348 20.671 16.9477 20.2628C17.2863 20.0372 17.6566 19.8668 18.0434 19.7528C18.2883 19.6804 18.0082 19.1005 18.2625 19.0736C19.4906 18.9412 21.3035 19.8717 22.1613 20.8426C22.5902 21.3281 22.8598 21.973 22.9184 22.8263L22.8703 24.9263C23.0848 24.995 23.2219 25.136 23.2781 25.3677C23.3402 25.6215 23.2734 25.9819 23.066 26.4723C23.0625 26.4809 23.0578 26.4894 23.052 26.4993L22.1707 28.017C21.8473 28.576 21.518 29.1351 21.0891 29.5764L21.2051 29.753C21.3797 30.0202 21.5555 30.2887 21.7816 30.5278C21.7887 30.5364 21.7957 30.5437 21.8004 30.5523ZM16.0277 25.2169C15.8566 25.223 15.7266 25.261 15.6375 25.3236C15.5871 25.3591 15.5496 25.4032 15.5262 25.4584C15.4992 25.5185 15.4875 25.5908 15.4898 25.6742C15.4957 25.9206 15.6199 26.243 15.8578 26.6133L15.8613 26.6194L16.6348 27.9054C16.9453 28.4216 17.2711 28.9475 17.6742 29.3349C18.0633 29.7064 18.5344 29.9577 19.1578 29.9589C19.8328 29.9614 20.3273 29.7003 20.7281 29.3079C21.1441 28.8985 21.4734 28.3394 21.7969 27.7804L22.6688 26.2798C22.8316 25.8924 22.8902 25.6325 22.8539 25.4805C22.8316 25.3898 22.7355 25.3456 22.5727 25.337C22.5375 25.3346 22.5023 25.3346 22.4672 25.3358C22.4273 25.337 22.3875 25.3395 22.3453 25.3432C22.3219 25.3456 22.2996 25.3444 22.2773 25.3383C22.2 25.3432 22.1203 25.337 22.0383 25.3248L22.3371 23.9431C20.1223 24.3085 18.4664 22.5884 16.1262 23.5998L16.2949 25.2279C16.2 25.2328 16.1109 25.2292 16.0277 25.2157V25.2169ZM35.966 1.54472L36.4008 6.2512H46.2516L45.0621 1.54472H35.966ZM34.9219 6.2512L34.4871 1.54472H25.5L25.0734 6.2512H34.9219ZM23.5945 6.2512L24.0211 1.54472H14.7656L13.7191 6.2512H23.5945ZM46.5855 1.54472L47.775 6.2512H57.034L52.868 1.54472H46.5855ZM12.2074 6.2512L13.2539 1.54472H6.74297L2.88633 6.2512H12.2074ZM57.9422 7.79592H47.9473V9.6508C47.9473 11.0901 48.5086 12.397 49.4145 13.3446C50.3191 14.2911 51.5695 14.8795 52.9441 14.8795C54.3199 14.8795 55.5691 14.2911 56.475 13.3446C57.3797 12.397 57.9422 11.0901 57.9422 9.6508V7.79592ZM46.4707 7.79592H36.4746V9.6508C36.4746 11.0901 37.0371 12.397 37.9418 13.3446C38.8477 14.2911 40.0969 14.8795 41.4727 14.8795C42.8484 14.8795 44.0977 14.2923 45.0012 13.3459C45.907 12.3957 46.4707 11.0876 46.4707 9.6508V7.79592ZM34.998 7.79592H25.002V9.6508C25.002 11.0692 25.5492 12.3614 26.4328 13.3054L26.4703 13.3434C27.3762 14.2911 28.6266 14.8795 30 14.8795C31.3582 14.8795 32.5934 14.307 33.4934 13.3826L33.5297 13.3434C34.4344 12.3957 34.998 11.0876 34.998 9.6508V7.79592ZM23.5254 7.79592H13.5305V9.6508C13.5305 11.0889 14.0918 12.397 14.9977 13.3446C15.9047 14.2911 17.1539 14.8795 18.5273 14.8795C19.9008 14.8795 21.1512 14.2911 22.057 13.3434C22.9629 12.3957 23.5254 11.0876 23.5254 9.6508V7.79592ZM12.0539 7.79592H2.05781V9.6508C2.05781 11.0876 2.62148 12.3957 3.52617 13.3434C4.42969 14.2923 5.68008 14.8795 7.05586 14.8795C8.41289 14.8795 9.64805 14.307 10.5492 13.3826L10.5844 13.3434C11.4902 12.3957 12.0539 11.0876 12.0539 9.6508V7.79592Z" fill="#CD9C49"/>
</g>
<defs>
<clipPath id="clip0_1110_5">
<rect width="60" height="60" fill="white"/>
</clipPath>
</defs>
</svg>
