<svg width="120" height="120" viewBox="0 0 120 120" fill="none" xmlns="http://www.w3.org/2000/svg">
<g clip-path="url(#clip0_1108_8)">
<path fill-rule="evenodd" clip-rule="evenodd" d="M56.0859 41.2401C45.6119 31.7772 29.1924 36.1034 15.2997 34.58C17.5689 27.4706 20.6011 19.7265 23.9405 11.5429C26.8935 4.29677 26.9232 4.30654 32.4129 5.46865C33.4236 5.68349 34.5731 5.92763 35.7324 6.15224L54.0247 9.70693C54.9463 9.96083 55.63 10.3612 56.0958 10.8983C56.5714 11.4452 56.8786 12.1679 57.0272 13.0761C56.938 15.7128 56.8984 18.6327 56.8588 21.6796C56.7795 27.8515 56.6903 34.619 56.0859 41.2401ZM83.8712 118.066C82.0776 118.408 80.3435 117.246 79.9967 115.478C79.6499 113.711 80.829 112.002 82.6226 111.66L96.5648 109.004L90.6094 80.3124C88.578 80.5077 86.6259 80.4784 84.7729 80.2245C80.6903 79.6679 77.0834 78.0565 73.9422 75.4198C65.232 68.1249 61.8431 56.2206 60.4756 43.7987C59.1081 56.2108 55.7192 68.1151 47.0091 75.4198C43.8579 78.0565 40.251 79.6679 36.1783 80.2245C34.3253 80.4784 32.3831 80.5077 30.3418 80.3124L23.9802 110.986L37.3774 113.545C39.1709 113.887 40.3501 115.596 40.0033 117.363C39.6565 119.131 37.9224 120.293 36.1288 119.951L2.68536 113.574C0.891799 113.232 -0.287391 111.523 0.0594294 109.756C0.40625 107.988 2.14035 106.826 3.93391 107.168L17.4797 109.746L23.8612 79.0136C23.6234 78.9452 23.3856 78.8671 23.1379 78.789C23.0982 78.7792 23.0586 78.7694 23.019 78.7499C9.92896 74.5507 5.71756 65.3905 6.60939 52.8222C7.44176 41.0448 12.9413 26.2792 19.6399 9.84365C24.0594 -0.976667 24.0991 -0.966901 33.374 0.995989C34.2758 1.1913 35.3063 1.40615 36.6143 1.66005L54.9463 5.2245C54.9958 5.23427 55.0454 5.24404 55.0949 5.2538C57.0074 5.75185 58.4938 6.65029 59.6036 7.91982C59.9306 8.30068 60.218 8.70107 60.4756 9.13075C60.7233 8.70107 61.0206 8.29091 61.3476 7.91982C62.4574 6.65029 63.9537 5.75185 65.8563 5.2538C65.9058 5.24404 65.9554 5.23427 66.0049 5.2245L84.3369 1.66005C85.6449 1.40615 86.6754 1.1913 87.5772 0.995989C96.8522 -0.966901 96.8918 -0.976667 101.301 9.84365C108.01 26.2792 113.5 41.0448 114.332 52.8222C115.224 65.3808 111.012 74.5507 97.9224 78.7499C97.8827 78.7597 97.8431 78.7694 97.8034 78.789C97.5656 78.8671 97.3179 78.9354 97.0801 79.0136L103.045 107.773L116.056 105.293C117.85 104.951 119.584 106.113 119.931 107.881C120.277 109.648 119.098 111.357 117.305 111.699L83.8712 118.066ZM73.4269 58.1347C73.1593 57.4608 73.4963 56.7089 74.18 56.4452C74.8637 56.1815 75.6267 56.5136 75.8943 57.1874C77.5887 61.4354 79.9372 64.5604 82.8505 66.7089C85.7539 68.8378 89.2518 70.0194 93.265 70.3612C93.9983 70.4198 94.5334 71.0546 94.474 71.7772C94.4145 72.4999 93.7704 73.0272 93.0371 72.9686C88.5384 72.578 84.5846 71.2401 81.265 68.8085C77.9653 66.3671 75.3195 62.8612 73.4269 58.1347ZM64.9645 42.3144C80.0165 35.6249 95.6234 28.4081 103.64 28.6522C101.708 23.2323 99.4385 17.4999 97.0107 11.5429C94.0578 4.29677 94.0281 4.30654 88.5384 5.46865C87.5276 5.68349 86.3782 5.92763 85.2188 6.15224L66.9364 9.70693C66.0148 9.96083 65.3311 10.3612 64.8654 10.8983C64.3897 11.4452 64.0825 12.1679 63.9339 13.0761C64.0231 15.7128 64.0627 18.6327 64.1024 21.6796C64.1717 28.1835 64.2609 35.3515 64.9645 42.3144ZM48.2378 52.246C48.3369 51.5331 49.0107 51.0351 49.7341 51.1425C50.4574 51.2401 50.9628 51.9042 50.8538 52.6171C50.1106 57.6366 48.3567 61.6503 45.6911 64.7655C43.0256 67.8905 39.488 70.0878 35.2072 71.4745C34.5136 71.6991 33.7605 71.328 33.5326 70.6444C33.3047 69.9608 33.6812 69.2186 34.3749 68.994C38.2097 67.7538 41.341 65.8202 43.6697 63.0858C46.0181 60.3515 47.564 56.7772 48.2378 52.246Z" fill="#CD9C49"/>
</g>
<defs>
<clipPath id="clip0_1108_8">
<rect width="120" height="120" fill="white"/>
</clipPath>
</defs>
</svg>
