<svg width="120" height="120" viewBox="0 0 120 120" fill="none" xmlns="http://www.w3.org/2000/svg">
<g clip-path="url(#clip0_1108_11)">
<path fill-rule="evenodd" clip-rule="evenodd" d="M79.5899 65.8518C62.9786 65.8518 55.2247 65.8518 38.6231 65.8518C38.3692 65.8518 38.1739 66.1038 38.1739 66.4039V75.9468C38.1739 76.2589 38.379 76.4989 38.6231 76.4989C47.295 76.4989 46.7188 76.4989 55.4102 76.4989V114.298C55.4102 114.706 55.6837 115.043 56.0157 115.043H56.2501H62.6368H62.8809C63.213 115.043 63.4864 114.706 63.4864 114.298V76.511C69.2188 76.511 73.877 76.511 79.6094 76.511C79.8536 76.511 80.0587 76.2589 80.0587 75.9588V66.4159C80.0391 66.1158 79.8438 65.8518 79.5899 65.8518ZM116.26 114.442C116.221 114.094 116.104 113.77 115.889 113.506C114.316 111.549 112.324 109.965 110.049 108.873C108.467 108.116 106.729 107.6 104.912 107.372L105.254 104.923H117.607C118.887 104.923 119.951 103.627 119.951 102.043C119.951 90.123 117.666 79.7639 119.951 66.1879C120.625 62.1666 113.877 61.5905 113.877 66.4039V96.9531H90.5176C88.4278 96.9531 88.1739 102.343 88.1739 104.299C88.1739 104.647 88.4083 104.935 88.6915 104.935H101.084L101.563 107.312C99.6387 107.468 97.8126 107.948 96.1133 108.705C93.9356 109.677 92.0118 111.117 90.4395 112.87C90.0684 113.29 89.9317 113.914 90.0489 114.478C89.4434 115.031 89.0528 115.583 89.0528 116.939C89.0528 118.295 90.1661 120 91.543 120C92.92 120 94.0333 118.295 94.0333 116.939C94.0333 115.583 93.6329 115.031 93.0176 114.466C94.1798 113.362 95.5372 112.438 97.0215 111.766C98.6133 111.045 100.381 110.613 102.246 110.541L102.52 113.854L102.529 113.998C101.484 114.358 100.703 115.391 100.703 116.951C100.703 118.512 101.816 120.012 103.193 120.012C104.561 120.012 105.684 118.5 105.684 116.951C105.684 115.403 104.922 114.37 103.877 114.01L103.887 113.854L104.082 110.577C105.859 110.721 107.539 111.189 109.072 111.922H109.082C110.576 112.63 111.914 113.59 113.057 114.766C112.598 115.319 112.315 115.679 112.315 116.951C112.315 118.223 113.428 120.012 114.805 120.012C116.182 120.012 117.295 118.307 117.295 116.951C117.295 115.559 116.885 114.994 116.26 114.442ZM99.6485 21.0783C93.9942 21.0783 89.4044 26.72 89.4044 33.6701C89.4044 40.6202 93.9942 46.2619 99.6485 46.2619C105.303 46.2619 109.893 40.6202 109.893 33.6701C109.883 26.72 105.303 21.0783 99.6485 21.0783ZM87.7442 80.4961H78.3497C75.5469 80.4961 73.252 83.305 73.252 86.762C73.252 97.0011 73.3106 104.851 73.3106 115.151L83.4962 115.175V95.6087C83.4962 92.8599 84.336 93.8201 86.8555 93.8201C92.8516 93.8201 94.9415 93.7841 100.918 93.7841C105.137 93.7841 108.574 89.5469 108.574 84.3733V57.9774C108.574 52.7078 105.068 48.3985 100.781 48.3985C82.168 48.3985 87.5294 64.6514 87.7442 80.4961ZM3.7403 114.442C3.77936 114.094 3.89655 113.77 4.11139 113.506C5.69342 111.549 7.67584 109.965 9.95123 108.873C11.5333 108.116 13.2715 107.6 15.088 107.372L14.7462 104.923H2.39264C1.11334 104.923 0.0488893 103.627 0.0488893 102.043C0.0488893 90.123 2.33405 79.7639 0.0488893 66.1879C-0.624939 62.1666 6.12311 61.5905 6.12311 66.4039V96.9531H29.4825C31.5723 96.9531 31.8262 102.343 31.8262 104.299C31.8262 104.647 31.5919 104.935 31.3087 104.935H18.9161L18.4376 107.312C20.3614 107.468 22.1876 107.948 23.8868 108.705C26.0645 109.677 27.9883 111.117 29.5606 112.87C29.9317 113.29 30.0684 113.914 29.9512 114.478C30.5567 115.031 30.9473 115.583 30.9473 116.939C30.9473 118.295 29.834 120 28.4571 120C27.0899 120 25.9669 118.295 25.9669 116.939C25.9669 115.583 26.3672 115.031 26.9825 114.466C25.8204 113.362 24.463 112.438 22.9786 111.766C21.3868 111.045 19.6192 110.613 17.754 110.541L17.4805 113.854L17.4708 113.998C18.5157 114.358 19.2969 115.391 19.2969 116.951C19.2969 118.512 18.1837 120.012 16.8067 120.012C15.4395 120.012 14.3165 118.5 14.3165 116.951C14.3165 115.403 15.0782 114.37 16.1231 114.01L16.1133 113.854L15.918 110.577C14.1407 110.721 12.461 111.189 10.9376 111.922H10.9278C9.44342 112.63 8.09576 113.59 6.95319 114.766C7.41217 115.319 7.69537 115.679 7.69537 116.951C7.69537 118.223 6.58209 120.012 5.20514 120.012C3.82819 120.012 2.71491 118.307 2.71491 116.951C2.70514 115.559 3.1153 114.994 3.7403 114.442ZM19.834 21.0783C25.4883 21.0783 30.0782 26.72 30.0782 33.6701C30.0782 40.6202 25.4883 46.2619 19.834 46.2619C14.1797 46.2619 9.58991 40.6202 9.58991 33.6701C9.59967 26.72 14.1797 21.0783 19.834 21.0783ZM30.459 80.4961H39.8536C42.6563 80.4961 44.9512 83.305 44.9512 86.762C44.9512 96.2209 44.8926 105.632 44.8926 115.151H34.7071V95.5967C34.7071 92.8478 33.8672 93.8081 31.3477 93.8081C25.3516 93.8081 23.2618 93.7721 17.2852 93.7721C13.0665 93.7721 9.62897 89.5349 9.62897 84.3613V57.9774C9.62897 52.7078 13.1348 48.3985 17.4219 48.3985C36.0352 48.3985 30.6739 64.6514 30.459 80.4961ZM59.043 0C64.4141 0 68.7794 5.35361 68.7794 11.9676C68.7794 18.5696 64.4239 23.9352 59.043 23.9352C53.6719 23.9352 49.3067 18.5816 49.3067 11.9676C49.3165 5.35361 53.6622 0 59.043 0ZM43.9551 34.8705C40.9962 39.5159 39.5606 43.9692 39.2188 49.7789C38.7989 53.284 38.4083 52.9119 38.4669 55.1685C38.6329 62.3947 46.4258 62.9229 46.8946 54.8685L47.5001 49.3708C47.627 47.3542 47.7344 47.5703 48.3985 45.6497C48.711 44.7494 49.0821 43.9692 49.5215 43.345L49.5899 46.9101L49.629 60.3541H68.5352L68.6133 46.9101L68.6817 43.345C69.1212 43.9812 69.502 44.7494 69.8048 45.6497C70.4688 47.5703 70.5762 47.3542 70.7032 49.3708L71.3087 54.8685C72.0313 63.0429 79.7559 62.0106 79.7364 55.1685C79.7266 52.9119 79.4044 53.284 78.9747 49.7789C78.6036 43.6211 77.0118 38.7716 73.6719 34.0302C67.2169 24.8475 50.3321 24.8595 43.9551 34.8705Z" fill="#CD9C49"/>
</g>
<defs>
<clipPath id="clip0_1108_11">
<rect width="120" height="120" fill="white"/>
</clipPath>
</defs>
</svg>
