<svg width="60" height="60" viewBox="0 0 60 60" fill="none" xmlns="http://www.w3.org/2000/svg">
<g clip-path="url(#clip0_1110_10)">
<path fill-rule="evenodd" clip-rule="evenodd" d="M51.2139 8.78681C62.9293 20.5027 62.9293 39.498 51.2139 51.2139C39.498 62.9293 20.5027 62.9293 8.78681 51.2139C-2.92861 39.498 -2.92861 20.5027 8.78681 8.78681C20.5027 -2.92861 39.498 -2.92861 51.2139 8.78681ZM45.707 28.2958C46.6485 28.2958 47.4112 29.059 47.4112 29.9999C47.4112 30.9413 46.648 31.704 45.707 31.704H31.7045V45.707C31.7045 46.6485 30.9413 47.4112 30.0004 47.4112C29.0594 47.4112 28.2967 46.648 28.2967 45.707V31.7045H14.2932C13.3518 31.7045 12.5886 30.9413 12.5886 30.0004C12.5886 29.0594 13.3518 28.2962 14.2932 28.2962H28.2962V14.2927C28.2962 13.3518 29.0594 12.5886 29.9999 12.5886C30.9413 12.5886 31.704 13.3518 31.704 14.2927V28.2958H45.707Z" fill="#CD9C49"/>
</g>
<defs>
<clipPath id="clip0_1110_10">
<rect width="60" height="60" fill="white"/>
</clipPath>
</defs>
</svg>
