<svg width="120" height="120" viewBox="0 0 120 120" fill="none" xmlns="http://www.w3.org/2000/svg">
<g clip-path="url(#clip0_1108_17)">
<path d="M10.6836 33.0979C10.6348 32.8311 10.6543 32.5536 10.7324 32.3081L14.1309 20.5034C14.2871 19.9377 14.7168 19.5428 15.2051 19.4361L33.4668 13.6832C33.9551 13.5338 34.4531 13.6725 34.8047 14.0141L43.125 22.0617C43.2715 22.1791 43.3887 22.3392 43.4863 22.51C43.7109 22.9263 43.7402 23.4279 43.584 23.8762L38.9355 38.029C45.1074 37.7195 51.1328 39.0963 56.5332 41.8821C58.584 39.7367 60.8691 37.8262 63.3594 36.2145C66.0254 34.4961 68.9453 33.0979 72.0801 32.116C82.0312 28.978 92.207 30.547 100.596 35.6168C108.994 40.6867 115.625 49.268 118.496 60.1548C121.367 71.0309 119.932 82.1525 115.293 91.3208C110.654 100.5 102.803 107.747 92.8418 110.885C83.7402 113.756 74.4629 112.689 66.5234 108.612C64.4629 110.768 62.168 112.678 59.668 114.29C57.0117 116.008 54.1016 117.385 50.9766 118.378C41.0254 121.516 30.8496 119.947 22.4609 114.877C14.0625 109.807 7.43164 101.226 4.56055 90.3389C1.68945 79.4628 3.125 68.3412 7.76367 59.1728C11.084 52.5981 16.0449 47.0159 22.2559 43.2269L11.2109 34.0479C10.9277 33.813 10.7422 33.4608 10.6836 33.0979ZM6.5332 33.3434L6.37695 33.3968C5.98633 31.9559 5.16602 30.8672 3.90625 30.0987C2.64648 29.3409 1.35742 29.1595 0.0488281 29.5757L0 29.405C1.30859 28.9887 2.31445 28.0921 3.01758 26.7153C3.71094 25.3278 3.87695 23.9296 3.49609 22.4993L3.65234 22.446C4.0332 23.8762 4.85352 24.9755 6.11328 25.744C7.37305 26.5018 8.66211 26.6833 9.9707 26.267L10.0195 26.4378C8.71094 26.854 7.70508 27.7506 7.00195 29.1275C6.30859 30.5043 6.15234 31.9132 6.5332 33.3434ZM16.6309 12.808L16.4746 12.8613C16.0938 11.4311 15.2734 10.3318 14.0137 9.56328C12.7539 8.80548 11.4648 8.62403 10.1562 9.04029L10.1074 8.86952C11.416 8.45326 12.4219 7.5567 13.125 6.17985C13.8184 4.79232 13.9844 3.39411 13.6035 1.96389L13.7598 1.91052C14.1406 3.34075 14.9609 4.4401 16.2207 5.20857C17.4805 5.97705 18.7695 6.14783 20.0781 5.73157L20.127 5.90234C18.8184 6.3186 17.8125 7.21516 17.1094 8.59201C16.4063 9.96887 16.25 11.3777 16.6309 12.808ZM39.873 10.9081L39.7168 10.9615C39.3359 9.53126 38.5156 8.43191 37.2559 7.66344C35.9961 6.90563 34.707 6.72418 33.3984 7.14044L33.3496 6.96967C34.6582 6.55341 35.6641 5.65685 36.3672 4.28C37.0605 2.89247 37.2266 1.49426 36.8457 0.0640398L37.002 0C37.3828 1.43022 38.2031 2.52957 39.4629 3.29805C40.7227 4.05586 42.0117 4.2373 43.3203 3.82104L43.3691 3.99182C42.0605 4.40808 41.0547 5.30463 40.3516 6.68149C39.6582 8.05835 39.502 9.46722 39.873 10.9081ZM59.2383 43.419C61.4941 44.8279 63.6133 46.4929 65.5664 48.3928C66.7969 47.3254 68.1152 46.3542 69.5215 45.5217C71.2207 44.5077 73.0469 43.6859 74.9902 43.0775C82.1777 40.8147 89.5215 41.9461 95.5859 45.607C101.65 49.268 106.445 55.4692 108.516 63.3247C110.586 71.1803 109.551 79.2066 106.201 85.8347C102.852 92.4629 97.1777 97.7035 89.9902 99.9662C86.9824 100.916 83.9453 101.268 80.9863 101.087C77.9199 100.905 74.9316 100.137 72.1484 98.8775C70.4004 98.0877 68.7305 97.0951 67.1777 95.9424C65.625 94.779 64.1895 93.4448 62.8711 91.9506C61.3867 90.2535 60.0781 88.3536 58.9941 86.2724C57.9395 84.2658 57.0898 82.0777 56.4648 79.7189C55.5566 76.2608 55.2441 72.7813 55.459 69.3978C55.6738 66.1425 56.377 62.9832 57.5195 60.0374C55.9668 58.383 54.2188 56.9741 52.334 55.8321C51.9727 55.6079 51.6016 55.4051 51.2207 55.2024C49.4922 59.1515 48.3887 63.4315 47.9883 67.8609C47.5781 72.4931 47.9395 77.2747 49.1895 82.0137C51.8359 92.0573 57.9687 99.9769 65.7324 104.662C73.4961 109.348 82.9004 110.8 92.0898 107.907C101.279 105.015 108.525 98.3118 112.812 89.8266C117.1 81.3413 118.428 71.0629 115.781 61.0193C113.135 50.9757 107.002 43.0561 99.2383 38.3705C91.4746 33.685 82.0703 32.2334 72.8809 35.1259C70.0098 36.0331 67.3145 37.3139 64.834 38.9149C62.8125 40.217 60.9375 41.7326 59.2383 43.419ZM67.6465 50.5701C71.748 55.2237 74.9023 61.0086 76.6504 67.6474C78.0078 72.792 78.3984 77.9792 77.9492 82.9956C77.5195 87.7239 76.3477 92.2921 74.5215 96.5187C76.6309 97.3192 78.8574 97.8102 81.1426 97.9489C83.7988 98.109 86.5137 97.7995 89.209 96.9457C95.6348 94.9177 100.693 90.2428 103.691 84.3085C106.689 78.3741 107.617 71.191 105.771 64.1573C103.916 57.1342 99.6387 51.6054 94.209 48.3181C88.7793 45.0414 82.207 44.0274 75.7715 46.0447C74.043 46.589 72.4121 47.3254 70.8887 48.2327C69.7363 48.9371 68.6523 49.7163 67.6465 50.5701ZM71.875 95.3126C73.5937 91.3742 74.707 87.1049 75.0977 82.6861C75.5176 78.0432 75.1465 73.2402 73.8965 68.4906C71.25 58.447 65.1172 50.5274 57.3535 45.8419C50.4492 41.6793 42.2559 40.0676 34.0723 41.786C33.0566 42.0315 32.0703 42.2983 31.0938 42.6078C29.7852 43.0241 28.4863 43.5044 27.2266 44.0381C19.8242 47.4108 13.9551 53.3772 10.2734 60.6671C5.98633 69.1524 4.6582 79.4308 7.30469 89.4743C9.95117 99.5179 16.084 107.438 23.8477 112.123C31.6113 116.809 41.0156 118.26 50.2051 115.368C53.0664 114.461 55.752 113.18 58.2324 111.589C60.2637 110.277 62.1484 108.761 63.8574 107.075C61.6016 105.666 59.4824 104.001 57.5293 102.101C56.2891 103.19 54.9609 104.161 53.5547 104.993C51.875 105.986 50.0586 106.808 48.1152 107.416C40.9277 109.679 33.584 108.548 27.5195 104.887C21.4551 101.226 16.6602 95.0245 14.5898 87.1689V87.1582C12.5195 79.3027 13.5547 71.287 16.9043 64.6589C20.2539 58.0308 25.9277 52.7902 33.1152 50.5274H33.125C40.3125 48.2647 47.6465 49.3961 53.7109 53.057C59.7754 56.718 64.5703 62.9192 66.6406 70.7747C67.5586 74.2435 67.8613 77.7444 67.6367 81.1278C67.4219 84.3618 66.7188 87.5105 65.5762 90.4456C66.5723 91.5023 67.6465 92.4629 68.7891 93.3167C69.7754 94.0852 70.8105 94.747 71.875 95.3126ZM55.4492 99.9342C51.3477 95.2806 48.1934 89.4957 46.4453 82.8569C45.0977 77.7337 44.6973 72.5572 45.1367 67.5514C45.5566 62.8017 46.7383 58.2229 48.5645 53.9856C44.0332 52.2565 38.9844 51.979 34.0137 53.5053C33.9355 53.5373 33.8477 53.5693 33.7598 53.5907C27.3926 55.64 22.373 60.2935 19.3945 66.1852C16.416 72.0768 15.4785 79.2066 17.2852 86.187C17.3145 86.2724 17.3438 86.3684 17.3633 86.4645C19.2383 93.4235 23.4961 98.9096 28.8867 102.165C34.3164 105.442 40.8887 106.456 47.3242 104.438C49.0234 103.905 50.6543 103.168 52.1875 102.261C53.3496 101.578 54.4336 100.799 55.4492 99.9342ZM59.6582 62.631C58.9258 64.8617 58.4668 67.2098 58.3105 69.6113C58.1152 72.6532 58.3887 75.7698 59.1992 78.8544C59.7461 80.925 60.5176 82.8889 61.4746 84.7034C62.0605 85.8241 62.7246 86.8914 63.4375 87.884C64.1602 85.664 64.6191 83.3372 64.7754 80.9464C64.9805 77.9472 64.7168 74.8626 63.9258 71.81C63.8965 71.7246 63.8672 71.6286 63.8477 71.5325C62.959 68.1918 61.5137 65.2032 59.6582 62.631ZM26.3867 41.0709C27.627 40.5159 28.9063 40.0249 30.2246 39.6086C31.2305 39.2884 32.2266 39.0216 33.2324 38.8081C34.1016 38.5947 34.9707 38.4026 35.8496 38.2425L39.9902 25.6373L15.2051 33.4501L25.0781 41.6472C25.498 41.4445 25.9375 41.2523 26.3867 41.0709ZM14.248 30.5043L39.3652 22.5847L33.5059 16.9172L16.6406 22.2325L14.248 30.5043Z" fill="#CD9C49"/>
</g>
<defs>
<clipPath id="clip0_1108_17">
<rect width="120" height="120" fill="white"/>
</clipPath>
</defs>
</svg>
