<svg width="120" height="120" viewBox="0 0 120 120" fill="none" xmlns="http://www.w3.org/2000/svg">
<g clip-path="url(#clip0_1108_14)">
<path d="M54.0594 67.8392C53.9126 67.5571 53.9566 67.2654 54.1329 67.0222C54.3091 66.7693 54.6322 66.5651 55.0581 66.4678H55.0728C55.484 66.3706 55.9246 66.3997 56.3064 66.5165C56.6883 66.6332 56.9967 66.8471 57.1435 67.1292C57.2023 67.2556 57.3344 67.3626 57.5107 67.4696L57.5254 67.4793C57.7163 67.596 57.9806 67.6933 58.2597 67.7711C58.524 67.8489 58.8324 67.9073 59.1555 67.9462L59.1849 67.9559C59.4933 67.9948 59.8311 68.024 60.1689 68.024C60.5213 68.0337 60.8738 68.0143 61.2116 67.9851C61.5493 67.9559 61.8724 67.8976 62.1662 67.8295C62.5333 67.7419 62.8564 67.635 63.1208 67.4891C63.341 67.3723 63.5173 67.2265 63.6201 67.0708C63.7963 66.7985 64.1194 66.5943 64.5159 66.4873C64.8978 66.3803 65.353 66.3803 65.7643 66.497C66.1755 66.6137 66.4839 66.8277 66.6454 67.0903C66.807 67.3432 66.807 67.6447 66.6307 67.917C66.337 68.3839 65.8817 68.7729 65.3237 69.0939C64.7362 69.4343 64.0166 69.6969 63.2529 69.8817C62.7683 69.9984 62.2543 70.0762 61.7256 70.1345H61.7109C61.1822 70.1832 60.6388 70.2124 60.0954 70.2026C59.552 70.1929 59.0087 70.154 58.48 70.0859C57.9659 70.0178 57.4519 69.9108 56.9967 69.7844C56.2917 69.5899 55.6602 69.3273 55.1462 68.9966C54.6616 68.6562 54.2944 68.2866 54.0594 67.8392ZM59.8311 110.984C62.9886 107.181 66.7629 104.283 70.8456 102.162C75.5599 99.7212 80.6853 98.3206 85.7961 97.7857C88.2193 97.5328 90.6278 97.4745 92.9923 97.5815C95.4301 97.6982 97.8093 98.0094 100.071 98.4763C102.303 98.9431 104.447 99.5656 106.43 100.334C108.413 101.102 110.248 102.007 111.879 103.038C112.818 103.641 113.7 104.273 114.507 104.944C115.021 105.382 115.506 105.829 115.961 106.296C115.932 104.283 115.712 102.425 115.242 100.723C114.728 98.8945 113.905 97.241 112.686 95.7627C111.482 94.3038 109.867 92.9908 107.752 91.8139C105.622 90.6371 102.979 89.5964 99.7332 88.6919C98.2352 88.2736 95.6211 87.9138 92.6398 87.6025C89.6585 87.2913 86.266 87.019 83.2701 86.7855C80.979 86.6008 78.8936 86.4354 77.2488 86.2603C75.5746 86.0755 74.3556 85.8713 73.8416 85.6087C73.3863 85.3753 72.9898 85.1127 72.6667 84.8112C72.3436 84.5194 72.0646 84.1887 71.859 83.8288C71.6827 83.5273 71.5359 83.1966 71.4478 82.8465C71.3597 82.5061 71.3009 82.1462 71.2862 81.7669C71.1247 80.5414 71.2715 78.9658 71.2715 77.7111C69.4358 78.392 67.5266 78.9561 65.4852 79.3062C63.2382 79.705 60.8444 79.8509 58.2156 79.6369C57.7897 79.598 57.3638 79.5591 56.9085 79.5007C56.4826 79.4424 56.0274 79.3743 55.5574 79.2965C55.1022 79.2187 54.6322 79.1311 54.1769 79.0339C53.7217 78.9366 53.2664 78.8296 52.8111 78.7032L52.6643 78.6643C51.93 78.4309 51.181 78.1683 50.432 77.8959C49.8739 77.6917 49.3158 77.4777 48.7725 77.2637C48.7725 78.7129 48.8899 80.3372 48.7578 81.7669C48.7431 82.1462 48.6843 82.5061 48.5962 82.8465C48.5081 83.1966 48.3612 83.5273 48.185 83.8288C47.9794 84.1887 47.7004 84.5096 47.3773 84.8112C47.0542 85.1127 46.6577 85.3753 46.2024 85.6087C45.6884 85.8713 44.4841 86.0755 42.7952 86.2603C41.1504 86.4451 39.0649 86.6105 36.7739 86.7855H36.7592C30.7967 87.2621 23.2921 87.8554 20.2961 88.6919C17.0358 89.5964 14.3923 90.6371 12.2628 91.8139C10.148 93.0005 8.54726 94.3135 7.343 95.7724C6.12406 97.2508 5.30164 98.9042 4.78763 100.733C4.27361 102.571 4.06801 104.584 4.06801 106.773V106.996C4.77294 106.247 5.5513 105.547 6.4031 104.876C7.57798 103.962 8.88504 103.116 10.3096 102.347C12.0866 101.384 14.0399 100.558 16.1253 99.8671C18.2107 99.1765 20.4136 98.6319 22.6753 98.2526C24.981 97.8635 27.3748 97.6398 29.798 97.6009C32.1478 97.562 34.5123 97.6982 36.862 98.0191C41.6644 98.6805 46.3639 100.149 50.5201 102.542C54.1035 104.613 57.3198 107.405 59.8311 110.984ZM118.473 119.514C118.282 119.621 118.076 119.698 117.841 119.757H117.826C117.577 119.815 117.298 119.844 117.033 119.825L2.58471 119.99C2.39379 119.99 2.20288 119.971 2.02664 119.942L1.99727 119.932C1.85041 119.903 1.70355 119.864 1.57137 119.815C1.13079 119.747 0.748953 119.582 0.469917 119.358C0.176195 119.125 0.0146484 118.833 0.0146484 118.502V106.773C0.0146484 104.38 0.249626 102.172 0.851755 100.13C1.4392 98.0775 2.39379 96.2004 3.80366 94.4886C5.22821 92.7476 7.12271 91.2012 9.58998 89.8201C12.0426 88.4487 15.0679 87.2524 18.7541 86.2214C22.2641 85.2488 30.0917 84.6166 36.304 84.1303H36.3333C38.4041 83.965 40.2839 83.8191 41.591 83.7024C42.898 83.5857 43.7204 83.5176 43.7498 83.4981C43.8967 83.4203 44.0288 83.3328 44.1463 83.2258C44.2638 83.1188 44.3666 83.0021 44.4401 82.8659C44.5282 82.7103 44.6016 82.5353 44.6603 82.3505C44.7044 82.1559 44.7338 81.9517 44.7485 81.7377C44.5575 79.812 44.7485 77.4777 44.7485 75.5033C43.926 75.1143 43.1183 74.6961 42.3399 74.2778C41.5322 73.8499 40.7538 73.4025 39.9902 72.9356C39.2265 72.8287 38.4922 72.7217 37.7873 72.5952C37.0236 72.4591 36.2746 72.3132 35.555 72.1576C30.1799 70.9807 25.73 69.1328 22.1172 66.7888C18.2107 64.2503 15.3175 61.138 13.3202 57.7047C11.4698 54.5242 10.4124 51.0715 10.0599 47.5409C9.69278 43.845 10.0893 40.0713 11.1761 36.4435C11.4257 35.5876 11.7341 34.7414 12.0572 33.8953C12.395 33.0491 12.7622 32.2224 13.1587 31.4151C13.7168 30.2869 14.363 29.1781 15.0826 28.0986C15.7728 27.0579 16.5512 26.0561 17.403 25.0932C18.2254 24.1595 19.1212 23.2647 20.1052 22.4185C21.0451 21.6016 22.0731 20.8235 23.1746 20.1037C23.6886 19.7731 24.3201 19.3937 25.0251 18.995C25.8034 18.5573 26.6699 18.0905 27.5657 17.6333C28.5644 17.1178 29.5777 16.6121 30.5176 16.1647C31.5016 15.6978 32.4122 15.2699 33.1465 14.9587C33.2786 14.9003 33.4108 14.8614 33.543 14.8225C33.6311 14.803 33.7045 14.7836 33.7926 14.7739C33.9836 14.5696 34.1011 14.4529 34.1745 14.3848C34.2039 14.3556 34.2185 14.3556 34.2185 14.3459C34.2185 14.3459 34.2039 14.3556 34.2039 14.3459C34.2039 14.2681 34.2039 14.132 34.2479 13.8402C34.7326 11.0293 36.0837 8.67564 38.0516 6.74988C40.2105 4.63933 43.0889 3.04425 46.408 1.93548C48.3025 1.30329 50.3292 0.826714 52.444 0.515481C54.5735 0.155617 56.8351 0 59.0968 0C61.3291 0 63.5613 0.155617 65.7643 0.457124C67.9525 0.758632 70.0966 1.20603 72.1233 1.78959C76.1326 2.94699 79.7307 4.64905 82.4623 6.85687C84.9737 8.87988 86.736 11.3308 87.4262 14.1611C87.4703 14.3167 87.4556 14.4724 87.4115 14.6183C87.3822 14.7252 87.3381 14.8225 87.2794 14.91C87.3528 14.9878 87.4115 15.0754 87.4703 15.1532C87.529 15.2407 87.6025 15.338 87.6465 15.4255L87.7493 15.4547C87.8374 15.4839 87.9256 15.513 88.0137 15.552C88.7333 15.8632 89.5851 16.2522 90.4956 16.6899C91.3621 17.1081 92.2726 17.5652 93.1832 18.0321C94.0056 18.46 94.8133 18.8977 95.5476 19.3159C96.2232 19.705 96.84 20.0746 97.354 20.4053C99.4835 21.7961 101.305 23.4009 102.876 25.1321C104.565 26.9995 105.945 29.0225 107.047 31.1136C108.236 33.3798 109.118 35.7432 109.72 38.0969C110.366 40.6646 110.689 43.2128 110.733 45.6249C110.777 47.7744 110.542 49.8752 109.999 51.9079C109.47 53.9018 108.662 55.8275 107.561 57.6755C106.474 59.4845 105.108 61.2255 103.434 62.8789C101.804 64.4934 99.88 66.0204 97.6624 67.4599C96.5463 68.1796 95.342 68.841 94.0643 69.444C92.772 70.0567 91.3915 70.6111 89.9376 71.0974C88.513 71.5837 87.0297 72.0019 85.517 72.3521C84.0191 72.7022 82.4623 72.994 80.8909 73.2177C80.5825 73.4025 80.2741 73.5873 79.951 73.7624C79.6132 73.9472 79.2608 74.132 78.9083 74.307C78.7614 74.3751 78.6146 74.4529 78.453 74.521C77.3956 75.0365 76.3382 75.5422 75.2808 76.0285C75.2808 77.857 75.4277 79.9481 75.2808 81.7475C75.2955 81.9614 75.3249 82.1754 75.369 82.3602C75.413 82.545 75.4864 82.7201 75.5746 82.8757C75.648 83.0118 75.7508 83.1286 75.8683 83.2355C75.9858 83.3425 76.1179 83.4301 76.2648 83.5079C76.2942 83.5273 77.1166 83.5954 78.4237 83.7121C79.7307 83.8288 81.6105 83.9747 83.696 84.1401C86.78 84.3832 90.2753 84.6653 93.4622 85.0057C96.6491 85.3461 99.4982 85.7449 101.261 86.2409C104.947 87.2718 107.972 88.4682 110.425 89.8395C112.877 91.2206 114.772 92.7671 116.211 94.508C117.621 96.2295 118.575 98.1067 119.163 100.149C119.75 102.192 120 104.399 120 106.792V118.22C120 118.541 119.824 118.843 119.545 119.076C119.266 119.28 118.899 119.446 118.473 119.514ZM86.4129 100.431C81.5224 100.947 76.5732 102.386 72.094 104.944C68.0847 107.239 64.4425 110.439 61.5053 114.699C61.4025 114.865 61.2409 115.02 61.0353 115.156C60.8444 115.283 60.6094 115.38 60.3304 115.448L60.301 115.458C59.787 115.575 59.2583 115.545 58.7884 115.409C58.3331 115.263 57.9513 115.001 57.7603 114.66V114.651C55.5574 110.614 52.5321 107.531 49.0221 105.284C45.1156 102.775 40.6217 101.287 36.0249 100.645C33.9836 100.363 31.9128 100.246 29.8715 100.285C27.7567 100.324 25.6566 100.519 23.6299 100.859C21.6326 101.2 19.694 101.676 17.8876 102.279C16.0665 102.882 14.363 103.612 12.8062 104.448C9.82495 106.063 7.41644 108.086 5.91845 110.41C4.56733 112.501 3.96521 114.835 4.33236 117.335L115.521 117.17C116.079 114.884 115.741 112.715 114.728 110.741C113.612 108.562 111.658 106.617 109.118 105.012C107.708 104.117 106.122 103.33 104.403 102.668C102.685 102.007 100.835 101.462 98.8961 101.054C96.9134 100.645 94.828 100.373 92.6985 100.266C90.6278 100.159 88.5277 100.217 86.4129 100.431ZM42.9421 86.8536C43.647 86.8536 44.2785 87.0384 44.7338 87.3497L44.7485 87.3691C45.189 87.6706 45.4681 88.0888 45.4681 88.546C45.4681 89.0128 45.189 89.431 44.7191 89.7325C44.2638 90.034 43.6323 90.2286 42.9274 90.2286C42.2225 90.2286 41.591 90.0438 41.1357 89.7325C40.6804 89.431 40.3867 89.0128 40.3867 88.546C40.3867 88.0791 40.6657 87.6609 41.1357 87.3594C41.6056 87.0384 42.2371 86.8536 42.9421 86.8536ZM60.257 92.6212L64.0019 95.1013C64.1488 95.1986 64.1488 95.3542 64.0019 95.4417L60.257 97.9219C60.1101 98.0191 59.8751 98.0191 59.743 97.9219L55.998 95.4417C55.8511 95.3445 55.8511 95.1888 55.998 95.1013L59.743 92.6212C59.8898 92.5239 60.1248 92.5239 60.257 92.6212ZM60.771 95.2667L60.0073 94.7609L59.2436 95.2667L60.0073 95.7724L60.771 95.2667ZM65.4852 92.699C65.9405 92.3975 66.572 92.203 67.2769 92.203C67.9672 92.203 68.584 92.3877 69.0539 92.6795L69.0833 92.6893C69.5386 92.9908 69.8323 93.409 69.8323 93.8758C69.8323 94.3427 69.5533 94.7609 69.0833 95.0624C68.628 95.3639 67.9819 95.5584 67.2916 95.5584C66.5867 95.5584 65.9552 95.3736 65.4999 95.0624C65.0446 94.7609 64.7509 94.333 64.7509 93.8758C64.7362 93.4284 65.0299 93.0102 65.4852 92.699ZM52.723 92.2127C53.4279 92.2127 54.0594 92.3975 54.5147 92.7087C54.97 93.0102 55.2637 93.4284 55.2637 93.8953C55.2637 94.3621 54.9847 94.7804 54.5147 95.0819C54.0594 95.3834 53.4279 95.5779 52.723 95.5779C52.0181 95.5779 51.3866 95.3931 50.9313 95.0819C50.476 94.7804 50.1823 94.3524 50.1823 93.8953C50.1823 93.4284 50.4614 93.0102 50.9313 92.7087L50.9607 92.699C51.4159 92.3975 52.0328 92.2127 52.723 92.2127ZM71.0659 90.5009C71.5212 90.1994 72.1674 90.0049 72.8576 90.0049C73.5626 90.0049 74.1941 90.1897 74.6493 90.5009C75.1046 90.8121 75.3983 91.2206 75.3983 91.6875C75.3983 92.1543 75.1193 92.5725 74.6493 92.874C74.2088 93.1853 73.5626 93.3701 72.8723 93.3701C72.1821 93.3701 71.5359 93.1853 71.0806 92.874C70.6253 92.5725 70.3316 92.1446 70.3316 91.6875C70.3316 91.2303 70.6107 90.8024 71.0659 90.5009ZM47.1423 90.0049C47.8472 90.0049 48.4787 90.1897 48.934 90.5009C49.3893 90.8024 49.683 91.2206 49.683 91.6875C49.683 92.1543 49.404 92.5725 48.934 92.874C48.4787 93.1853 47.8325 93.3701 47.1423 93.3701C46.4374 93.3701 45.8059 93.1853 45.3506 92.874C44.8953 92.5725 44.6016 92.1543 44.6016 91.6875C44.6016 91.2206 44.8806 90.8024 45.3506 90.5009C45.8059 90.1994 46.4374 90.0049 47.1423 90.0049ZM75.2662 87.3399C75.7214 87.0384 76.3676 86.8439 77.0579 86.8439C77.7628 86.8439 78.3943 87.0287 78.8496 87.3399C79.3048 87.6414 79.5985 88.0694 79.5985 88.5265C79.5985 88.9934 79.3195 89.4116 78.8496 89.7131C78.3943 90.0146 77.7628 90.2091 77.0579 90.2091C76.3676 90.2091 75.7508 90.0243 75.2808 89.7325L75.2515 89.7228C74.7962 89.4213 74.5025 89.0031 74.5025 88.5362C74.5172 88.0694 74.8109 87.6512 75.2662 87.3399ZM82.2567 12.9843C82.4623 12.9843 82.6679 12.994 82.8735 13.0037H82.9029C82.0511 11.0974 80.5678 9.43427 78.6439 8.02399C76.4263 6.40947 73.6066 5.13535 70.5079 4.24056C68.7308 3.72508 66.851 3.33604 64.9418 3.07343C63.018 2.81083 61.05 2.67466 59.0968 2.67466C57.1435 2.67466 55.205 2.81083 53.3398 3.08316C51.5334 3.35549 49.8005 3.75426 48.185 4.28919C45.6296 5.14508 43.3973 6.35111 41.6791 7.92673C40.1664 9.31756 39.0503 10.9904 38.4922 12.9746H38.6244C40.2251 12.9746 41.6791 13.4025 42.7218 14.1028C42.8686 14.2 43.0155 14.307 43.1477 14.414V14.2487C43.1477 13.1496 43.8232 12.1576 44.91 11.4378C45.9968 10.7181 47.4948 10.2707 49.1543 10.2707C50.8138 10.2707 52.3118 10.7181 53.3986 11.4378C53.9273 11.788 54.3679 12.2062 54.6616 12.673C54.7497 11.7102 55.3812 10.8348 56.3505 10.1929C57.3932 9.49262 58.8471 9.06468 60.4479 9.06468C62.0487 9.06468 63.5026 9.49262 64.5453 10.1929L64.56 10.2124C65.4999 10.8445 66.1167 11.6907 66.2195 12.6341C66.5279 12.1673 66.9538 11.7491 67.4972 11.3892C68.584 10.6695 70.082 10.2221 71.7415 10.2221C73.401 10.2221 74.899 10.6695 75.9858 11.3892L76.0005 11.4087C77.0725 12.1284 77.7334 13.1107 77.7334 14.2L77.7187 14.4237C77.8509 14.3167 77.9978 14.2098 78.1446 14.1125C79.202 13.4122 80.6559 12.9843 82.2567 12.9843ZM44.4254 16.7094V16.8261C44.4254 17.8862 43.7792 18.8491 42.7218 19.5396C41.6644 20.2399 40.2251 20.6679 38.6244 20.6679C37.3026 20.6679 36.069 20.3761 35.0997 19.88C34.2332 19.4424 33.5577 18.8394 33.1758 18.1488C32.7352 18.3531 32.28 18.5768 31.81 18.8102L31.7953 18.8199C31.2079 19.1117 30.6058 19.4132 30.0183 19.7147C29.1812 20.1524 28.3735 20.5803 27.6685 20.9791C27.0224 21.339 26.4496 21.6794 25.9943 21.9809C25.0251 22.6131 24.1292 23.3036 23.2921 24.0331C22.4256 24.7917 21.6179 25.5892 20.8689 26.4354C20.0905 27.3205 19.3856 28.2444 18.7541 29.1879C18.0932 30.1799 17.5058 31.2012 16.9771 32.2516C16.5952 33.0199 16.2428 33.798 15.9344 34.5761C15.626 35.3542 15.3469 36.1517 15.1119 36.959C14.0986 40.3631 13.7168 43.8937 14.0545 47.327C14.3776 50.6144 15.3616 53.8142 17.0505 56.7418C18.7688 59.6985 21.236 62.3926 24.5257 64.6004C27.272 66.4581 30.6058 67.9754 34.5416 69.055C34.0276 68.6076 33.543 68.1602 33.073 67.6933C32.3828 67.0125 31.766 66.3122 31.2226 65.6119C30.9142 65.2229 30.4148 64.3573 29.8127 63.1901C29.2693 62.13 28.6231 60.8073 27.9476 59.3386C26.1706 59.183 24.5404 58.7842 23.1305 58.2299C21.5298 57.5977 20.2227 56.7515 19.3122 55.8275C18.9156 55.4385 18.5925 55.03 18.3576 54.6118C18.1079 54.2033 17.9464 53.7753 17.8436 53.3571C17.7408 52.9097 17.7408 52.4526 17.8289 52.0149C17.917 51.587 18.1079 51.1687 18.4016 50.77C18.8569 50.1281 19.5765 49.5445 20.5752 49.0679C21.4123 48.6692 22.455 48.3385 23.718 48.105C23.5124 47.3561 23.3362 46.6364 23.2187 45.9556C23.0865 45.2553 22.9837 44.5939 22.9543 44.0007C22.8809 42.8724 23.0131 41.9193 23.4243 41.1898C23.8208 40.4895 24.467 39.9935 25.3922 39.7601L25.4363 39.7504C25.5831 39.7115 25.7447 39.6823 25.9062 39.6628H25.9209C26.0678 39.6434 26.244 39.6337 26.4055 39.6337H26.5671C29.2106 39.7115 31.8247 39.6726 34.3654 39.5169C36.818 39.3613 39.1971 39.0987 41.5175 38.7C43.7058 38.3304 45.8352 37.8343 47.8619 37.2216C49.8152 36.6283 51.6803 35.9183 53.4426 35.0819C53.942 34.8387 55.0581 34.1676 56.2477 33.4382L56.2624 33.4284C58.5534 32.0279 61.1235 30.462 62.5186 30.462C63.9579 30.462 66.9245 32.0765 69.0539 33.2339L69.0833 33.2436C69.7442 33.6035 70.3023 33.905 70.6547 34.0801C72.2261 34.8387 73.7829 35.5195 75.3102 36.1225C76.8522 36.7256 78.3649 37.2605 79.8776 37.7176C81.3609 38.165 82.8442 38.5443 84.3275 38.8458C85.8108 39.1473 87.2794 39.371 88.7627 39.5267C89.2473 39.5753 90.0404 39.5753 90.8921 39.5656H90.9509C92.1405 39.5558 93.4035 39.5558 94.5196 39.6823C95.7092 39.8087 96.7372 40.0811 97.3393 40.6452C97.5009 40.8008 97.6624 40.9953 97.7799 41.219C97.8974 41.433 97.9855 41.6664 98.0296 41.9193C98.0736 42.1138 98.0883 42.318 98.103 42.5515C98.103 42.7557 98.0883 42.9794 98.0589 43.2031C97.9268 43.9909 97.7799 44.8274 97.589 45.6833C97.4274 46.4516 97.2218 47.2491 97.0162 48.0661C98.338 48.2898 99.4248 48.6205 100.306 49.029C101.349 49.5153 102.098 50.1086 102.568 50.77C102.861 51.1687 103.038 51.587 103.14 52.0149C103.228 52.4526 103.228 52.9097 103.126 53.3571C103.038 53.7753 102.861 54.1936 102.612 54.6118C102.362 55.0203 102.039 55.4288 101.657 55.8275C100.717 56.771 99.366 57.6366 97.7212 58.2688C96.2672 58.8329 94.593 59.2219 92.7573 59.3484C92.4929 59.8833 92.2139 60.4085 91.9349 60.9143C91.6264 61.4686 91.318 62.0133 90.9803 62.5482C90.1138 63.978 89.1592 65.3591 88.1312 66.6526C87.3528 67.6252 86.5304 68.5589 85.6492 69.4343L86.3835 69.23C86.9856 69.055 87.5731 68.8702 88.1458 68.6756C89.4089 68.2477 90.6131 67.7614 91.7439 67.2265C92.8601 66.7013 93.9175 66.1177 94.8868 65.4952C96.8987 64.2017 98.6317 62.8108 100.115 61.3616C101.628 59.8736 102.861 58.2979 103.845 56.6542C104.859 54.9619 105.593 53.2015 106.063 51.3827C106.548 49.5153 106.768 47.5896 106.738 45.6249C106.694 43.3587 106.386 40.9467 105.784 38.5346C105.226 36.3171 104.403 34.0995 103.287 31.9695C102.274 30.0535 101.026 28.2153 99.4982 26.5229C98.0883 24.957 96.4435 23.5273 94.549 22.2824C94.0937 21.9809 93.5356 21.6502 92.9188 21.3C92.2433 20.911 91.4943 20.5122 90.7453 20.1232C90.1432 19.812 89.5263 19.5007 88.9242 19.1992C88.4249 18.9561 87.9402 18.7226 87.485 18.5087C87.0297 19.102 86.3541 19.6174 85.5317 19.987C84.6065 20.4053 83.4904 20.6387 82.2861 20.6387C80.6853 20.6387 79.2314 20.2107 78.1887 19.5105L78.174 19.491C77.1313 18.8005 76.4998 17.8473 76.4998 16.7872V16.6121C76.3529 16.7385 76.1914 16.8552 76.0151 16.972C74.9284 17.6917 73.4304 18.1391 71.7709 18.1391C70.1113 18.1391 68.6134 17.6917 67.5266 16.972C66.5279 16.3106 65.8817 15.4158 65.7789 14.4237C65.4852 14.8614 65.074 15.2602 64.56 15.6006C63.5173 16.2911 62.0634 16.7288 60.4626 16.7288C58.8618 16.7288 57.4079 16.3009 56.3652 15.6006C55.8658 15.2699 55.4546 14.8711 55.1609 14.4335C55.0875 15.445 54.4266 16.3592 53.4133 17.0303C52.3265 17.75 50.8285 18.1974 49.169 18.1974C47.5094 18.1974 46.0115 17.75 44.9247 17.0303C44.7338 16.9525 44.5722 16.8261 44.4254 16.7094ZM93.8441 57.0433C94.8133 56.8682 95.6945 56.5959 96.4875 56.2555L96.5022 56.2457C97.5009 55.8081 98.3233 55.2634 98.9107 54.6604C99.1604 54.3978 99.3807 54.1352 99.5422 53.8629C99.7038 53.6003 99.8066 53.3377 99.8653 53.0751C99.9241 52.8319 99.9241 52.5888 99.88 52.3553C99.836 52.1316 99.7478 51.9274 99.601 51.7231C99.3513 51.373 98.9254 51.052 98.3233 50.7797C97.8093 50.556 97.1778 50.3615 96.3994 50.2156C96.047 51.373 95.6357 52.5693 95.1805 53.7753C94.7693 54.8744 94.3287 55.9637 93.8441 57.0433ZM24.3642 50.2642C23.6446 50.4101 23.0571 50.5949 22.5872 50.8186C22.0144 51.0812 21.6032 51.3924 21.3682 51.7329C21.2214 51.9274 21.1332 52.1414 21.0892 52.3651C21.0451 52.5985 21.0451 52.8416 21.1039 53.0848C21.1626 53.3474 21.2654 53.61 21.427 53.8726C21.5885 54.1449 21.7941 54.4075 22.0585 54.6701C22.6312 55.2537 23.439 55.7886 24.4082 56.2263C25.1572 56.557 26.009 56.8293 26.9342 57.0141C26.479 55.9442 26.0237 54.816 25.5831 53.6975C25.1425 52.5498 24.7313 51.4022 24.3789 50.2934L24.3642 50.2642ZM37.3467 52.3651C37.1264 52.2094 36.9795 52.0246 36.9208 51.8301C36.8473 51.5578 36.9208 51.266 37.1704 51.0131V51.0034C37.4201 50.7603 37.8019 50.6046 38.2132 50.5463C38.6244 50.4977 39.0649 50.5463 39.4321 50.7116C40.4454 51.159 41.9728 51.3535 43.5295 51.3438C45.2331 51.3341 46.9367 51.0715 48.0675 50.6435L48.1263 50.6241C48.5081 50.4879 48.9487 50.4587 49.3305 50.5268C49.727 50.5949 50.0795 50.7603 50.3145 51.0131L50.3439 51.052C50.5495 51.3049 50.5935 51.5967 50.4907 51.8496C50.4173 52.0441 50.2557 52.2289 50.0208 52.3651L50.7991 52.9292C51.0929 53.1529 51.225 53.4252 51.2103 53.6975C51.1957 53.9699 51.0194 54.2422 50.6963 54.4367L50.667 54.4562C50.3292 54.6507 49.918 54.7382 49.5068 54.7285C49.0955 54.7188 48.6843 54.602 48.3906 54.3881L46.8486 53.2598C46.5989 53.2988 46.3492 53.3377 46.0996 53.3668H46.0702C45.8646 53.396 45.6443 53.4155 45.4387 53.4349V54.3589C45.4387 54.6604 45.2478 54.9327 44.9541 55.1273C44.6603 55.3218 44.2491 55.4482 43.7939 55.4482C43.3386 55.4482 42.9274 55.3218 42.6337 55.1273L42.6043 55.1078C42.3253 54.9133 42.149 54.6507 42.149 54.3589V53.4738C41.87 53.4544 41.591 53.4349 41.3119 53.4057C41.0182 53.3766 40.7098 53.3377 40.4308 53.289L39.1531 54.3394C38.874 54.5729 38.4628 54.709 38.0516 54.7382C37.6404 54.7674 37.1998 54.6896 36.8473 54.5048C36.4949 54.32 36.2893 54.0477 36.2452 53.7753C36.2012 53.503 36.3187 53.2112 36.5977 52.9778L37.3467 52.3651ZM83.226 52.297L84.1072 52.9389C84.4009 53.1626 84.5331 53.4349 84.5184 53.7072C84.5037 53.9796 84.3275 54.2519 84.0044 54.4464L83.975 54.4659C83.6519 54.6604 83.226 54.7479 82.8148 54.7382C82.3889 54.7285 81.9777 54.602 81.684 54.3881L80.0832 53.2209C79.8482 53.2599 79.6132 53.289 79.3783 53.3182C79.1726 53.3474 78.9524 53.3668 78.7468 53.3863V54.3492C78.7468 54.6507 78.5558 54.923 78.2621 55.1175C77.9684 55.312 77.5572 55.4385 77.1019 55.4385C76.6466 55.4385 76.2354 55.312 75.9417 55.1175L75.9123 55.0981C75.6333 54.9036 75.4571 54.6409 75.4571 54.3492V53.4252C75.1927 53.4057 74.9137 53.3863 74.6493 53.3571C74.3556 53.3279 74.0619 53.289 73.7829 53.2404L72.4611 54.32C72.1821 54.5534 71.7855 54.6896 71.3597 54.7188C70.9484 54.7479 70.5079 54.6701 70.1554 54.4853C69.8029 54.3005 69.5973 54.0282 69.5533 53.7559C69.5092 53.4835 69.6267 53.1918 69.9057 52.9583L70.7135 52.3067C70.5225 52.1608 70.3904 51.976 70.3463 51.7912C70.2729 51.5286 70.3463 51.2368 70.596 50.9937C70.8456 50.7408 71.2275 50.5852 71.6387 50.5366C72.0499 50.4879 72.4905 50.5366 72.8723 50.7019C73.3129 50.8964 73.915 51.052 74.6053 51.1493C75.3249 51.2563 76.1473 51.3049 76.9991 51.2952C77.8068 51.2855 78.6293 51.2174 79.3929 51.0909C80.0832 50.9742 80.7294 50.7992 81.2728 50.5755C81.6546 50.4198 82.0952 50.3712 82.5064 50.4296C82.9029 50.4879 83.2701 50.6435 83.505 50.8867L83.5344 50.9256C83.7694 51.1785 83.8281 51.4605 83.74 51.7231C83.6372 51.9566 83.4757 52.1511 83.226 52.297ZM72.5933 47.6479C72.2261 47.823 71.7855 47.8813 71.3743 47.8327C70.9631 47.7841 70.5813 47.6382 70.3169 47.395C70.0526 47.1519 69.9645 46.8601 70.0379 46.5878C70.1113 46.3155 70.3316 46.0626 70.6988 45.8875C71.9177 45.3137 73.166 44.876 74.429 44.5842C75.6774 44.2924 76.955 44.1465 78.2474 44.1368C79.5398 44.1368 80.8322 44.273 82.1245 44.5648C83.4022 44.8565 84.6799 45.2845 85.9576 45.8778C86.3248 46.0431 86.5598 46.3057 86.6332 46.5781V46.5878C86.7066 46.8601 86.6185 47.1422 86.3688 47.3853C86.1192 47.6285 85.7226 47.7841 85.3114 47.8327H85.2967C84.8855 47.8813 84.4596 47.823 84.0925 47.6576C83.0938 47.2005 82.1099 46.8601 81.1259 46.6364C80.1566 46.4127 79.202 46.3057 78.2621 46.3057C77.3369 46.3057 76.397 46.4224 75.4571 46.6461C74.5025 46.8601 73.5479 47.2005 72.5933 47.6479ZM36.9355 47.6479C36.5683 47.823 36.1277 47.8813 35.7165 47.8327C35.3053 47.7841 34.9235 47.6382 34.6591 47.395C34.3948 47.1519 34.3067 46.8601 34.3801 46.5878C34.4535 46.3155 34.6738 46.0626 35.041 45.8875C36.2599 45.3137 37.5082 44.876 38.7712 44.5842C40.0195 44.2924 41.2972 44.1465 42.5896 44.1368C43.882 44.1368 45.1597 44.273 46.452 44.5648C47.7297 44.8565 49.0074 45.2942 50.2851 45.8778C50.6523 46.0431 50.8873 46.3057 50.9607 46.5781V46.5878C51.0341 46.8601 50.946 47.1422 50.6963 47.3853C50.4467 47.6285 50.0501 47.7841 49.6389 47.8327H49.6242C49.213 47.8813 48.7871 47.823 48.42 47.6576C47.4213 47.2005 46.4374 46.8601 45.4534 46.6364C44.4988 46.403 43.5295 46.296 42.5896 46.296C41.6644 46.296 40.7245 46.4127 39.7846 46.6364C38.8447 46.8601 37.8901 47.2005 36.9355 47.6479ZM42.5162 41.3163C40.0342 41.7345 37.4935 42.0263 34.8941 42.1916C32.28 42.3569 29.6365 42.4056 26.9489 42.3472L26.9342 42.6487C26.9342 42.96 26.9489 43.3879 26.9783 43.9034C27.0224 44.6231 27.1692 45.479 27.3895 46.4127C27.6245 47.4339 27.9476 48.5524 28.3147 49.7196C29.1812 52.404 30.3561 55.312 31.4722 57.8311C32.9115 61.0699 34.2626 63.6764 34.8354 64.4059C35.7165 65.5439 36.818 66.6526 38.081 67.7225C39.4321 68.8507 40.9595 69.9303 42.619 70.9321C44.3813 72.0019 46.2758 72.994 48.2291 73.8791C50.2411 74.7933 52.3265 75.5909 54.3532 76.2522C54.735 76.3495 55.1022 76.437 55.4693 76.5148C55.8511 76.5926 56.2036 76.6607 56.5414 76.7191C56.8939 76.7774 57.2463 76.8358 57.5988 76.8747C57.9513 76.9136 58.3037 76.9525 58.6709 76.9817C62.0046 77.254 65.0006 76.7483 67.835 75.8535C70.6988 74.9489 73.401 73.6457 76.1033 72.3326L76.5292 72.1284C78.5999 71.1266 80.4797 69.7261 82.1686 68.0434C84.0631 66.1663 85.7373 63.9488 87.1766 61.5659C88.9095 58.7162 90.3047 55.6622 91.3915 52.6957C92.6985 49.1457 93.5503 45.7124 94.0056 42.9211C94.0203 42.8043 94.035 42.6876 94.035 42.5904C94.035 42.4834 94.0203 42.3861 94.0056 42.2986L93.9909 42.2013C93.7266 42.1819 92.302 42.25 90.9656 42.2597H90.8775C89.8347 42.2597 88.8655 42.2694 88.1605 42.2013C86.501 42.036 84.8415 41.7734 83.1819 41.4427C81.5224 41.1023 79.8629 40.6841 78.1887 40.1783C76.5438 39.6823 74.899 39.1084 73.2395 38.4568C71.5799 37.8052 69.9204 37.0757 68.2609 36.2782C67.9231 36.1128 67.2769 35.7627 66.5132 35.3445L66.4545 35.3153C64.8097 34.4205 62.5186 33.1756 62.5039 33.1756C62.3718 33.1756 62.1515 33.4673 61.4759 33.8953C60.7563 34.3427 59.8164 34.9262 58.9793 35.432L58.9646 35.4417C57.7016 36.2101 56.5414 36.9201 55.7777 37.28C53.8098 38.2137 51.7244 39.0112 49.5508 39.6726C47.3185 40.3534 44.9541 40.898 42.5162 41.3163Z" fill="#CD9C49"/>
</g>
<defs>
<clipPath id="clip0_1108_14">
<rect width="120" height="120" fill="white"/>
</clipPath>
</defs>
</svg>
