<svg width="64" height="64" viewBox="0 0 64 64" fill="none" xmlns="http://www.w3.org/2000/svg">
<path d="M24.6173 31.8945H26.2883C26.7538 31.8945 27.1292 32.0083 27.4146 32.2359C27.7001 32.4614 27.9036 32.7588 27.9036 33.1282C27.9036 33.3708 27.8985 33.8369 27.7571 34.0559C27.6183 34.2728 27.4074 34.4349 27.1245 34.5423C26.8417 34.6496 26.5343 34.7055 26.3337 34.7098L25.6141 34.7226V36.1238H24.6173V31.8945ZM25.5987 32.7966V33.8918L26.2088 33.8918C26.3914 33.8918 26.5469 33.837 26.6755 33.7275C26.8067 33.618 26.8722 33.4881 26.8722 33.3378C26.8722 33.166 26.7989 33.0328 26.6524 32.9383C26.5058 32.8439 26.3535 32.7965 26.0835 32.7965L25.5987 32.7966Z" fill="#082313"/>
<path d="M28.4758 31.8941H31.1846V32.7316H29.4667V33.4999H31.1336V34.4098H29.4667V35.1817H31.1846V36.1234H28.4758V31.8941Z" fill="#082313"/>
<path d="M32.1157 31.8941H33.8515C34.306 31.8941 34.5906 32.0063 34.8541 32.2291C35.1189 32.453 35.2101 32.8073 35.2521 33.1342C35.2814 33.3631 35.2646 33.5838 35.1423 33.8179C35.0223 34.0519 34.6605 34.3071 34.3242 34.3855L35.649 36.1234H34.4481L33.2058 34.4402L33.095 34.4402V36.1234H32.1157V31.8941ZM33.1019 32.7175V33.8097H33.4554C33.9652 33.8097 34.2202 33.5551 34.2202 33.1664C34.2202 32.7326 33.7552 32.7197 33.4692 32.7175H33.1019Z" fill="#082313"/>
<path d="M35.692 31.8941H38.9389V32.8099H37.8321V36.1234H36.7915V32.8099H35.692V31.8941Z" fill="#082313"/>
<path d="M40.1597 31.8941H41.1974L42.6273 36.1234H41.5771L41.3043 35.3609H40.0212L39.699 36.1234H38.7188L40.1597 31.8941ZM40.6659 33.2546L40.1995 34.5633H41.064L40.6659 33.2546Z" fill="#082313"/>
<path d="M43.6524 31.8941H44.6225L45.4156 34.2421L46.2786 31.8941H47.2416L47.7983 36.1234H46.844L46.5618 33.7261L45.6075 36.1233H45.2145L44.3158 33.6823L43.9035 36.1233L43.0201 36.1234L43.6524 31.8941Z" fill="#082313"/>
<path d="M48.4472 31.8941H49.4515V36.1234H48.4472V31.8941Z" fill="#082313"/>
<path d="M53.2225 31.9173H54.1384V36.1234H53.1237L51.3554 33.6182V36.1234H50.3648V31.9173H51.3111L53.2225 34.5203V31.9173Z" fill="#082313"/>
<path d="M56.1991 31.8941H57.2368L58.6667 36.1234H57.6165L57.3437 35.3609H56.0606L55.7384 36.1234H54.7581L56.1991 31.8941ZM56.7053 33.2546L56.2389 34.5633H57.1034L56.7053 33.2546Z" fill="#082313"/>
<path d="M5.33334 39.0737C5.33334 39.0737 8.68135 33.7482 9.22691 32.8653C9.77239 31.9823 10.2423 31.8994 11.7494 31.8994H15.0711C14.8752 32.0637 14.5403 32.4068 14.2897 32.81L10.9113 38.2459C10.5735 38.8533 9.85916 39.0737 9.00197 39.0737H5.33334Z" fill="#006CB8"/>
<path d="M18.559 31.8994C17.0519 31.8994 16.5794 31.9823 16.0052 32.8653C15.431 33.7482 13.8887 36.1272 13.8887 36.1272H17.7513C18.4257 36.1272 19.0821 35.8311 19.3647 35.3416L21.6468 31.8994H18.559Z" fill="#ACC42A"/>
<path d="M16.9765 26.6665C18.4835 26.6665 18.9561 26.7494 19.5302 27.6324C20.1044 28.5152 21.6468 30.8943 21.6468 30.8943H17.7842C17.1098 30.8943 16.4534 30.5981 16.1708 30.1086L13.8887 26.6665H16.9765Z" fill="#ED1B2F"/>
</svg>
