<svg width="64" height="64" viewBox="0 0 64 64" fill="none" xmlns="http://www.w3.org/2000/svg">
<g clip-path="url(#clip0_6_1737)">
<mask id="mask0_6_1737" style="mask-type:luminance" maskUnits="userSpaceOnUse" x="-10" y="-235" width="208" height="293">
<path d="M-9.05394 57.2943H197.369V-234.646H-9.05394V57.2943Z" fill="white"/>
</mask>
<g mask="url(#mask0_6_1737)">
<path d="M35.7378 35.5584H34.5741L34.6063 35.3645C34.6628 35.041 34.7436 34.524 35.269 34.524C35.4874 34.524 35.7135 34.5805 35.9317 34.645C35.9882 34.6613 36.0367 34.6776 36.0933 34.6935L36.344 34.7743L36.5135 33.7885L36.4733 33.7805C36.3117 33.732 36.1338 33.6754 35.9317 33.6189C35.665 33.5541 35.3498 33.4975 34.978 33.5138C34.4367 33.5298 33.4589 33.6512 33.1599 34.7019L32.9578 35.5584H32.3596L32.19 36.5928H32.7879L32.19 40.2377H33.7983L34.3962 36.5928H35.5682L35.7378 35.5584Z" fill="#003A78"/>
<path d="M44.9913 35.5502H44.9507H44.45C44.0699 35.5423 43.8275 35.631 43.5851 35.8655L43.3909 36.1401L43.496 35.5423H41.8638L41.104 40.2216H42.7123L43.1004 37.8292C43.2294 37.0129 43.9083 36.6495 44.4257 36.6089C44.6116 36.5926 44.8134 36.601 44.8134 36.601L44.9507 35.8006L44.9913 35.5502Z" fill="#003A78"/>
<path d="M40.2797 35.6958C39.8916 35.5099 39.3583 35.4614 38.9301 35.4614C38.1703 35.4614 37.4109 35.5744 36.6671 35.728L36.4573 35.7686L36.2631 36.8838C36.2631 36.8838 37.5562 36.3747 38.3967 36.3827C38.5826 36.3827 38.8007 36.3584 38.9543 36.4313C39.108 36.4958 39.1804 36.5929 39.1482 36.811C39.1159 36.9809 39.0029 37.1099 38.6634 37.215C38.3239 37.32 37.8877 37.3929 37.4348 37.49C36.9098 37.603 36.3439 37.7646 35.9319 38.0718C35.6489 38.282 35.4468 38.5646 35.3823 38.9526C35.2772 39.583 35.4631 39.995 35.9319 40.2051C36.1823 40.3185 36.5055 40.3751 36.9015 40.3751C37.5076 40.3751 37.9844 40.1569 38.1946 40.0761L38.4453 39.2841C38.4453 39.2841 37.9199 39.5022 37.5239 39.5022C37.0714 39.5022 36.8612 39.3407 36.9178 38.9932C36.9743 38.6537 37.3381 38.4758 37.8551 38.3305C38.1058 38.2577 38.3725 38.1929 38.6149 38.1363C38.8413 38.0798 38.9543 37.991 38.9543 37.991L38.5663 40.2457H40.1666L40.7728 36.7382C40.8616 36.1726 40.6594 35.8737 40.2797 35.6958Z" fill="#003A78"/>
<path d="M51.6425 35.421C51.0284 35.429 50.5516 35.5909 50.0987 36.0192L49.9937 36.1242L49.9534 35.9949C49.7676 35.5746 49.3716 35.421 48.7737 35.421C48.1433 35.421 47.4158 35.7847 47.1977 36.1402L47.2944 35.534H45.6781L44.951 39.9467L44.9104 40.2133H44.951H46.5187L46.931 37.7162C46.9633 37.5141 47.1977 36.6492 48.0462 36.6492C48.3451 36.6492 48.4342 36.9322 48.3614 37.3688L47.8846 40.2133H49.4929L49.9212 37.6514C49.9534 37.4496 50.1556 36.6492 51.0041 36.6492C51.1737 36.6492 51.4487 36.892 51.3838 37.3282L50.9393 40.2133L52.4505 40.2053L53.0487 36.6655C53.1943 35.8007 52.6204 35.413 51.6425 35.421Z" fill="#003A78"/>
<path d="M58.0189 35.6634C57.6309 35.4776 57.0975 35.429 56.6693 35.429C55.9095 35.429 55.1501 35.5421 54.4066 35.6957L54.3255 35.712L54.0266 36.7221L54.1639 36.6815C54.8106 36.4634 55.4892 36.3018 56.1519 36.3018C56.3381 36.3018 56.5479 36.3181 56.7095 36.3909C56.8631 36.4554 56.9682 36.5848 56.9359 36.8109C56.9037 36.9728 56.7421 37.0779 56.4026 37.1826C56.0631 37.2877 55.6269 37.3605 55.1744 37.4576C54.2852 37.6514 53.2751 37.9746 53.1215 38.9203C52.9599 39.8902 53.4852 40.3427 54.6407 40.3427C55.2468 40.3427 55.7236 40.1326 55.9338 40.0518L56.2247 39.179C56.2247 39.179 55.6591 39.4699 55.2631 39.4699C54.8106 39.4699 54.6005 39.3083 54.657 38.9608C54.7135 38.6214 55.0773 38.4514 55.5943 38.2982C55.845 38.2333 56.1117 38.1688 56.3541 38.104C56.4428 38.0797 56.5399 38.0475 56.629 38.0152L56.7095 37.9587L56.3055 40.2213H57.9058L58.512 36.7058C58.5279 36.617 58.5279 36.5362 58.5279 36.4634V36.4475C58.5279 36.0515 58.3421 35.817 58.0189 35.6634Z" fill="#003A78"/>
<path d="M8.82597 37.7404L10.7412 35.5422H9.04409L7.54917 37.3607L7.99338 34.6937C7.99338 34.6937 8.05822 34.4915 7.87236 34.2248C7.68649 33.9582 7.33903 33.9904 7.33903 33.9904L6.52274 33.9824L5.47203 40.2215H7.06404L7.39555 38.298C7.39555 38.298 7.62997 38.8961 8.35714 39.5345C9.2622 40.3182 9.97342 40.3182 9.97342 40.3182L10.2078 38.9527C10.2078 38.9527 9.9169 38.8313 9.61001 38.6132C9.05206 38.2414 8.82597 37.7404 8.82597 37.7404Z" fill="#003A78"/>
<path d="M12.4707 35.5745C12.4062 35.5582 12.3494 35.5502 12.3171 35.5423H12.2526H11.5008L10.7414 40.189L10.7331 40.2216H10.7414H12.3334L12.9718 36.3908C12.9718 36.3908 12.9881 36.3665 12.9881 36.3502C12.9961 36.326 12.9961 36.2857 12.9961 36.2372C12.9961 36.1484 12.9639 36.0108 12.8505 35.8412C12.7374 35.6876 12.5921 35.6151 12.4707 35.5745Z" fill="#003A78"/>
<path d="M20.0271 35.4291C19.421 35.4371 18.9442 35.5907 18.4916 36.0273L18.3866 36.124L18.338 36.003C18.1521 35.5827 17.7561 35.4291 17.158 35.4291C16.5279 35.4291 15.8083 35.7929 15.5822 36.1403L15.6873 35.5422H14.0627L13.295 40.2214H14.9113L15.3156 37.7244C15.3478 37.5222 15.5902 36.6574 16.4308 36.6574C16.7297 36.6574 16.8268 36.9403 16.754 37.3769L16.2772 40.2214H17.8855L18.3058 37.6595C18.338 37.4577 18.5402 36.6574 19.3967 36.6574C19.5583 36.6574 19.8412 36.9001 19.7684 37.3363L19.3239 40.2214H20.8999L21.4818 36.6816C21.6271 35.8171 21.005 35.4211 20.0271 35.4291Z" fill="#003A78"/>
<path d="M23.5749 35.5745C23.5101 35.5582 23.4619 35.5502 23.4213 35.5423H23.3648H22.6134L21.8456 40.2216H23.4536L24.1003 36.3908C24.1003 36.3908 24.1083 36.2857 24.1083 36.2372C24.1003 36.1484 24.076 36.0108 23.9547 35.8412C23.8416 35.6876 23.6963 35.6151 23.5749 35.5745Z" fill="#003A78"/>
<path d="M29.2887 35.6634C28.8926 35.4776 28.3673 35.429 27.9311 35.429C27.1713 35.429 26.4115 35.5421 25.676 35.6957L25.4579 35.7362L25.2641 36.8515C25.2641 36.8515 26.5572 36.3424 27.4057 36.3504C27.5836 36.3584 27.8017 36.3261 27.9633 36.3989C28.1169 36.4634 28.1894 36.5605 28.1492 36.7866C28.1249 36.9485 28.0119 37.0779 27.6644 37.1826C27.3329 37.2877 26.8883 37.3605 26.4438 37.4576C25.547 37.6514 24.5449 37.9746 24.3829 38.9203C24.2297 39.8902 24.7467 40.3427 25.9025 40.3427C26.5166 40.3427 26.9934 40.1326 27.1956 40.0518L27.4459 39.2518C27.4459 39.2518 26.9209 39.4699 26.5329 39.4699C26.0804 39.4699 25.8619 39.3083 25.9188 38.9608C25.9753 38.6214 26.347 38.4514 26.8561 38.2982C27.1148 38.2333 27.3735 38.1605 27.6158 38.104C27.8419 38.0475 27.9553 37.9667 27.9553 37.9667L27.5673 40.2213H29.1756L29.7734 36.7058C29.8705 36.1482 29.6684 35.8493 29.2887 35.6634Z" fill="#003A78"/>
<path d="M48.0704 33.053C47.9331 32.9237 47.7715 32.7784 47.6016 32.6407C47.432 32.4954 47.2541 32.3581 47.0845 32.2288C47.0037 32.1639 46.9309 32.1074 46.8581 32.0589C46.9711 31.9621 46.7451 31.7114 46.5994 31.8328C46.5914 31.8407 46.5914 31.8487 46.5835 31.857C46.4056 31.7277 46.4298 31.7436 46.2277 31.5983C46.3085 31.5418 46.3168 31.5013 46.3327 31.4205C46.3327 31.3237 46.2603 31.2426 46.1632 31.2426C46.1226 31.2426 46.0904 31.2589 46.0581 31.2752C46.0175 31.3154 45.9933 31.3719 45.9933 31.4288C45.84 31.3237 45.6864 31.2186 45.5328 31.1136C45.3469 30.9842 45.161 30.8629 44.9915 30.7578C44.9752 30.7498 44.9672 30.7418 44.9509 30.7335V30.7325V30.7013C44.9509 30.6364 44.8621 30.4589 44.7085 30.4266C44.5549 30.394 44.4983 30.4426 44.4661 30.4589L44.4338 30.4426L44.256 30.3458C44.3125 29.9172 44.2317 29.9335 44.1509 29.877C44.0944 29.8364 43.9973 29.8121 43.9002 29.8284C43.8437 29.8444 43.7871 29.877 43.7549 29.9415C43.7185 30.0303 43.7063 30.0545 43.7063 30.0618C43.6481 30.0219 43.4934 29.9255 43.4074 29.9255C43.4476 29.8205 43.3991 29.7234 43.3183 29.6589C43.2052 29.5777 43.0357 29.5618 42.9629 29.6506C42.9545 29.6506 42.9466 29.6589 42.9386 29.6589C42.8255 29.6669 42.8092 29.6346 42.7205 29.594C42.8013 29.19 42.5991 29.1172 42.4053 29.1013H42.3245C42.2194 29.1013 42.1629 29.2143 42.098 29.2788C42.0009 29.2386 41.9122 29.198 41.8234 29.1658C41.6535 29.1013 41.4919 29.0364 41.306 28.9719C41.2495 28.9477 41.185 28.9234 41.1281 28.8991C41.185 28.8263 41.2172 28.7375 41.2172 28.6404C41.2172 28.4143 41.023 28.2281 40.789 28.2281H40.7647C40.6756 28.2364 40.5868 28.2687 40.5223 28.3252C40.4332 28.398 40.3767 28.4948 40.3687 28.6161C40.3201 28.5919 40.2716 28.5759 40.2314 28.5676C40.102 28.5194 40.0049 28.4868 39.8999 28.4546C39.827 28.4383 39.7625 28.4143 39.6734 28.3897C39.6412 28.3738 39.5926 28.3658 39.5444 28.3495C39.7303 27.8807 39.431 27.6383 39.1484 27.6383H39.0676C39.0107 27.6546 38.9542 27.6705 38.914 27.7031C38.8006 27.7756 38.7441 27.9212 38.7441 28.0665C38.7441 28.0908 38.7441 28.1151 38.7524 28.1314C38.6796 28.1151 38.6553 28.1071 38.6147 28.0991C38.5905 28.0991 38.5582 28.0908 38.51 28.0748C38.5339 27.8241 38.4452 27.6625 38.3158 27.5817C38.243 27.5332 38.1542 27.5089 38.0734 27.5089C38.0086 27.5089 37.9521 27.5172 37.9118 27.5495C37.8713 27.5654 37.839 27.5897 37.8147 27.614C37.726 27.6868 37.726 27.7596 37.6774 27.8241C37.6209 27.8082 37.5724 27.7999 37.5238 27.7919C37.4187 27.7596 37.33 27.7433 37.2329 27.7191C37.1684 27.7031 37.1035 27.6948 37.0307 27.6788C36.9905 27.6705 36.9499 27.6625 36.9097 27.6546C36.9825 27.5738 37.0068 27.5654 36.9419 27.2585C36.9177 27.1292 36.8369 27.0401 36.7318 26.9919C36.643 26.9513 36.5459 26.9354 36.4488 26.9433C36.3923 26.9513 36.3358 26.9676 36.2793 26.9919C36.1582 27.0484 36.0126 27.3473 36.0771 27.4846C36.007 27.5197 35.8888 27.494 35.8742 27.5027C35.8576 27.3359 35.8181 27.2006 35.7782 27.1049C36.2713 27.218 36.53 26.5151 35.9238 26.3694C35.6329 26.3049 35.5035 26.6846 35.5923 26.8705C35.5438 26.8383 35.4713 26.822 35.4064 26.822C35.3177 26.814 35.2286 26.822 35.1804 26.8383C35.2771 26.4745 35.059 26.3049 34.8325 26.2886C34.5659 26.2727 34.2833 26.4665 34.4286 26.8303C34.2833 26.8303 34.3641 26.8625 34.267 26.8303C34.2507 26.8303 34.2264 26.822 34.2025 26.814C34.2025 26.5959 34.1782 26.2484 33.7659 26.2484C33.6771 26.2484 33.6043 26.2727 33.5478 26.3129C33.3862 26.41 33.3297 26.6201 33.3297 26.7817C33.176 26.7817 33.1275 26.7575 33.0626 26.7817C33.0869 26.7252 33.1032 26.7575 33.1032 26.5959C33.1032 26.4988 33.0467 26.3774 32.9496 26.3049C32.8851 26.2484 32.8043 26.2078 32.6992 26.2158C32.6198 26.2158 32.5449 26.2363 32.479 26.2651C32.4568 26.2959 32.4315 26.3244 32.4 26.3452C32.3701 26.375 32.3334 26.3954 32.2935 26.4086C32.2665 26.4499 32.246 26.5511 32.2543 26.5896C32.2786 26.727 32.2789 26.6684 32.3032 26.7332C32.1981 26.7009 32.2384 26.7009 32.0931 26.7252C32.1066 26.5889 32.0955 26.4807 32.0338 26.3937C31.9929 26.367 31.9294 26.3226 31.8972 26.2775C31.8264 26.2297 31.7463 26.2071 31.6728 26.2158C31.575 26.2259 31.4928 26.2557 31.4283 26.298C31.4939 26.2266 31.5355 26.1295 31.5355 26.022C31.5355 25.8039 31.3656 25.626 31.1637 25.626C31.0344 25.626 30.913 25.6988 30.8485 25.8118C30.8159 25.8767 30.792 25.9492 30.792 26.022C30.792 26.1028 30.8159 26.1756 30.8485 26.2321C30.913 26.3452 31.0344 26.418 31.1637 26.418C31.2345 26.418 31.3007 26.3951 31.3576 26.3573C31.3063 26.4124 31.2768 26.478 31.2768 26.5473C31.2768 26.7089 31.2768 26.7332 31.3011 26.7897C31.2282 26.7734 31.1877 26.7654 31.1637 26.7654C31.1232 26.7575 31.1152 26.7734 31.0261 26.806C31.0587 26.7412 31.0181 26.6846 31.0181 26.6118C31.0181 26.4825 30.9536 26.3857 30.8485 26.3292C30.7677 26.2807 30.6706 26.2564 30.5656 26.2564C30.3474 26.2564 30.1938 26.4582 30.1938 26.6201C30.1938 26.7734 30.1775 26.7495 30.2181 26.814C30.1533 26.7817 30.1938 26.806 30.121 26.806H30.0967C30.0482 26.814 30.0159 26.822 29.9757 26.8383C30 26.7817 30.0159 26.7169 30.0159 26.6524C30.0159 26.4988 29.9351 26.3774 29.8221 26.3129C29.7572 26.2727 29.6765 26.2564 29.5957 26.2564C29.3612 26.2564 29.1594 26.3937 29.1594 26.6444C29.1594 26.7335 29.1827 26.823 29.2236 26.9003C29.278 26.9423 29.3248 26.9999 29.3626 27.0605C29.4209 27.1022 29.4882 27.1292 29.5634 27.1292C29.604 27.1292 29.6525 27.1212 29.6927 27.1129C29.6605 27.1778 29.6442 27.2585 29.6442 27.3314V27.3553C29.612 27.3716 29.4663 27.3959 29.4663 27.3393C29.4663 27.2821 29.4285 27.1667 29.3626 27.0605C29.3061 27.02 29.2579 26.9652 29.2236 26.9003C29.158 26.8494 29.0817 26.8209 28.9978 26.8383H28.9895C28.9007 26.8546 28.8199 26.8868 28.7551 26.9354C28.7253 26.9763 28.6861 27.0096 28.642 27.0345C28.5848 27.1056 28.5533 27.1934 28.5533 27.2988C28.5533 27.3553 28.5696 27.4122 28.5855 27.4604C28.521 27.4687 28.4967 27.4767 28.4725 27.4846C28.4402 27.4846 28.416 27.493 28.3511 27.5009C28.3754 27.4444 28.3997 27.4038 28.3189 27.2343C28.2866 27.1535 28.2381 27.0727 28.1815 27.0162C28.1167 26.9676 28.0442 26.927 27.9391 26.9191H27.8986C27.8258 26.9191 27.7533 26.9354 27.6884 26.9676C27.5431 27.0401 27.4381 27.1857 27.4381 27.3553C27.4381 27.4767 27.4381 27.5738 27.5105 27.6546C27.4703 27.6625 27.4297 27.6625 27.3975 27.6705C27.2844 27.6948 27.1957 27.7031 27.1066 27.7191C27.0337 27.7354 26.9529 27.7513 26.8642 27.7676C26.8236 27.7756 26.7754 27.7839 26.7268 27.7999C26.7105 27.7031 26.662 27.6383 26.5812 27.5897C26.5167 27.5575 26.4279 27.5412 26.3229 27.5332H26.2903C26.2095 27.5332 26.1366 27.5495 26.0801 27.5897C25.9348 27.6788 25.854 27.8484 25.854 28.018V28.0748C25.8218 28.0828 25.7975 28.0828 25.7892 28.0908C25.7569 28.0908 25.7569 28.0828 25.6841 28.1071C25.6841 28.0748 25.6682 27.8324 25.474 27.7111C25.4174 27.6788 25.345 27.6546 25.2479 27.6546C25.0298 27.6462 24.8356 27.7839 24.8356 28.018C24.8356 28.1151 24.8113 28.2281 24.8682 28.3009L24.658 28.3658L24.4881 28.4223L24.2377 28.5031L24.0033 28.5759C23.9954 28.5839 23.9062 28.2201 23.6236 28.2281H23.6153C23.3244 28.2364 23.187 28.3738 23.187 28.6082C23.187 28.7132 23.195 28.8263 23.2515 28.8991C23.187 28.9234 23.1222 28.9556 23.0577 28.9799C22.8718 29.0527 22.7102 29.1172 22.5244 29.19C22.4595 29.2223 22.387 29.2545 22.3142 29.2868C22.2577 29.1737 22.2012 29.1172 22.0476 29.1172H22.0153C21.7646 29.1415 21.6353 29.3516 21.7244 29.5698C21.6436 29.6103 21.5871 29.6263 21.5059 29.6669C21.4816 29.6426 21.4574 29.6263 21.4334 29.6183C21.4008 29.594 21.3606 29.5861 21.3121 29.5861C21.215 29.5861 21.1342 29.6183 21.0697 29.6748C21.0132 29.7313 20.9806 29.8042 20.9969 29.885C20.9646 29.9092 20.9324 29.9255 20.8998 29.9255C20.8273 29.9578 20.7624 29.99 20.6816 30.0386C20.5929 29.9013 20.6008 29.8607 20.4393 29.8284C20.415 29.8205 20.3907 29.8121 20.3585 29.8121C20.2048 29.7879 20.0838 29.9578 20.0838 30.1357C20.0838 30.2408 20.0998 30.2567 20.1806 30.3132C20.0755 30.3697 20.0353 30.394 19.9382 30.4509C19.9139 30.4346 19.8979 30.4183 19.8654 30.4103C19.8331 30.4023 19.7846 30.394 19.7121 30.394C19.5987 30.394 19.4451 30.5154 19.4451 30.685C19.4451 30.7013 19.4534 30.7255 19.4534 30.7498C19.4048 30.7741 19.3563 30.8063 19.3161 30.8386C19.1302 30.9516 18.9603 31.065 18.7907 31.1701C18.6728 31.2502 18.5542 31.3317 18.4339 31.4142C18.4346 31.4298 18.4329 31.4454 18.427 31.461C18.3864 31.5578 18.3382 31.6063 18.2491 31.6063C18.2241 31.6063 18.2005 31.6008 18.1787 31.5911C18.0781 31.6611 17.9744 31.7377 17.8694 31.8165C17.8531 31.7842 17.8288 31.7762 17.7965 31.7762C17.7723 31.7762 17.732 31.7842 17.6915 31.7842C17.6107 31.7842 17.5056 31.8893 17.5056 31.9944C17.5056 32.0346 17.4893 32.0266 17.5219 32.0589C17.457 32.0994 17.3846 32.148 17.3118 32.1962C17.1418 32.3255 16.956 32.4712 16.7864 32.6248C16.6085 32.7784 16.4389 32.9237 16.3096 33.053C16.269 33.0933 16.2288 33.1259 16.1965 33.1581C16.1074 33.2469 16.0429 33.3034 16.0346 33.3197C16.0429 33.3197 16.0832 33.3034 16.164 33.2552C16.2125 33.2226 16.261 33.1983 16.3096 33.1661C16.4632 33.0773 16.6248 32.9802 16.7864 32.8914C16.956 32.7943 17.1339 32.6973 17.3118 32.6005C17.4733 32.5114 17.6349 32.4306 17.7965 32.3498C17.9502 32.269 18.0954 32.1962 18.2491 32.1237C18.427 32.0429 18.6049 31.9538 18.7907 31.873C18.9603 31.8005 19.1382 31.7194 19.3161 31.6469C19.4936 31.5661 19.6795 31.4933 19.8654 31.4205C20.0512 31.3476 20.2454 31.2752 20.4393 31.2103C20.5929 31.1538 20.7465 31.0973 20.8998 31.0487C20.9566 31.0244 21.0132 31.0085 21.0697 30.9922C21.1907 30.9516 21.3121 30.9114 21.4334 30.8708C21.6273 30.8143 21.8131 30.7578 22.0153 30.7013C22.1769 30.6527 22.3545 30.6042 22.5244 30.556C22.7023 30.5154 22.8798 30.4668 23.0577 30.4266C23.2436 30.3781 23.4294 30.3295 23.6236 30.289C23.8254 30.2487 24.0276 30.2002 24.2377 30.1596C24.3185 30.1437 24.3993 30.1274 24.4881 30.1114C24.5446 30.0951 24.6012 30.0871 24.658 30.0788C24.8519 30.0386 25.0457 30.0063 25.2479 29.9658C25.3207 29.9578 25.4015 29.9415 25.474 29.9335C25.579 29.9255 25.6841 29.9013 25.7892 29.885C25.8863 29.877 25.9834 29.8607 26.0801 29.8444C26.1609 29.8284 26.2417 29.8205 26.3229 29.8042C26.4037 29.7962 26.4924 29.7799 26.5812 29.7719C26.6703 29.7556 26.7671 29.7476 26.8642 29.7313C26.945 29.7234 27.0258 29.7154 27.1066 29.6991C27.2037 29.6911 27.3007 29.6748 27.3975 29.6669C27.4866 29.6506 27.5834 29.6426 27.6884 29.6346C27.7692 29.6263 27.8583 29.6103 27.9391 29.602C28.0199 29.594 28.3754 29.5618 28.4725 29.5455C28.5612 29.5375 28.6583 29.5295 28.7551 29.5212C28.8279 29.5132 28.9087 29.5053 28.9895 29.5053C29.2645 29.481 29.5391 29.4567 29.8221 29.4324C29.9109 29.4245 30.008 29.4245 30.0967 29.4161C30.3474 29.4002 30.5978 29.3839 30.8485 29.3679C30.9536 29.3596 31.0587 29.3516 31.1637 29.3516C31.3819 29.3353 31.6079 29.3274 31.8344 29.3194H32.4C32.5858 29.3194 32.7717 29.3194 32.9496 29.3274C33.1518 29.3274 33.3456 29.3353 33.5478 29.3437C33.7822 29.3516 34.0246 29.3679 34.267 29.3759C34.4528 29.3919 34.6387 29.4002 34.8325 29.4161C35.0184 29.4245 35.2126 29.4404 35.4064 29.4567C35.7539 29.489 36.1014 29.5212 36.4488 29.5618C36.5459 29.5698 36.635 29.5777 36.7318 29.594C36.8289 29.602 36.934 29.6183 37.0307 29.6263C37.0956 29.6346 37.16 29.6426 37.2329 29.6506C37.33 29.6669 37.4267 29.6828 37.5238 29.6911C37.6209 29.7071 37.718 29.7234 37.8147 29.7397C37.8955 29.7476 37.9847 29.7639 38.0734 29.7719C38.1542 29.7879 38.235 29.8042 38.3158 29.8121C38.4129 29.8284 38.518 29.8444 38.6147 29.8607C38.7118 29.885 38.8169 29.9013 38.914 29.9172C38.9948 29.9255 39.0676 29.9335 39.1484 29.9495C39.326 29.9821 39.5039 30.0143 39.6734 30.0545C39.7546 30.0708 39.827 30.0871 39.8999 30.0951C40.0049 30.1194 40.118 30.1437 40.2314 30.1679C40.3281 30.1922 40.4252 30.2165 40.5223 30.2324C40.6031 30.2567 40.6839 30.273 40.7647 30.2973C40.9506 30.3375 41.1281 30.3781 41.306 30.4266C41.4839 30.4668 41.6535 30.5154 41.8234 30.5639C42.0172 30.6125 42.2111 30.669 42.4053 30.7255C42.5828 30.7821 42.7607 30.8306 42.9386 30.8871C43.0679 30.9277 43.189 30.9679 43.3183 31.0085C43.5125 31.073 43.7063 31.1458 43.9002 31.2103C44.0781 31.2752 44.256 31.3397 44.4338 31.4045C44.6194 31.477 44.8056 31.5498 44.9915 31.6226C45.1773 31.6954 45.3549 31.7762 45.5328 31.8487C45.7106 31.9295 45.8885 32.0023 46.0581 32.0831C46.244 32.1722 46.4219 32.253 46.5994 32.3418C46.761 32.4226 46.9229 32.5034 47.0845 32.5922C47.2621 32.6813 47.432 32.7784 47.6016 32.8751C47.7552 32.9643 47.9168 33.053 48.0704 33.1418C48.1353 33.1824 48.1997 33.2226 48.2642 33.2632C48.2157 33.1983 48.1512 33.1259 48.0704 33.053ZM34.8325 27.3636C34.8083 27.3553 34.7923 27.3473 34.768 27.3314C34.784 27.2502 34.768 27.202 34.7275 27.1535H34.8325H34.9296C34.9459 27.2828 34.8974 27.3716 34.8325 27.3636ZM43.7112 30.0649C43.716 30.0656 43.723 30.0663 43.7306 30.0788C43.7292 30.0778 43.7216 30.0722 43.7112 30.0649Z" fill="#F39200"/>
<path d="M48.0704 32.8268C48.111 32.8268 48.1352 32.7945 48.1352 32.754C48.1352 32.7137 48.111 32.6811 48.0704 32.6811C48.0302 32.6811 47.9976 32.7137 47.9976 32.754C47.9976 32.7945 48.0302 32.8268 48.0704 32.8268Z" fill="#F39200"/>
<path d="M47.6017 32.1641C47.6502 32.1641 47.6905 32.1238 47.6905 32.067C47.6905 32.0188 47.6502 31.9782 47.6017 31.9782C47.5531 31.9782 47.5129 32.0188 47.5129 32.067C47.5129 32.1238 47.5531 32.1641 47.6017 32.1641Z" fill="#F39200"/>
<path d="M47.0844 31.5741C47.1572 31.5741 47.2138 31.5176 47.2138 31.4448C47.2138 31.3803 47.1572 31.3154 47.0844 31.3154C47.0199 31.3154 46.9551 31.3803 46.9551 31.4448C46.9551 31.5176 47.0199 31.5741 47.0844 31.5741Z" fill="#F39200"/>
<path d="M46.5996 30.8791C46.6724 30.8791 46.7289 30.8226 46.7289 30.7497C46.7289 30.6852 46.6724 30.6287 46.5996 30.6287C46.5267 30.6287 46.4702 30.6852 46.4702 30.7497C46.4702 30.8226 46.5267 30.8791 46.5996 30.8791Z" fill="#F39200"/>
<path d="M46.058 30.2407C46.1309 30.2407 46.1874 30.1841 46.1874 30.1113C46.1874 30.0468 46.1309 29.9903 46.058 29.9903C45.9935 29.9903 45.9287 30.0468 45.9287 30.1113C45.9287 30.1841 45.9935 30.2407 46.058 30.2407Z" fill="#F39200"/>
<path d="M45.5328 30.5963C45.4683 30.6205 45.4197 30.685 45.4197 30.7658C45.4197 30.8466 45.4683 30.9115 45.5328 30.9357C45.557 30.9437 45.5733 30.9437 45.5973 30.9437C45.6943 30.9437 45.7751 30.8629 45.7751 30.7658C45.7751 30.6691 45.6943 30.5883 45.5973 30.5883C45.5733 30.5883 45.557 30.5883 45.5328 30.5963Z" fill="#F39200"/>
<path d="M45.5328 29.5779C45.6056 29.5779 45.6621 29.5214 45.6621 29.4569C45.6621 29.3841 45.6056 29.3276 45.5328 29.3276C45.4683 29.3276 45.4114 29.3841 45.4114 29.4569C45.4114 29.5214 45.4683 29.5779 45.5328 29.5779Z" fill="#F39200"/>
<path d="M44.9913 29.9658C44.9427 29.9901 44.9025 30.0466 44.9025 30.1032C44.9025 30.168 44.9427 30.2245 44.9913 30.2488C45.0156 30.2647 45.0398 30.2731 45.0721 30.2731C45.1609 30.2731 45.2417 30.2003 45.2417 30.1032C45.2417 30.0144 45.1609 29.9416 45.0721 29.9416C45.0398 29.9416 45.0156 29.9495 44.9913 29.9658Z" fill="#F39200"/>
<path d="M44.9913 28.9072C45.0558 28.9072 45.1127 28.8586 45.1127 28.7858C45.1127 28.7213 45.0558 28.6648 44.9913 28.6648C44.9185 28.6648 44.8619 28.7213 44.8619 28.7858C44.8619 28.8586 44.9185 28.9072 44.9913 28.9072Z" fill="#F39200"/>
<path d="M44.4337 29.3032C44.3851 29.3355 44.3529 29.392 44.3529 29.4485C44.3529 29.5134 44.3851 29.5619 44.4337 29.5942C44.4659 29.6184 44.4982 29.6264 44.5387 29.6264C44.6358 29.6264 44.7166 29.5456 44.7166 29.4485C44.7166 29.3518 44.6358 29.271 44.5387 29.271C44.4982 29.271 44.4659 29.2869 44.4337 29.3032Z" fill="#F39200"/>
<path d="M44.4337 28.2364C44.5065 28.2364 44.563 28.1878 44.563 28.115C44.563 28.0505 44.5065 27.994 44.4337 27.994C44.3609 27.994 44.3043 28.0505 44.3043 28.115C44.3043 28.1878 44.3609 28.2364 44.4337 28.2364Z" fill="#F39200"/>
<path d="M43.9003 28.6001C43.8358 28.6323 43.7872 28.6972 43.7872 28.778C43.7872 28.8588 43.8358 28.9233 43.9003 28.9555C43.9246 28.9638 43.9568 28.9718 43.9811 28.9718C44.0941 28.9718 44.1749 28.883 44.1749 28.778C44.1749 28.6729 44.0941 28.5838 43.9811 28.5838C43.9568 28.5838 43.9246 28.5921 43.9003 28.6001Z" fill="#F39200"/>
<path d="M43.9003 27.5737C43.9731 27.5737 44.0296 27.5171 44.0296 27.4523C44.0296 27.3798 43.9731 27.3233 43.9003 27.3233C43.8358 27.3233 43.7789 27.3798 43.7789 27.4523C43.7789 27.5171 43.8358 27.5737 43.9003 27.5737Z" fill="#F39200"/>
<path d="M43.3184 29.2304C43.2861 29.2707 43.2699 29.3112 43.2699 29.3678C43.2699 29.4163 43.2861 29.4649 43.3184 29.4971C43.3586 29.5536 43.4235 29.5859 43.4963 29.5859C43.6256 29.5859 43.7224 29.4891 43.7224 29.3678C43.7224 29.2467 43.6256 29.1417 43.4963 29.1417C43.4235 29.1417 43.3586 29.1819 43.3184 29.2304Z" fill="#F39200"/>
<path d="M43.3184 26.9595C43.3669 26.9595 43.4072 26.919 43.4072 26.8708C43.4072 26.8222 43.3669 26.7816 43.3184 26.7816C43.2699 26.7816 43.2296 26.8222 43.2296 26.8708C43.2296 26.919 43.2699 26.9595 43.3184 26.9595Z" fill="#F39200"/>
<path d="M43.2537 28.099C43.2537 28.1555 43.278 28.2041 43.3182 28.2443C43.3508 28.2769 43.399 28.2928 43.4476 28.2928C43.561 28.2928 43.6497 28.2041 43.6497 28.099C43.6497 27.9939 43.561 27.9131 43.4476 27.9131C43.399 27.9131 43.3508 27.9294 43.3182 27.9617C43.278 27.9939 43.2537 28.0425 43.2537 28.099Z" fill="#F39200"/>
<path d="M42.9385 27.6141C43.0356 27.6141 43.1081 27.5333 43.1081 27.4446C43.1081 27.3475 43.0356 27.2747 42.9385 27.2747C42.8414 27.2747 42.769 27.3475 42.769 27.4446C42.769 27.5333 42.8414 27.6141 42.9385 27.6141Z" fill="#F39200"/>
<path d="M42.9385 28.9637H42.9548C43.0758 28.9637 43.165 28.8667 43.165 28.7536C43.165 28.6406 43.0758 28.5514 42.9548 28.5514H42.9385C42.8334 28.5598 42.7447 28.6485 42.7447 28.7536C42.7447 28.8587 42.8334 28.9474 42.9385 28.9637Z" fill="#F39200"/>
<path d="M42.4052 26.9352C42.478 26.9352 42.5425 26.8707 42.5425 26.7899C42.5425 26.7171 42.478 26.6523 42.4052 26.6523C42.3244 26.6523 42.2599 26.7171 42.2599 26.7899C42.2599 26.8707 42.3244 26.9352 42.4052 26.9352Z" fill="#F39200"/>
<path d="M42.4052 28.301C42.5102 28.301 42.6073 28.2123 42.6073 28.1072C42.6073 27.9938 42.5102 27.905 42.4052 27.905C42.2921 27.905 42.203 27.9938 42.203 28.1072C42.203 28.2123 42.2921 28.301 42.4052 28.301Z" fill="#F39200"/>
<path d="M41.8233 26.1837C41.8396 26.1917 41.8555 26.1917 41.8718 26.1917C41.9284 26.1917 41.9769 26.1434 41.9769 26.0866C41.9769 26.0221 41.9284 25.9735 41.8718 25.9735C41.8555 25.9735 41.8396 25.9815 41.8233 25.9815C41.791 25.9978 41.7588 26.0384 41.7588 26.0866C41.7588 26.1272 41.791 26.1674 41.8233 26.1837Z" fill="#F39200"/>
<path d="M41.8233 27.6545C41.9284 27.6545 42.0171 27.5737 42.0171 27.4687C42.0171 27.3636 41.9284 27.2828 41.8233 27.2828C41.7182 27.2828 41.6374 27.3636 41.6374 27.4687C41.6374 27.5737 41.7182 27.6545 41.8233 27.6545Z" fill="#F39200"/>
<path d="M41.8233 29.0769H41.8639C42.0334 29.0769 42.1707 28.9396 42.1707 28.778C42.1707 28.6081 42.0334 28.4708 41.8639 28.4708H41.8233C41.6697 28.4871 41.5486 28.6164 41.5486 28.778C41.5486 28.9316 41.6697 29.0606 41.8233 29.0769Z" fill="#F39200"/>
<path d="M41.306 27.7838C41.1687 27.8001 41.0557 27.9131 41.0557 28.0505C41.0557 28.1961 41.1687 28.3091 41.306 28.3254H41.3303C41.4839 28.3254 41.605 28.2041 41.605 28.0505C41.605 27.9052 41.4839 27.7838 41.3303 27.7838H41.306Z" fill="#F39200"/>
<path d="M41.306 25.5695C41.3626 25.5695 41.4031 25.5209 41.4031 25.4644C41.4031 25.4158 41.3626 25.3673 41.306 25.3673C41.2495 25.3673 41.2089 25.4158 41.2089 25.4644C41.2089 25.5209 41.2495 25.5695 41.306 25.5695Z" fill="#F39200"/>
<path d="M41.306 26.9676C41.4111 26.9676 41.4999 26.8868 41.4999 26.7817C41.4999 26.6767 41.4111 26.5959 41.306 26.5959C41.209 26.5959 41.1202 26.6767 41.1202 26.7817C41.1202 26.8868 41.209 26.9676 41.306 26.9676Z" fill="#F39200"/>
<path d="M40.7646 24.9553C40.8048 24.9473 40.8374 24.9147 40.8374 24.8745C40.8374 24.8339 40.8048 24.8016 40.7646 24.8016C40.724 24.8016 40.6918 24.8339 40.6918 24.8745C40.6918 24.9147 40.724 24.9553 40.7646 24.9553Z" fill="#F39200"/>
<path d="M40.7646 26.2726C40.8617 26.2726 40.9425 26.1918 40.9425 26.1027C40.9425 26.0059 40.8617 25.9331 40.7646 25.9331C40.6758 25.9331 40.5947 26.0059 40.5947 26.1027C40.5947 26.1918 40.6758 26.2726 40.7646 26.2726Z" fill="#F39200"/>
<path d="M40.7646 27.7192H40.7889C40.9342 27.7192 41.0555 27.5978 41.0555 27.4445C41.0555 27.2989 40.9342 27.1775 40.7889 27.1775H40.7646C40.6432 27.1858 40.5465 27.2746 40.5222 27.3877C40.5142 27.404 40.5142 27.4282 40.5142 27.4445C40.5142 27.4685 40.5142 27.4927 40.5222 27.509C40.5465 27.6221 40.6432 27.7112 40.7646 27.7192Z" fill="#F39200"/>
<path d="M40.2312 27.6707C40.207 27.6707 40.1827 27.6627 40.1584 27.6627C40.0533 27.6627 39.9646 27.7029 39.8997 27.7678C39.8273 27.8323 39.7867 27.9211 39.7867 28.0261C39.7867 28.1312 39.8273 28.2203 39.8997 28.2848C39.9646 28.3497 40.0533 28.3899 40.1584 28.3899C40.1827 28.3899 40.207 28.3819 40.2312 28.3819C40.3765 28.3497 40.4899 28.2446 40.5222 28.099C40.5222 28.0747 40.5302 28.0504 40.5302 28.0261C40.5302 28.0022 40.5222 27.9779 40.5222 27.9537C40.4899 27.808 40.3765 27.7029 40.2312 27.6707Z" fill="#F39200"/>
<path d="M40.2231 25.4886H40.2311C40.2959 25.4886 40.3604 25.4238 40.3604 25.3593C40.3604 25.2865 40.2959 25.222 40.2311 25.222H40.2231C40.1503 25.222 40.0938 25.2865 40.0938 25.3593C40.0938 25.4321 40.1503 25.4886 40.2231 25.4886Z" fill="#F39200"/>
<path d="M40.2312 27.0161C40.3685 27.0161 40.4736 26.911 40.4736 26.7737C40.4736 26.6444 40.3685 26.5313 40.2312 26.5313C40.0939 26.5313 39.9805 26.6444 39.9805 26.7737C39.9805 26.911 40.0939 27.0161 40.2312 27.0161Z" fill="#F39200"/>
<path d="M39.6736 24.8826H39.6815C39.7381 24.8826 39.7949 24.834 39.7949 24.7695C39.7949 24.7047 39.7381 24.6561 39.6815 24.6561H39.6736C39.617 24.6561 39.5685 24.7047 39.5685 24.7695C39.5685 24.834 39.617 24.8826 39.6736 24.8826Z" fill="#F39200"/>
<path d="M39.6736 26.2888C39.7949 26.2888 39.8917 26.2 39.8917 26.0786C39.8917 25.9572 39.7949 25.8685 39.6736 25.8685C39.5605 25.8685 39.4634 25.9572 39.4634 26.0786C39.4634 26.2 39.5605 26.2888 39.6736 26.2888Z" fill="#F39200"/>
<path d="M39.6736 27.6787C39.6978 27.6787 39.7138 27.6867 39.7381 27.6867C39.7949 27.6867 39.8514 27.6624 39.9 27.6302C39.9645 27.5816 40.013 27.4929 40.013 27.4041C40.013 27.315 39.9645 27.2342 39.9 27.1777C39.8514 27.1454 39.7866 27.1211 39.7221 27.1211C39.7058 27.1211 39.6899 27.1211 39.6736 27.1291C39.5442 27.1454 39.4471 27.2664 39.4471 27.4041C39.4471 27.5414 39.5442 27.6545 39.6736 27.6787Z" fill="#F39200"/>
<path d="M39.1483 24.2036C39.1563 24.2116 39.1642 24.2116 39.1642 24.2116C39.2211 24.2116 39.2613 24.1634 39.2613 24.1149C39.2613 24.0583 39.2211 24.0178 39.1642 24.0178H39.1483C39.1077 24.0341 39.0755 24.0663 39.0755 24.1149C39.0755 24.1551 39.1077 24.1957 39.1483 24.2036Z" fill="#F39200"/>
<path d="M39.1483 25.6503C39.2613 25.6503 39.3504 25.5615 39.3504 25.4481C39.3504 25.343 39.2613 25.2543 39.1483 25.2543C39.0432 25.2543 38.9544 25.343 38.9544 25.4481C38.9544 25.5615 39.0432 25.6423 39.1483 25.6503Z" fill="#F39200"/>
<path d="M38.9139 26.9434C38.9704 27.0078 39.0512 27.0564 39.1483 27.0564C39.3099 27.0564 39.4392 26.9271 39.4392 26.7655C39.4392 26.6118 39.3099 26.4828 39.1483 26.4828C39.0512 26.4828 38.9704 26.5231 38.9139 26.5959C38.8736 26.6444 38.8573 26.701 38.8573 26.7655C38.8573 26.8303 38.8736 26.8948 38.9139 26.9434Z" fill="#F39200"/>
<path d="M38.6068 24.9391H38.6148C38.6956 24.9312 38.7521 24.8663 38.7521 24.7935C38.7521 24.7127 38.6956 24.6482 38.6148 24.6402H38.6068C38.518 24.6402 38.4532 24.7047 38.4532 24.7935C38.4532 24.8743 38.518 24.9391 38.6068 24.9391Z" fill="#F39200"/>
<path d="M38.6148 26.3292C38.7522 26.3292 38.8572 26.2161 38.8572 26.0868C38.8572 25.9574 38.7522 25.8444 38.6148 25.8444C38.4775 25.8444 38.3725 25.9574 38.3725 26.0868C38.3725 26.2161 38.4775 26.3292 38.6148 26.3292Z" fill="#F39200"/>
<path d="M38.2674 27.3151C38.2674 27.3796 38.2837 27.4365 38.3159 27.493C38.3804 27.5898 38.4855 27.6546 38.6149 27.6546H38.6228C38.7442 27.6546 38.8493 27.5981 38.9138 27.501C38.9543 27.4524 38.9786 27.3796 38.9786 27.3151C38.9786 27.2423 38.9543 27.1778 38.9138 27.1213C38.8493 27.0242 38.7442 26.9677 38.6228 26.9677H38.6149C38.4855 26.9677 38.3804 27.0322 38.3159 27.1292C38.2837 27.1858 38.2674 27.2506 38.2674 27.3151Z" fill="#F39200"/>
<path d="M38.1623 23.5167C38.2025 23.5167 38.2351 23.4845 38.2351 23.4439C38.2351 23.3957 38.2025 23.3631 38.1623 23.3631C38.1221 23.3631 38.0895 23.3957 38.0895 23.4439C38.0895 23.4845 38.1221 23.5167 38.1623 23.5167Z" fill="#F39200"/>
<path d="M38.0734 24.2522C38.0814 24.2522 38.0897 24.2601 38.0977 24.2601C38.1785 24.2601 38.235 24.1956 38.235 24.1228C38.235 24.042 38.1785 23.9855 38.0977 23.9855H38.0734C38.0089 24.0018 37.9683 24.05 37.9683 24.1228C37.9683 24.1873 38.0089 24.2442 38.0734 24.2522Z" fill="#F39200"/>
<path d="M38.0734 25.6341C38.0814 25.6421 38.0977 25.6421 38.1056 25.6421C38.2027 25.6421 38.2835 25.5776 38.3158 25.4968C38.3238 25.4725 38.3321 25.4482 38.3321 25.424C38.3321 25.3997 38.3238 25.3674 38.3158 25.3512C38.2835 25.2624 38.2027 25.2059 38.1056 25.2059H38.0734C37.9683 25.2301 37.8875 25.3189 37.8875 25.424C37.8875 25.529 37.9683 25.6178 38.0734 25.6341Z" fill="#F39200"/>
<path d="M37.8148 26.8706C37.8633 26.9594 37.9601 27.0242 38.0735 27.0242C38.1702 27.0242 38.2593 26.9757 38.3159 26.9029C38.3481 26.8543 38.3644 26.7978 38.3644 26.7413C38.3644 26.6768 38.3481 26.6199 38.3159 26.5797C38.2593 26.4989 38.1702 26.4503 38.0735 26.4503C37.9601 26.4503 37.8633 26.5152 37.8148 26.6039C37.7905 26.6442 37.7825 26.6927 37.7825 26.7413C37.7825 26.7818 37.7905 26.83 37.8148 26.8706Z" fill="#F39200"/>
<path d="M37.5238 23.5814C37.5804 23.5814 37.6289 23.5328 37.6289 23.4763C37.6289 23.4118 37.5804 23.3632 37.5238 23.3632C37.4673 23.3632 37.4188 23.4118 37.4188 23.4763C37.4188 23.5328 37.4673 23.5814 37.5238 23.5814Z" fill="#F39200"/>
<path d="M37.5238 24.9957C37.5318 25.0037 37.5318 25.0037 37.5401 25.0037C37.6452 25.0037 37.734 24.9149 37.734 24.8018C37.734 24.6968 37.6452 24.6077 37.5401 24.6077H37.5238C37.4188 24.616 37.338 24.6968 37.338 24.8018C37.338 24.9069 37.4188 24.9957 37.5238 24.9957Z" fill="#F39200"/>
<path d="M37.5238 26.3372C37.6691 26.3372 37.7825 26.2242 37.7825 26.0865C37.7825 25.9412 37.6691 25.8282 37.5238 25.8282C37.3785 25.8282 37.2652 25.9412 37.2652 26.0865C37.2652 26.2242 37.3785 26.3372 37.5238 26.3372Z" fill="#F39200"/>
<path d="M37.4835 27.6949C37.4915 27.6949 37.5077 27.6949 37.5237 27.6869C37.653 27.6706 37.7581 27.5898 37.8146 27.4684C37.8309 27.4202 37.8472 27.3634 37.8472 27.3069C37.8472 27.2503 37.8309 27.1938 37.8146 27.1453C37.7581 27.0242 37.653 26.9351 37.5237 26.9192H37.4835C37.3864 26.9192 37.2976 26.9594 37.2331 27.0242C37.1603 27.0967 37.1117 27.1938 37.1117 27.3069C37.1117 27.4202 37.1603 27.517 37.2331 27.5898C37.2976 27.6547 37.3864 27.6949 37.4835 27.6949Z" fill="#F39200"/>
<path d="M37.3461 26.6928C37.3461 26.5878 37.2975 26.4907 37.233 26.4262C37.1761 26.3856 37.1037 26.3533 37.0308 26.3533C36.8935 26.3533 36.7722 26.4504 36.7319 26.5798C36.7236 26.612 36.7156 26.6523 36.7156 26.6928C36.7156 26.7251 36.7236 26.7656 36.7319 26.7979C36.7722 26.9272 36.8935 27.024 37.0308 27.024C37.1037 27.024 37.1761 27.0001 37.233 26.9515C37.2975 26.8867 37.3461 26.7899 37.3461 26.6928Z" fill="#F39200"/>
<path d="M36.9905 22.8864C37.0068 22.8864 37.0227 22.8864 37.0307 22.8784C37.055 22.8621 37.0633 22.8378 37.0633 22.8135C37.0633 22.7813 37.055 22.757 37.0307 22.7411C37.0227 22.7411 37.0068 22.7327 36.9905 22.7327C36.9499 22.7327 36.9176 22.765 36.9176 22.8135C36.9176 22.8541 36.9499 22.8864 36.9905 22.8864Z" fill="#F39200"/>
<path d="M37.0228 24.2602H37.0308C37.1199 24.2522 37.1924 24.1794 37.1924 24.0906C37.1924 24.0015 37.1199 23.929 37.0308 23.9207H37.0228C36.934 23.9207 36.8532 24.0015 36.8532 24.0906C36.8532 24.1794 36.934 24.2602 37.0228 24.2602Z" fill="#F39200"/>
<path d="M36.9985 25.6583H37.0308C37.1199 25.642 37.2007 25.5855 37.2329 25.5047C37.2409 25.4725 37.2489 25.4482 37.2489 25.408C37.2489 25.3754 37.2409 25.3511 37.2329 25.3188C37.2007 25.238 37.1199 25.1815 37.0308 25.1652H36.9985C36.8612 25.1652 36.7482 25.2786 36.7482 25.408C36.7482 25.5453 36.8612 25.6583 36.9985 25.6583Z" fill="#F39200"/>
<path d="M36.449 23.5733C36.4733 23.5813 36.4896 23.5892 36.5135 23.5892C36.5863 23.5892 36.6512 23.5247 36.6512 23.4519C36.6512 23.3794 36.5863 23.3146 36.5135 23.3146C36.4896 23.3146 36.4733 23.3226 36.449 23.3309C36.4084 23.3552 36.3762 23.4034 36.3762 23.4519C36.3762 23.5084 36.4084 23.549 36.449 23.5733Z" fill="#F39200"/>
<path d="M36.449 24.9553H36.4733C36.6026 24.9553 36.7077 24.8502 36.7077 24.7288C36.7077 24.5995 36.6026 24.5027 36.4733 24.5027H36.449C36.336 24.5107 36.2468 24.6078 36.2468 24.7288C36.2468 24.8422 36.336 24.939 36.449 24.9553Z" fill="#F39200"/>
<path d="M36.449 26.41C36.5783 26.41 36.6914 26.3212 36.732 26.1998C36.7399 26.1676 36.7479 26.1353 36.7479 26.0948C36.7479 26.0625 36.7399 26.0219 36.732 25.9897C36.6914 25.8683 36.5783 25.7795 36.449 25.7795C36.2874 25.7795 36.1581 25.9252 36.1581 26.0948C36.1581 26.2727 36.2874 26.41 36.449 26.41Z" fill="#F39200"/>
<path d="M35.4064 25.7634C35.2126 25.7634 35.051 25.925 35.051 26.1189C35.051 26.3051 35.2126 26.4667 35.4064 26.4667C35.5923 26.4667 35.7539 26.3051 35.7539 26.1189C35.7539 25.925 35.5923 25.7634 35.4064 25.7634Z" fill="#F39200"/>
<path d="M35.8994 22.8864C35.9397 22.8864 35.9723 22.8541 35.9723 22.8135C35.9723 22.7733 35.9397 22.7411 35.8994 22.7411C35.8672 22.7411 35.8349 22.7733 35.8349 22.8135C35.8349 22.8541 35.8672 22.8864 35.8994 22.8864Z" fill="#F39200"/>
<path d="M35.8994 24.3249C36.0125 24.3249 36.1016 24.2361 36.1016 24.131C36.1016 24.026 36.0125 23.9369 35.8994 23.9369C35.7944 23.9369 35.7056 24.026 35.7056 24.131C35.7056 24.2361 35.7944 24.3249 35.8994 24.3249Z" fill="#F39200"/>
<path d="M35.9075 25.7634C36.0771 25.7634 36.2227 25.6261 36.2227 25.4562C36.2227 25.2786 36.0771 25.141 35.9075 25.141C35.738 25.141 35.5923 25.2786 35.5923 25.4562C35.5923 25.6261 35.738 25.7634 35.9075 25.7634Z" fill="#F39200"/>
<path d="M35.3984 22.3206H35.4064C35.4386 22.3126 35.4712 22.2804 35.4712 22.2398C35.4712 22.1992 35.4386 22.167 35.4064 22.167H35.3984C35.3578 22.167 35.3256 22.1992 35.3256 22.2398C35.3256 22.2884 35.3578 22.3206 35.3984 22.3206Z" fill="#F39200"/>
<path d="M35.3822 23.6218H35.4065C35.471 23.6055 35.5275 23.541 35.5275 23.4681C35.5275 23.3957 35.471 23.3308 35.4065 23.3229H35.3822C35.3014 23.3229 35.2286 23.3874 35.2286 23.4681C35.2286 23.5489 35.3014 23.6218 35.3822 23.6218Z" fill="#F39200"/>
<path d="M35.3742 24.9795H35.4064C35.5195 24.9632 35.6166 24.8664 35.6166 24.7451C35.6166 24.6241 35.5195 24.519 35.4064 24.5107C35.3905 24.5107 35.3821 24.5027 35.3742 24.5027C35.2448 24.5027 35.1398 24.6157 35.1398 24.7451C35.1398 24.8744 35.2448 24.9795 35.3742 24.9795Z" fill="#F39200"/>
<path d="M34.8327 22.8783C34.8407 22.8783 34.849 22.8862 34.857 22.8862C34.9135 22.8862 34.962 22.838 34.962 22.7732C34.962 22.7167 34.9135 22.6681 34.857 22.6681H34.8327C34.7841 22.6844 34.7439 22.7246 34.7439 22.7732C34.7439 22.8297 34.7841 22.8703 34.8327 22.8783Z" fill="#F39200"/>
<path d="M34.8327 24.3168H34.8406C34.954 24.3168 35.0508 24.2197 35.0508 24.1066C35.0508 23.9853 34.954 23.8885 34.8406 23.8885H34.8327C34.7196 23.8965 34.6225 23.9936 34.6225 24.1066C34.6225 24.2197 34.7196 24.3168 34.8327 24.3168Z" fill="#F39200"/>
<path d="M34.8327 25.7311C34.9863 25.7311 35.1156 25.5938 35.1156 25.4322C35.1156 25.2706 34.9863 25.1333 34.8327 25.1333C34.6791 25.1412 34.5497 25.2706 34.5497 25.4322C34.5497 25.5938 34.6791 25.7231 34.8327 25.7311Z" fill="#F39200"/>
<path d="M34.2669 25.7392C34.0974 25.7392 33.9517 25.8845 33.9517 26.0623C33.9517 26.2482 34.0974 26.3939 34.2669 26.3939C34.4368 26.3939 34.5742 26.2482 34.5742 26.0623C34.5742 25.8845 34.4368 25.7392 34.2669 25.7392Z" fill="#F39200"/>
<path d="M34.3478 22.2075C34.3883 22.2075 34.4206 22.1669 34.4206 22.1267C34.4206 22.0862 34.3883 22.0539 34.3478 22.0539C34.3072 22.0539 34.267 22.0862 34.267 22.1267C34.267 22.1669 34.3072 22.2075 34.3478 22.2075Z" fill="#F39200"/>
<path d="M34.2669 23.6137H34.2749C34.3557 23.6137 34.4205 23.5492 34.4205 23.4684C34.4205 23.3956 34.3557 23.3228 34.2749 23.3228C34.2669 23.3228 34.2669 23.3307 34.2669 23.3307C34.1861 23.3307 34.1296 23.3956 34.1296 23.4684C34.1296 23.5492 34.1861 23.6137 34.2669 23.6137Z" fill="#F39200"/>
<path d="M34.2669 24.9795H34.2832C34.4206 24.9795 34.5256 24.8664 34.5256 24.7208C34.5256 24.5755 34.4206 24.4621 34.2832 24.4621H34.2669C34.1376 24.4704 34.0405 24.5835 34.0405 24.7208C34.0405 24.8581 34.1376 24.9715 34.2669 24.9795Z" fill="#F39200"/>
<path d="M33.774 25.7149C33.9193 25.7149 34.0486 25.5856 34.0486 25.424C34.0486 25.2624 33.9193 25.133 33.774 25.133C33.6769 25.133 33.5961 25.1896 33.5479 25.2624C33.5153 25.3109 33.4993 25.3674 33.4993 25.424C33.4993 25.4888 33.5153 25.537 33.5479 25.5856C33.5961 25.6664 33.6769 25.7149 33.774 25.7149Z" fill="#F39200"/>
<path d="M33.7174 24.3249C33.8387 24.3249 33.9355 24.2198 33.9355 24.0985C33.9355 23.9695 33.8387 23.8644 33.7174 23.8644C33.6445 23.8644 33.588 23.9046 33.5478 23.9611C33.5152 23.9934 33.4993 24.0419 33.4993 24.0985C33.4993 24.147 33.5152 24.1955 33.5478 24.2361C33.588 24.2926 33.6445 24.3249 33.7174 24.3249Z" fill="#F39200"/>
<path d="M33.7416 22.8459C33.8061 22.8459 33.8467 22.7974 33.8467 22.7409C33.8467 22.6844 33.8061 22.6358 33.7416 22.6358C33.6851 22.6358 33.6365 22.6844 33.6365 22.7409C33.6365 22.7974 33.6851 22.8459 33.7416 22.8459Z" fill="#F39200"/>
<path d="M33.7416 21.658C33.7822 21.658 33.8144 21.6257 33.8144 21.5935C33.8144 21.5529 33.7822 21.5206 33.7416 21.5206C33.7094 21.5206 33.6771 21.5529 33.6771 21.5935C33.6771 21.6257 33.7094 21.658 33.7416 21.658Z" fill="#F39200"/>
<path d="M33.5477 26.1998C33.572 26.1433 33.5879 26.0784 33.5879 26.0139C33.5879 25.9494 33.572 25.8846 33.5477 25.8281C33.4832 25.7067 33.3539 25.6259 33.2002 25.6259C33.1111 25.6259 33.0224 25.6582 32.9495 25.715C32.8687 25.7875 32.8202 25.8926 32.8202 26.0139C32.8202 26.127 32.8687 26.24 32.9495 26.3049C33.0224 26.3614 33.1111 26.402 33.2002 26.402C33.3539 26.402 33.4832 26.3212 33.5477 26.1998Z" fill="#F39200"/>
<path d="M33.176 25.0037C33.3053 25.0037 33.4104 24.8987 33.4104 24.7613C33.4104 24.624 33.3053 24.5106 33.176 24.5106C33.0709 24.5106 32.9821 24.5834 32.9495 24.6885C32.9495 24.7048 32.9415 24.7291 32.9415 24.7613C32.9415 24.7856 32.9495 24.8099 32.9495 24.8342C32.9821 24.9309 33.0709 25.0037 33.176 25.0037Z" fill="#F39200"/>
<path d="M33.1921 22.2075C33.2327 22.2075 33.265 22.1669 33.265 22.1267C33.265 22.0862 33.2327 22.0459 33.1921 22.0459C33.1516 22.0459 33.1193 22.0862 33.1193 22.1267C33.1193 22.1669 33.1516 22.2075 33.1921 22.2075Z" fill="#F39200"/>
<path d="M33.1678 23.5652C33.2486 23.5652 33.3131 23.5007 33.3131 23.4116C33.3131 23.3308 33.2486 23.2663 33.1678 23.2663C33.0871 23.2663 33.0226 23.3308 33.0226 23.4116C33.0226 23.5007 33.0871 23.5652 33.1678 23.5652Z" fill="#F39200"/>
<path d="M32.6748 24.9957C32.5535 24.9957 32.4404 25.0844 32.4002 25.1978C32.3919 25.2301 32.3839 25.2623 32.3839 25.3029C32.3839 25.3352 32.3919 25.3674 32.4002 25.3997C32.4404 25.521 32.5535 25.6098 32.6748 25.6098C32.8122 25.6098 32.9172 25.5131 32.9495 25.3837C32.9578 25.3511 32.9658 25.3272 32.9658 25.3029C32.9658 25.2703 32.9578 25.246 32.9495 25.2221C32.9172 25.0928 32.8122 24.9957 32.6748 24.9957Z" fill="#F39200"/>
<path d="M32.5617 22.757C32.5617 22.8215 32.6103 22.8701 32.6668 22.8701C32.7233 22.8701 32.7719 22.8215 32.7719 22.757C32.7719 22.7005 32.7233 22.6519 32.6668 22.6519C32.6103 22.6519 32.5617 22.7005 32.5617 22.757Z" fill="#F39200"/>
<path d="M32.683 24.3734C32.8043 24.3734 32.9091 24.2603 32.9091 24.123C32.9091 23.9936 32.8043 23.8802 32.683 23.8802C32.5536 23.8802 32.4486 23.9936 32.4486 24.123C32.4486 24.2603 32.5536 24.3734 32.683 24.3734Z" fill="#F39200"/>
<path d="M32.6264 21.6257C32.6666 21.6257 32.6992 21.5934 32.6992 21.5529C32.6992 21.5126 32.6666 21.48 32.6264 21.48C32.5858 21.48 32.5536 21.5126 32.5536 21.5529C32.5536 21.5934 32.5858 21.6257 32.6264 21.6257Z" fill="#F39200"/>
<path d="M32.1738 25.0199C32.2789 25.0199 32.3677 24.9554 32.4003 24.8503C32.4162 24.8261 32.4162 24.7935 32.4162 24.7612C32.4162 24.729 32.4162 24.6967 32.4003 24.6724C32.3677 24.5753 32.2789 24.5025 32.1738 24.5025C32.0365 24.5025 31.9314 24.6159 31.9314 24.7612C31.9314 24.9069 32.0365 25.0199 32.1738 25.0199Z" fill="#F39200"/>
<path d="M31.9727 26.3598C32.0289 26.3969 32.1249 26.4403 32.1818 26.4261C32.22 26.4261 32.3483 26.4053 32.384 26.3938C32.4083 26.3567 32.3944 26.3675 32.4402 26.3369C32.4644 26.3224 32.4509 26.2773 32.479 26.2652C32.5258 26.2 32.5536 26.1178 32.5536 26.0301C32.5536 25.909 32.497 25.7877 32.3999 25.7148C32.3434 25.6666 32.2626 25.634 32.1818 25.634C31.9717 25.634 31.8021 25.8119 31.8021 26.0301C31.8115 26.1219 31.8593 26.2284 31.9089 26.2974C31.9502 26.3255 31.9412 26.3158 31.9727 26.3598Z" fill="#F39200"/>
<path d="M32.1658 22.1832C32.206 22.1832 32.2386 22.151 32.2386 22.1104C32.2386 22.0702 32.206 22.0296 32.1658 22.0296C32.1335 22.0296 32.1009 22.0702 32.1009 22.1104C32.1009 22.151 32.1335 22.1832 32.1658 22.1832Z" fill="#F39200"/>
<path d="M31.7132 21.6257C31.7534 21.6257 31.786 21.5851 31.786 21.5449C31.786 21.5043 31.7534 21.4721 31.7132 21.4721C31.6809 21.4721 31.6403 21.5043 31.6403 21.5449C31.6403 21.5851 31.6809 21.6257 31.7132 21.6257Z" fill="#F39200"/>
<path d="M31.6889 22.9187C31.7534 22.9187 31.81 22.8622 31.81 22.7894C31.81 22.7249 31.7534 22.6683 31.6889 22.6683C31.6324 22.6683 31.5759 22.7249 31.5759 22.7894C31.5759 22.8622 31.6324 22.9187 31.6889 22.9187Z" fill="#F39200"/>
<path d="M32.1819 23.6218C32.2627 23.6218 32.3355 23.541 32.3355 23.4522C32.3355 23.3551 32.2627 23.2823 32.1819 23.2823C32.0931 23.2823 32.0203 23.3551 32.0203 23.4522C32.0203 23.541 32.0931 23.6218 32.1819 23.6218Z" fill="#F39200"/>
<path d="M31.6808 24.3653C31.7938 24.3653 31.883 24.2682 31.883 24.1472C31.883 24.0341 31.7938 23.937 31.6808 23.937C31.5757 23.937 31.4786 24.0341 31.4786 24.1472C31.4786 24.2682 31.5757 24.3653 31.6808 24.3653Z" fill="#F39200"/>
<path d="M31.7132 25.6179C31.8585 25.6179 31.9878 25.4886 31.9878 25.327C31.9878 25.1654 31.8585 25.0281 31.7132 25.0281C31.5595 25.0281 31.4385 25.1654 31.4385 25.327C31.4385 25.4886 31.5595 25.6179 31.7132 25.6179Z" fill="#F39200"/>
<path d="M31.1636 22.2479C31.2201 22.2479 31.2687 22.1914 31.2687 22.1349C31.2687 22.07 31.2201 22.0215 31.1636 22.0215C31.0988 22.0215 31.0506 22.07 31.0506 22.1349C31.0506 22.1914 31.0988 22.2479 31.1636 22.2479Z" fill="#F39200"/>
<path d="M31.1636 23.5975H31.1799C31.2687 23.5975 31.3415 23.5247 31.3415 23.4276C31.3415 23.3388 31.2687 23.266 31.1799 23.266H31.1636C31.0828 23.2743 31.0263 23.3472 31.0263 23.4276C31.0263 23.5167 31.0828 23.5896 31.1636 23.5975Z" fill="#F39200"/>
<path d="M31.1636 25.0199H31.1879C31.3172 25.0199 31.4223 24.9069 31.4223 24.7695C31.4223 24.6319 31.3172 24.5268 31.1879 24.5268H31.1636C31.0506 24.5431 30.9535 24.6482 30.9535 24.7695C30.9535 24.8985 31.0506 25.0036 31.1636 25.0199Z" fill="#F39200"/>
<path d="M30.614 25.7311C30.7111 25.7311 30.7999 25.6825 30.8485 25.6017C30.8807 25.5532 30.905 25.4887 30.905 25.4238C30.905 25.3514 30.8807 25.2865 30.8485 25.238C30.7999 25.1655 30.7111 25.109 30.614 25.109C30.4604 25.109 30.3311 25.2543 30.3311 25.4238C30.3311 25.5858 30.4604 25.7311 30.614 25.7311Z" fill="#F39200"/>
<path d="M30.6302 21.6257C30.6624 21.6257 30.6867 21.6014 30.6867 21.5691C30.6867 21.5369 30.6624 21.5043 30.6302 21.5043C30.6059 21.5043 30.5816 21.5369 30.5816 21.5691C30.5816 21.6014 30.6059 21.6257 30.6302 21.6257Z" fill="#F39200"/>
<path d="M30.606 22.8702C30.6705 22.8702 30.7191 22.8137 30.7191 22.7408C30.7191 22.6763 30.6705 22.6198 30.606 22.6198C30.5412 22.6198 30.493 22.6763 30.493 22.7408C30.493 22.8137 30.5412 22.8702 30.606 22.8702Z" fill="#F39200"/>
<path d="M30.606 24.3087C30.7111 24.3087 30.7919 24.2199 30.7919 24.1066C30.7919 23.9935 30.7111 23.9047 30.606 23.9047C30.5009 23.9047 30.4201 23.9935 30.4201 24.1066C30.4201 24.2199 30.5009 24.3087 30.606 24.3087Z" fill="#F39200"/>
<path d="M30.0645 22.2156C30.0808 22.2156 30.0888 22.2076 30.0967 22.2076C30.121 22.1913 30.1373 22.167 30.1373 22.1348C30.1373 22.1025 30.121 22.0783 30.0967 22.0703C30.0888 22.062 30.0808 22.062 30.0645 22.062C30.0243 22.062 29.9917 22.0942 29.9917 22.1348C29.9917 22.175 30.0243 22.2156 30.0645 22.2156Z" fill="#F39200"/>
<path d="M30.0887 23.6137H30.0967C30.1695 23.6137 30.226 23.5492 30.226 23.4764C30.226 23.4036 30.1695 23.347 30.0967 23.3391H30.0887C30.0242 23.3391 29.9594 23.4036 29.9594 23.4764C29.9594 23.5572 30.0242 23.6137 30.0887 23.6137Z" fill="#F39200"/>
<path d="M30.0726 24.9714H30.0969C30.2179 24.9551 30.307 24.8501 30.307 24.7207C30.307 24.5917 30.2179 24.4867 30.0969 24.4704H30.0726C29.9433 24.4704 29.8462 24.5834 29.8462 24.7207C29.8462 24.8584 29.9433 24.9714 30.0726 24.9714Z" fill="#F39200"/>
<path d="M29.822 25.9331C29.7978 25.9817 29.7898 26.0382 29.7898 26.0947C29.7898 26.1512 29.7978 26.1998 29.822 26.2483C29.8786 26.3614 29.9756 26.4342 30.0967 26.4342C30.2746 26.4342 30.4202 26.2806 30.4202 26.0947C30.4202 25.9009 30.2746 25.7473 30.0967 25.7473C29.9756 25.7473 29.8786 25.8281 29.822 25.9331Z" fill="#F39200"/>
<path d="M29.5715 25.7553C29.6766 25.7553 29.7737 25.6988 29.8219 25.6017C29.8462 25.5531 29.8625 25.5049 29.8625 25.4481C29.8625 25.3916 29.8462 25.343 29.8219 25.3028C29.7737 25.2057 29.6766 25.1412 29.5715 25.1412C29.4099 25.1412 29.2806 25.2785 29.2806 25.4481C29.2806 25.618 29.4099 25.7553 29.5715 25.7553Z" fill="#F39200"/>
<path d="M28.9896 25.7796C28.8925 25.7796 28.8117 25.8281 28.7552 25.9009C28.7066 25.9575 28.6824 26.0299 28.6824 26.1111C28.6824 26.1836 28.7066 26.2564 28.7552 26.3129C28.8117 26.3857 28.8925 26.4343 28.9896 26.4343C29.1592 26.4343 29.2968 26.2886 29.2968 26.1111C29.2968 25.9332 29.1592 25.7796 28.9896 25.7796Z" fill="#F39200"/>
<path d="M29.5473 22.8459C29.5875 22.8459 29.6201 22.8137 29.6201 22.7731C29.6201 22.7329 29.5875 22.6923 29.5473 22.6923C29.5071 22.6923 29.4745 22.7329 29.4745 22.7731C29.4745 22.8137 29.5071 22.8459 29.5473 22.8459Z" fill="#F39200"/>
<path d="M29.5554 24.3572C29.6847 24.3572 29.7818 24.2521 29.7818 24.1148C29.7818 23.9854 29.6847 23.8724 29.5554 23.8724C29.434 23.8724 29.3293 23.9854 29.3293 24.1148C29.3293 24.2521 29.434 24.3572 29.5554 24.3572Z" fill="#F39200"/>
<path d="M28.9896 22.3125H29.0139C29.0381 22.3125 29.0624 22.2882 29.0624 22.256C29.0624 22.2237 29.0381 22.1995 29.0139 22.1995H28.9896C28.9733 22.2074 28.9574 22.2317 28.9574 22.256C28.9574 22.2803 28.9733 22.3045 28.9896 22.3125Z" fill="#F39200"/>
<path d="M28.9896 23.5733H29.0139C29.0784 23.5733 29.1269 23.5168 29.1269 23.4519C29.1269 23.3795 29.0784 23.3226 29.0139 23.3226C29.0059 23.3226 28.9976 23.3309 28.9896 23.3309C28.9331 23.3389 28.8925 23.3874 28.8925 23.4519C28.8925 23.5168 28.9331 23.5653 28.9896 23.5733Z" fill="#F39200"/>
<path d="M28.9896 24.9957H29.0219C29.1512 24.9957 29.2563 24.8826 29.2563 24.7453C29.2563 24.616 29.1512 24.5026 29.0219 24.5026H28.9896C28.8766 24.5189 28.7958 24.6239 28.7958 24.7453C28.7958 24.8743 28.8766 24.9714 28.9896 24.9957Z" fill="#F39200"/>
<path d="M28.7553 26.9352C28.7955 26.8707 28.8201 26.7979 28.8201 26.7171C28.8201 26.628 28.7955 26.5555 28.7553 26.4907C28.6908 26.4019 28.5857 26.3454 28.4723 26.3454C28.3513 26.3454 28.2379 26.4099 28.1814 26.5149C28.1411 26.5715 28.1248 26.6363 28.1248 26.7171C28.1248 26.7899 28.1411 26.8544 28.1814 26.911C28.2379 27.016 28.3513 27.0809 28.4723 27.0809C28.5333 27.0809 28.5909 27.0635 28.6422 27.0344C28.6727 26.9966 28.7102 26.9633 28.7553 26.9352Z" fill="#F39200"/>
<path d="M28.4724 22.9025C28.4804 22.9105 28.4887 22.9105 28.4967 22.9105C28.5289 22.9105 28.5532 22.8783 28.5532 22.846C28.5532 22.8055 28.5289 22.7812 28.4967 22.7812C28.4887 22.7812 28.4804 22.7812 28.4724 22.7895C28.4481 22.7975 28.4322 22.8217 28.4322 22.846C28.4322 22.8703 28.4481 22.8946 28.4724 22.9025Z" fill="#F39200"/>
<path d="M28.4724 24.2925H28.4804C28.5855 24.2925 28.6583 24.2117 28.6583 24.1067C28.6583 24.0016 28.5855 23.9128 28.4804 23.9128H28.4724C28.3753 23.9208 28.3028 24.0016 28.3028 24.1067C28.3028 24.2038 28.3753 24.2846 28.4724 24.2925Z" fill="#F39200"/>
<path d="M28.4724 25.7311H28.4887C28.6097 25.7311 28.7148 25.6423 28.7554 25.513C28.7554 25.4887 28.7633 25.4644 28.7633 25.4401C28.7633 25.4079 28.7554 25.3836 28.7554 25.3593C28.7148 25.238 28.6097 25.1412 28.4887 25.1412H28.4724C28.3271 25.1572 28.2137 25.2785 28.2137 25.4401C28.2137 25.5938 28.3271 25.7231 28.4724 25.7311Z" fill="#F39200"/>
<path d="M27.8743 23.5814C27.8986 23.5814 27.9229 23.5734 27.9388 23.5571C27.9714 23.5328 27.9957 23.5006 27.9957 23.46C27.9957 23.4118 27.9714 23.3792 27.9388 23.3549C27.9229 23.339 27.8986 23.331 27.8743 23.331C27.8098 23.331 27.7533 23.3875 27.7533 23.46C27.7533 23.5248 27.8098 23.5814 27.8743 23.5814Z" fill="#F39200"/>
<path d="M27.9067 24.9795H27.9389C28.044 24.9552 28.1248 24.8664 28.1248 24.7531C28.1248 24.64 28.044 24.5429 27.9389 24.527C27.931 24.527 27.923 24.519 27.9067 24.519C27.7936 24.519 27.6965 24.6241 27.6965 24.7531C27.6965 24.8744 27.7936 24.9795 27.9067 24.9795Z" fill="#F39200"/>
<path d="M27.939 26.41C28.0361 26.41 28.1249 26.3614 28.1814 26.2806C28.214 26.2321 28.2379 26.1676 28.2379 26.0948C28.2379 26.0303 28.214 25.9654 28.1814 25.9169C28.1249 25.8361 28.0361 25.7875 27.939 25.7875C27.8339 25.7875 27.7368 25.8524 27.6886 25.9495C27.6644 25.9977 27.6481 26.0462 27.6481 26.0948C27.6481 26.1513 27.6644 26.1998 27.6886 26.2484C27.7368 26.3455 27.8339 26.41 27.939 26.41Z" fill="#F39200"/>
<path d="M27.3976 22.8782H27.4055C27.4381 22.8782 27.4704 22.854 27.4704 22.8137C27.4704 22.7811 27.4381 22.7489 27.4055 22.7489H27.3976C27.3653 22.7572 27.349 22.7811 27.349 22.8137C27.349 22.846 27.3653 22.8703 27.3976 22.8782Z" fill="#F39200"/>
<path d="M27.3571 24.2441H27.3977C27.4542 24.2198 27.5024 24.1633 27.5024 24.0905C27.5024 24.018 27.4542 23.9611 27.3977 23.9368H27.3571C27.2684 23.9368 27.2035 24.0017 27.2035 24.0905C27.2035 24.1796 27.2684 24.2441 27.3571 24.2441Z" fill="#F39200"/>
<path d="M27.3976 25.6422H27.4056C27.5349 25.6422 27.632 25.5371 27.632 25.3998C27.632 25.2705 27.5349 25.1574 27.4056 25.1574H27.3976C27.2762 25.1654 27.1795 25.2705 27.1795 25.3998C27.1795 25.5292 27.2762 25.6342 27.3976 25.6422Z" fill="#F39200"/>
<path d="M27.0662 26.6928C27.0662 26.7573 27.0825 26.8138 27.1065 26.8624C27.1633 26.9675 27.2684 27.0403 27.3977 27.0403C27.5188 27.0403 27.6318 26.9595 27.6883 26.8464C27.7046 26.8059 27.7209 26.7493 27.7209 26.6928C27.7209 26.6363 27.7046 26.5798 27.6883 26.5392C27.6318 26.4262 27.5188 26.3454 27.3977 26.3454C27.2684 26.3454 27.1633 26.4182 27.1065 26.5229C27.0825 26.5715 27.0662 26.628 27.0662 26.6928Z" fill="#F39200"/>
<path d="M26.9288 26.9595H26.8643C26.7266 26.9918 26.6136 27.0969 26.5813 27.2425C26.5734 27.2747 26.565 27.307 26.565 27.3392C26.565 27.3718 26.5734 27.4041 26.5813 27.4363C26.6136 27.5816 26.7266 27.687 26.8643 27.7193H26.9288C26.9933 27.7193 27.0582 27.703 27.1067 27.6708C27.2118 27.5979 27.2842 27.4769 27.2842 27.3392C27.2842 27.2019 27.2118 27.0726 27.1067 27.0081C27.0582 26.9758 26.9933 26.9595 26.9288 26.9595Z" fill="#F39200"/>
<path d="M26.8641 23.5652C26.9127 23.5652 26.9449 23.525 26.9449 23.4764C26.9449 23.4279 26.9127 23.3873 26.8641 23.3873C26.8156 23.3873 26.7833 23.4279 26.7833 23.4764C26.7833 23.525 26.8156 23.5652 26.8641 23.5652Z" fill="#F39200"/>
<path d="M26.848 24.9471H26.8643C26.9451 24.9392 27.0096 24.8663 27.0096 24.7776C27.0096 24.6885 26.9451 24.6156 26.8643 24.6077H26.848C26.7592 24.6077 26.6864 24.6805 26.6864 24.7776C26.6864 24.8743 26.7592 24.9471 26.848 24.9471Z" fill="#F39200"/>
<path d="M26.8641 26.4019C26.9692 26.4019 27.058 26.3453 27.1065 26.2566C27.1388 26.208 27.1471 26.1595 27.1471 26.0946C27.1471 26.0381 27.1388 25.9895 27.1065 25.9413C27.058 25.8522 26.9692 25.7957 26.8641 25.7957C26.7105 25.7957 26.5895 25.9171 26.5812 26.0787V26.1189C26.5895 26.2805 26.7105 26.4019 26.8641 26.4019Z" fill="#F39200"/>
<path d="M26.2096 24.1067C26.2096 24.1712 26.2502 24.2118 26.3067 24.2118H26.3226C26.3632 24.2038 26.4034 24.1632 26.4034 24.1067C26.4034 24.0582 26.3632 24.0179 26.3226 24.0096H26.3067C26.2502 24.0096 26.2096 24.0502 26.2096 24.1067Z" fill="#F39200"/>
<path d="M26.2823 25.6664H26.3226C26.4196 25.6501 26.5004 25.5534 26.5004 25.44C26.5004 25.319 26.4196 25.2299 26.3226 25.2059H26.2823C26.1852 25.2059 26.1044 25.2704 26.0802 25.3592C26.0722 25.3835 26.0642 25.4078 26.0642 25.44C26.0642 25.4643 26.0722 25.4886 26.0802 25.5128C26.1044 25.6016 26.1852 25.6664 26.2823 25.6664Z" fill="#F39200"/>
<path d="M26.3227 27.0161C26.4441 27.0161 26.5408 26.9353 26.5814 26.8139C26.5894 26.7897 26.5894 26.7574 26.5894 26.7252C26.5894 26.7009 26.5894 26.6687 26.5814 26.6444C26.5408 26.523 26.4441 26.4422 26.3227 26.4422C26.2176 26.4422 26.1205 26.5071 26.0803 26.5958C26.056 26.6364 26.0481 26.6766 26.0481 26.7252C26.0481 26.7737 26.056 26.8223 26.0803 26.8625C26.1205 26.9516 26.2176 27.0161 26.3227 27.0161Z" fill="#F39200"/>
<path d="M26.2419 23.4763C26.2741 23.4763 26.2984 23.452 26.2984 23.4198C26.2984 23.3875 26.2741 23.3633 26.2419 23.3633C26.2096 23.3633 26.1853 23.3875 26.1853 23.4198C26.1853 23.452 26.2096 23.4763 26.2419 23.4763Z" fill="#F39200"/>
<path d="M25.7893 26.9837H25.773C25.644 26.9837 25.5306 27.0645 25.4741 27.1859C25.4498 27.2341 25.4419 27.2826 25.4419 27.3392C25.4419 27.396 25.4498 27.4526 25.4741 27.5011C25.5306 27.6141 25.644 27.6949 25.773 27.6949H25.7893C25.9187 27.687 26.0237 27.6062 26.0803 27.4848C26.0966 27.4442 26.1045 27.396 26.1045 27.3392C26.1045 27.291 26.0966 27.2424 26.0803 27.1939C26.0237 27.0725 25.9187 26.9917 25.7893 26.9837Z" fill="#F39200"/>
<path d="M25.7893 24.9471H25.7973C25.8781 24.9471 25.9429 24.8743 25.9429 24.7935C25.9429 24.7048 25.8781 24.6319 25.7973 24.6319H25.7893C25.7085 24.6399 25.644 24.7048 25.644 24.7935C25.644 24.8743 25.7085 24.9471 25.7893 24.9471Z" fill="#F39200"/>
<path d="M25.7893 26.3292C25.9187 26.3292 26.0237 26.2161 26.0237 26.0788C26.0237 25.9411 25.9187 25.8361 25.7893 25.8361C25.66 25.8361 25.5549 25.9411 25.5549 26.0788C25.5549 26.2161 25.66 26.3292 25.7893 26.3292Z" fill="#F39200"/>
<path d="M25.2236 24.2118C25.2316 24.2118 25.2399 24.2118 25.2479 24.2038C25.2801 24.1955 25.3044 24.1632 25.3044 24.123C25.3044 24.0904 25.2801 24.0502 25.2479 24.0422H25.2236C25.1751 24.0422 25.1428 24.0745 25.1428 24.123C25.1428 24.1712 25.1751 24.2118 25.2236 24.2118Z" fill="#F39200"/>
<path d="M25.2398 25.6422H25.2477C25.3369 25.6422 25.4093 25.5614 25.4093 25.4643C25.4093 25.3592 25.3369 25.2785 25.2477 25.2785H25.2398C25.1427 25.2785 25.0699 25.3592 25.0699 25.4643C25.0699 25.5614 25.1427 25.6422 25.2398 25.6422Z" fill="#F39200"/>
<path d="M25.2478 27.0726C25.3449 27.0726 25.4337 27.0161 25.4743 26.9353C25.4982 26.8947 25.5145 26.8462 25.5145 26.798C25.5145 26.7411 25.4982 26.7009 25.4743 26.6523C25.4337 26.5716 25.3449 26.515 25.2478 26.515C25.1025 26.515 24.9812 26.6444 24.9812 26.798C24.9812 26.9513 25.1025 27.0726 25.2478 27.0726Z" fill="#F39200"/>
<path d="M24.6579 24.8826H24.6981C24.7709 24.8826 24.8115 24.834 24.8032 24.7695C24.8032 24.7047 24.755 24.6561 24.6981 24.6561H24.6579C24.6177 24.6724 24.5851 24.721 24.5851 24.7695C24.5851 24.8177 24.6093 24.8663 24.6579 24.8826Z" fill="#F39200"/>
<path d="M24.6579 26.2726C24.6822 26.2806 24.7064 26.2889 24.7307 26.2889C24.8358 26.2889 24.9246 26.1998 24.9246 26.0867C24.9246 25.9737 24.8358 25.8766 24.7307 25.8766C24.7064 25.8766 24.6822 25.8845 24.6579 25.8929C24.5851 25.9251 24.5365 25.9979 24.5365 26.0867C24.5365 26.1675 24.5851 26.2483 24.6579 26.2726Z" fill="#F39200"/>
<path d="M24.4881 27.6222C24.5367 27.6624 24.5932 27.695 24.6577 27.695C24.8113 27.695 24.9327 27.5657 24.9327 27.4041C24.9327 27.2505 24.8113 27.1211 24.6577 27.1211C24.5932 27.1211 24.5367 27.1454 24.4881 27.1856C24.4316 27.2342 24.3911 27.3149 24.3911 27.4041C24.3911 27.4928 24.4316 27.5736 24.4881 27.6222Z" fill="#F39200"/>
<path d="M24.181 25.5048C24.1973 25.5048 24.2213 25.4968 24.2376 25.4885C24.2781 25.4642 24.3024 25.424 24.3024 25.3675C24.3024 25.319 24.2781 25.2784 24.2376 25.2541C24.2213 25.2461 24.1973 25.2382 24.181 25.2382C24.1082 25.2382 24.0517 25.2947 24.0517 25.3675C24.0517 25.4403 24.1082 25.5048 24.181 25.5048Z" fill="#F39200"/>
<path d="M24.173 27.0161C24.1973 27.0161 24.2136 27.0081 24.2375 27.0081C24.3266 26.9759 24.3911 26.8868 24.3911 26.7817C24.3911 26.6766 24.3266 26.5879 24.2375 26.5556C24.2136 26.5556 24.1973 26.5473 24.173 26.5473C24.0516 26.5473 23.9549 26.6524 23.9549 26.7817C23.9549 26.911 24.0516 27.0161 24.173 27.0161Z" fill="#F39200"/>
<path d="M24.2376 28.4061C24.3347 28.4061 24.4235 28.3656 24.488 28.2931C24.5448 28.2282 24.5851 28.1395 24.5851 28.0424C24.5851 27.9373 24.5448 27.8485 24.488 27.7837C24.4235 27.7112 24.3347 27.6706 24.2376 27.6706C24.0438 27.6706 23.8902 27.8322 23.8902 28.0424C23.8902 28.2445 24.0438 28.4061 24.2376 28.4061Z" fill="#F39200"/>
<path d="M23.6235 24.9148H23.6314C23.6637 24.9148 23.688 24.8905 23.688 24.8583C23.688 24.826 23.6637 24.8017 23.6314 24.8017H23.6235C23.5992 24.8017 23.5749 24.826 23.5749 24.8583C23.5749 24.8905 23.5992 24.9148 23.6235 24.9148Z" fill="#F39200"/>
<path d="M23.6235 26.2806H23.6314C23.7285 26.2806 23.8013 26.1998 23.8013 26.1027C23.8013 26.006 23.7285 25.9252 23.6314 25.9252L23.6235 25.9332C23.5347 25.9332 23.4698 26.014 23.4698 26.1027C23.4698 26.1998 23.5347 26.2727 23.6235 26.2806Z" fill="#F39200"/>
<path d="M23.6234 27.6869C23.7528 27.6869 23.8579 27.5818 23.8579 27.4445C23.8579 27.3072 23.7528 27.1938 23.6234 27.1938C23.4941 27.1938 23.397 27.3072 23.397 27.4445C23.397 27.5818 23.4941 27.6869 23.6234 27.6869Z" fill="#F39200"/>
<path d="M23.0577 25.5452C23.074 25.5532 23.082 25.5615 23.098 25.5615C23.1465 25.5615 23.1871 25.521 23.1871 25.4644C23.1871 25.4159 23.1465 25.3757 23.098 25.3757C23.082 25.3757 23.074 25.3836 23.0577 25.3836C23.0335 25.3999 23.0092 25.4322 23.0092 25.4644C23.0092 25.505 23.0335 25.5372 23.0577 25.5452Z" fill="#F39200"/>
<path d="M23.0577 26.9595H23.09C23.1871 26.9595 23.2599 26.8867 23.2599 26.79C23.2599 26.6929 23.1871 26.6121 23.09 26.6121H23.0577C22.9849 26.628 22.9284 26.7008 22.9284 26.79C22.9284 26.8708 22.9849 26.9432 23.0577 26.9595Z" fill="#F39200"/>
<path d="M23.0577 28.3577C23.2114 28.3577 23.3324 28.2283 23.3324 28.0667C23.3324 27.9051 23.2114 27.7678 23.0577 27.7678C22.9041 27.7678 22.7827 27.9051 22.7827 28.0667C22.7827 28.2283 22.9041 28.3577 23.0577 28.3577Z" fill="#F39200"/>
<path d="M22.5243 26.1755C22.5729 26.1755 22.6131 26.1353 22.6131 26.0784C22.6131 26.0302 22.5729 25.9897 22.5243 25.9897C22.4758 25.9897 22.4435 26.0302 22.4435 26.0784C22.4435 26.1353 22.4758 26.1755 22.5243 26.1755Z" fill="#F39200"/>
<path d="M22.5243 27.6707C22.5403 27.6786 22.5566 27.6786 22.5729 27.6786C22.6696 27.6786 22.7588 27.5899 22.7588 27.4768C22.7588 27.3718 22.6696 27.2747 22.5729 27.2747C22.5566 27.2747 22.5403 27.2826 22.5243 27.2826C22.4435 27.3069 22.3787 27.3877 22.3787 27.4768C22.3787 27.5736 22.4435 27.6544 22.5243 27.6707Z" fill="#F39200"/>
<path d="M22.5243 29.0688C22.6859 29.0688 22.8153 28.9315 22.8153 28.7536C22.8153 28.5841 22.6859 28.4464 22.5243 28.4464C22.3627 28.4464 22.2334 28.5841 22.2334 28.7536C22.2334 28.9315 22.3627 29.0688 22.5243 29.0688Z" fill="#F39200"/>
<path d="M22.0071 26.911H22.015C22.0799 26.911 22.1364 26.8465 22.1364 26.7817C22.1364 26.7088 22.0799 26.6443 22.015 26.6443H22.0071C21.9426 26.6443 21.886 26.7088 21.886 26.7817C21.886 26.8545 21.9426 26.911 22.0071 26.911Z" fill="#F39200"/>
<path d="M22.0152 28.301C22.1123 28.301 22.1931 28.2123 22.1931 28.1072C22.1931 28.0021 22.1123 27.9133 22.0152 27.9133C21.9101 27.9133 21.8293 28.0021 21.8293 28.1072C21.8293 28.2123 21.9101 28.301 22.0152 28.301Z" fill="#F39200"/>
<path d="M21.4333 27.6141C21.4496 27.6221 21.4576 27.6221 21.4735 27.6221C21.5626 27.6221 21.6271 27.5413 21.6271 27.4525C21.6271 27.3554 21.5626 27.2826 21.4735 27.2826H21.4333C21.3685 27.2989 21.3119 27.3717 21.3119 27.4525C21.3119 27.5333 21.3685 27.5978 21.4333 27.6141Z" fill="#F39200"/>
<path d="M21.4333 28.9799C21.5463 28.9799 21.6355 28.8828 21.6355 28.7698C21.6355 28.6567 21.5463 28.5596 21.4333 28.5596C21.3282 28.5596 21.2395 28.6567 21.2395 28.7698C21.2395 28.8828 21.3282 28.9799 21.4333 28.9799Z" fill="#F39200"/>
<path d="M21.0696 26.9595C21.1019 26.9595 21.1341 26.9273 21.1341 26.895C21.1341 26.8545 21.1019 26.8302 21.0696 26.8302C21.0374 26.8302 21.0131 26.8545 21.0131 26.895C21.0131 26.9273 21.0374 26.9595 21.0696 26.9595Z" fill="#F39200"/>
<path d="M20.8999 28.2606C20.9079 28.2606 20.9242 28.2686 20.9401 28.2686C20.997 28.2686 21.0452 28.2364 21.0695 28.1958C21.0858 28.1635 21.1021 28.1313 21.1021 28.099C21.1021 28.0585 21.0858 28.0262 21.0695 28.002C21.0452 27.9534 20.997 27.9291 20.9401 27.9291H20.8999C20.8271 27.9534 20.7785 28.0182 20.7785 28.099C20.7785 28.1719 20.8271 28.2443 20.8999 28.2606Z" fill="#F39200"/>
<path d="M20.8999 29.5941C20.9647 29.5941 21.0292 29.5619 21.0695 29.5053C21.1021 29.4648 21.1263 29.4082 21.1263 29.3517C21.1263 29.2952 21.1021 29.2387 21.0695 29.1981C21.0292 29.1416 20.9647 29.1093 20.8999 29.1093C20.7785 29.1093 20.6735 29.2224 20.6735 29.3517C20.6735 29.4811 20.7785 29.5941 20.8999 29.5941Z" fill="#F39200"/>
<path d="M20.4393 27.5171C20.4556 27.5334 20.4715 27.5334 20.4878 27.5334C20.5443 27.5414 20.5846 27.4929 20.5846 27.4363C20.5846 27.3798 20.5443 27.3313 20.4878 27.3313C20.4715 27.3313 20.4556 27.3392 20.4393 27.3476C20.415 27.3635 20.3907 27.3958 20.3907 27.4363C20.3907 27.4686 20.415 27.5008 20.4393 27.5171Z" fill="#F39200"/>
<path d="M20.4393 28.9395C20.528 28.9395 20.6009 28.8587 20.6009 28.7699C20.6009 28.6728 20.528 28.6 20.4393 28.6C20.3505 28.6 20.2777 28.6728 20.2777 28.7699C20.2777 28.8587 20.3505 28.9395 20.4393 28.9395Z" fill="#F39200"/>
<path d="M19.9624 28.2283C20.0273 28.2283 20.0755 28.1798 20.0755 28.1153C20.0755 28.0504 20.0273 27.9939 19.9704 27.9939C19.9222 27.9939 19.8896 28.0182 19.8654 28.0588C19.8574 28.0747 19.8574 28.091 19.8574 28.1153C19.8574 28.1312 19.8574 28.1555 19.8654 28.1718C19.8896 28.2041 19.9222 28.2283 19.9624 28.2283Z" fill="#F39200"/>
<path d="M19.8655 29.6345C19.9706 29.6345 20.0514 29.5537 20.0514 29.4487C20.0514 29.3436 19.9706 29.2548 19.8655 29.2548C19.7684 29.2548 19.6876 29.3436 19.6876 29.4487C19.6876 29.5537 19.7684 29.6345 19.8655 29.6345Z" fill="#F39200"/>
<path d="M19.4209 28.9153C19.4938 28.9153 19.5583 28.8504 19.5583 28.778C19.5583 28.6972 19.5017 28.6323 19.4289 28.6323C19.3804 28.6323 19.3322 28.6566 19.3159 28.7051C19.2999 28.7214 19.2916 28.7454 19.2916 28.77C19.2916 28.8022 19.2999 28.8265 19.3159 28.8425C19.3322 28.883 19.3804 28.9153 19.4209 28.9153Z" fill="#F39200"/>
<path d="M19.3159 30.2972C19.413 30.2972 19.4938 30.2164 19.4938 30.1114C19.4938 30.0063 19.413 29.9255 19.3159 29.9255C19.2109 29.9255 19.1301 30.0063 19.1301 30.1114C19.1301 30.2164 19.2109 30.2972 19.3159 30.2972Z" fill="#F39200"/>
<path d="M18.8957 29.5861C18.9602 29.5861 19.0171 29.5295 19.0171 29.4567C19.0171 29.3839 18.9602 29.3274 18.8957 29.3274C18.8471 29.3274 18.8149 29.3516 18.7906 29.3922C18.7826 29.4082 18.7743 29.4324 18.7743 29.4567C18.7743 29.481 18.7826 29.5053 18.7906 29.5212C18.8149 29.5618 18.8471 29.5861 18.8957 29.5861Z" fill="#F39200"/>
<path d="M18.7906 30.9599C18.8877 30.9599 18.9685 30.8711 18.9685 30.774C18.9685 30.669 18.8877 30.5802 18.7906 30.5802C18.6935 30.5802 18.6127 30.669 18.6127 30.774C18.6127 30.8711 18.6935 30.9599 18.7906 30.9599Z" fill="#F39200"/>
<path d="M18.434 31.4142C18.4315 31.323 18.332 31.2335 18.2491 31.2266C18.152 31.2266 18.0712 31.3154 18.0712 31.4205C18.0712 31.4985 18.116 31.563 18.1787 31.5911C18.202 31.5751 18.2262 31.5571 18.2491 31.5418C18.3119 31.4981 18.3726 31.4562 18.434 31.4142Z" fill="#F39200"/>
<path d="M18.338 30.2164C18.4025 30.2164 18.4594 30.1598 18.4594 30.0953C18.4594 30.0225 18.4025 29.966 18.338 29.966C18.3058 29.966 18.2735 29.974 18.2492 29.9983C18.2329 30.0225 18.217 30.0548 18.217 30.0953C18.217 30.1276 18.2329 30.1598 18.2492 30.1841C18.2735 30.2084 18.3058 30.2164 18.338 30.2164Z" fill="#F39200"/>
<path d="M17.7966 30.871C17.8611 30.871 17.9017 30.8144 17.9017 30.7579C17.9017 30.6931 17.8531 30.6449 17.7966 30.6449C17.7401 30.6449 17.6915 30.6931 17.6915 30.7579C17.6915 30.8144 17.7401 30.871 17.7966 30.871Z" fill="#F39200"/>
<path d="M17.3116 31.5256C17.3682 31.5256 17.4087 31.4854 17.4004 31.4285C17.4004 31.3803 17.3602 31.3398 17.3116 31.3398C17.2631 31.3398 17.2229 31.3803 17.2229 31.4369C17.2229 31.4854 17.2631 31.5256 17.3116 31.5256Z" fill="#F39200"/>
<path d="M16.7864 32.1318C16.8266 32.1238 16.8592 32.0912 16.8592 32.043C16.8592 32.0024 16.8266 31.9702 16.7864 31.9702H16.7784C16.7378 31.9702 16.7056 32.0024 16.7056 32.051C16.7056 32.0912 16.7461 32.1318 16.7864 32.1318Z" fill="#F39200"/>
<path d="M16.3095 32.8268C16.3418 32.8268 16.366 32.7945 16.366 32.7623C16.366 32.7217 16.3418 32.6974 16.3095 32.6974C16.2773 32.6974 16.245 32.7217 16.245 32.7623C16.245 32.7945 16.2773 32.8268 16.3095 32.8268Z" fill="#F39200"/>
</g>
</g>
<defs>
<clipPath id="clip0_6_1737">
<rect width="53.3333" height="19.1805" fill="white" transform="translate(5.33333 21.3333)"/>
</clipPath>
</defs>
</svg>
